<svg width="422" height="496" viewBox="0 0 422 496" fill="none" xmlns="http://www.w3.org/2000/svg">
<rect width="422" height="496" fill="white"/>
<g clip-path="url(#clip0)">
<path d="M377.853 114.259C377.845 109.21 376.361 104.09 373.077 99.869L346.727 66.1532C342.313 60.549 335.598 57.6956 328.887 57.6846C324.893 57.6846 320.826 58.7082 317.233 60.9491L291.54 76.9341C288.838 78.6573 284.206 79.8401 279.731 79.8095C276.255 79.8245 272.896 79.1288 270.677 78.0331L245.517 65.8459C241.459 63.8921 236.935 63.0913 232.386 63.0835C225.852 63.114 219.235 64.7196 213.918 68.4044L210.982 70.4641C208.636 69.293 205.049 67.5087 200.987 65.4874C196.116 63.0991 190.388 62.1358 184.602 62.117C179.375 62.1319 174.149 62.9373 169.561 64.8755L152.424 72.1879C149.635 73.3974 145.198 74.1872 140.792 74.1677C136.386 74.1866 131.957 73.3967 129.168 72.1879L112.015 64.8716C108.886 63.5375 105.542 62.9672 102.227 62.9633C98.4108 62.9672 94.6169 63.7194 91.0906 65.1477C87.5688 66.5838 84.2997 68.7039 81.6964 71.6131L50.467 106.588C47.0056 110.453 45.2863 115.321 45.2935 120.112C45.2863 125.826 47.7312 131.558 52.4468 135.576L81.5782 160.429L67.7588 174.846C63.9493 178.821 62.0527 183.976 62.0527 189.073C62.0455 194.496 64.1994 199.971 68.4655 204.003L71.2689 206.667C73.9105 209.173 77.0848 210.767 80.4065 211.617C78.7404 214.681 77.8298 218.041 77.8369 221.408C77.8298 226.835 79.9836 232.306 84.2419 236.343L84.2348 236.339L87.0466 239.014C91.049 242.808 96.2375 244.697 101.349 244.694C104.097 244.698 106.848 244.146 109.433 243.065C110.34 246.746 112.214 250.245 115.162 253.041L117.973 255.717C121.976 259.511 127.156 261.4 132.276 261.397C136.278 261.401 140.299 260.221 143.76 257.932C144.773 261.189 146.508 264.276 149.149 266.785L151.961 269.461C155.955 273.255 161.143 275.144 166.256 275.141C171.701 275.145 177.2 273.006 181.262 268.766L193.475 256.012L210.069 271.369C214.041 275.053 219.139 276.886 224.172 276.875C229.7 276.887 235.278 274.672 239.348 270.315L241.997 267.477C244.283 265.021 245.776 262.115 246.641 259.081L253.069 265.013C257.048 268.683 262.139 270.508 267.165 270.504C272.701 270.508 278.294 268.293 282.368 263.933L285.001 261.098C288.043 257.849 289.755 253.823 290.284 249.713C291.981 250.147 293.7 250.442 295.434 250.442C300.97 250.442 306.548 248.231 310.625 243.875L313.267 241.04C316.959 237.083 318.796 232.008 318.788 227.005C318.788 225.452 318.565 223.907 318.221 222.38C322.813 221.771 327.264 219.723 330.65 216.088L333.299 213.25C336.991 209.293 338.82 204.218 338.82 199.211C338.827 193.702 336.605 188.142 332.222 184.092L327.268 179.516L371.98 130.08C375.994 125.629 377.846 119.901 377.853 114.259ZM85.5735 201.098C83.2046 201.091 80.8878 200.244 79.0775 198.528L76.2696 195.864C74.3268 194.028 73.3675 191.583 73.3597 189.074C73.3675 186.72 74.2099 184.422 75.9448 182.611L104.249 153.075C106.093 151.151 108.553 150.188 111.077 150.185C113.439 150.189 115.748 151.039 117.573 152.758L120.369 155.426C120.369 155.426 123.264 159.707 123.272 162.22C123.264 164.102 122.697 165.935 121.598 167.522C121.504 167.616 91.049 199.356 91.049 199.356C89.4317 200.5 87.5195 201.089 85.5735 201.098ZM108.178 230.558C106.338 232.475 103.882 233.434 101.358 233.442C98.9889 233.438 96.6792 232.588 94.8618 230.872L92.0499 228.2L92.0428 228.196C90.1156 226.367 89.1478 223.915 89.1478 221.405C89.1478 219.051 89.9981 216.753 91.7245 214.943C91.7245 214.943 129.453 175.669 129.771 175.291C131.574 173.556 133.897 172.661 136.297 172.657C138.665 172.661 140.975 173.507 142.793 175.226L145.604 177.902C147.539 179.731 148.499 182.179 148.507 184.693C148.499 187.046 147.649 189.348 145.921 191.158L108.178 230.558ZM139.101 247.257C137.264 249.177 134.809 250.138 132.284 250.145C129.915 250.141 127.605 249.291 125.788 247.572L122.968 244.899C121.034 243.066 120.066 240.618 120.066 238.109C120.066 236.008 120.781 233.97 122.148 232.274L148.423 204.85C150.195 203.252 152.417 202.409 154.719 202.409C157.087 202.413 159.397 203.259 161.215 204.979L164.034 207.654C165.961 209.483 166.929 211.932 166.936 214.441C166.928 216.799 166.071 219.101 164.351 220.906L139.101 247.257ZM189.025 244.362L173.081 261.002C171.245 262.921 168.785 263.882 166.261 263.889C163.892 263.885 161.582 263.035 159.765 261.316L156.953 258.644C155.026 256.814 154.058 254.362 154.051 251.853C154.058 249.494 154.908 247.193 156.636 245.391L172.572 228.751C174.416 226.832 176.877 225.868 179.401 225.864C181.762 225.868 184.079 226.715 185.897 228.438L188.716 231.11C190.643 232.939 191.604 235.388 191.611 237.897C191.602 240.255 190.752 242.556 189.025 244.362ZM327.529 199.226C327.526 201.537 326.698 203.8 325.02 205.599L322.379 208.434C320.535 210.406 318.033 211.404 315.471 211.408C313.147 211.404 310.872 210.587 309.066 208.918L264.55 167.75L256.853 175.992L304.501 220.134C306.485 221.97 307.482 224.465 307.497 227.011C307.482 229.332 306.662 231.591 304.988 233.39L302.354 236.225C300.51 238.198 298.008 239.191 295.447 239.199C293.123 239.192 290.84 238.372 289.049 236.713L244.521 195.546L236.832 203.787L276.348 240.33C278.252 242.155 279.228 244.585 279.228 247.079C279.228 249.392 278.407 251.655 276.734 253.45L274.092 256.284C272.255 258.257 269.746 259.255 267.177 259.262C264.845 259.255 262.571 258.434 260.772 256.775L221.335 220.365H221.328L221.321 220.358L213.646 228.615L213.654 228.622L213.801 228.762L233.553 246.992C235.303 248.79 236.21 251.095 236.217 253.48C236.21 255.781 235.397 258.033 233.723 259.829L231.081 262.667C229.237 264.639 226.743 265.629 224.189 265.637C221.864 265.63 219.589 264.813 217.791 263.147L200.593 247.223C202.09 244.287 202.925 241.101 202.925 237.904C202.932 232.481 200.778 227.013 196.52 222.974L193.7 220.298C189.706 216.508 184.525 214.615 179.412 214.622C179.016 214.622 178.615 214.713 178.226 214.736C178.226 214.642 178.249 214.543 178.249 214.449C178.256 209.026 171.843 199.511 171.843 199.511L169.032 196.843C166.043 194.009 162.395 192.241 158.602 191.53C159.384 189.316 159.827 187.011 159.827 184.702C159.827 179.279 157.68 173.806 153.421 169.772L150.61 167.096C146.607 163.302 141.427 161.409 136.314 161.413C135.717 161.413 135.128 161.533 134.534 161.587C134.372 156.379 132.275 151.176 128.194 147.299V147.295L125.39 144.631C121.387 140.834 116.207 138.94 111.094 138.944C105.641 138.94 100.15 141.079 96.0887 145.319L89.4077 152.291L59.8111 127.048C57.6839 125.227 56.6219 122.71 56.6142 120.125C56.6213 117.96 57.3585 115.84 58.9304 114.079L90.1592 79.1054C91.3985 77.7148 93.2314 76.4567 95.3781 75.583C97.5248 74.7101 99.9619 74.2307 102.24 74.234C104.225 74.234 106.087 74.5932 107.576 75.2355L124.721 82.5512C129.554 84.5881 135.166 85.4234 140.805 85.4416C146.451 85.4228 152.055 84.5875 156.889 82.5512L174.026 75.2388C176.668 74.0865 180.654 73.372 184.618 73.387C189.001 73.3603 193.392 74.2677 195.939 75.5675C197.556 76.3722 199.091 77.1361 200.515 77.8499L183.037 90.1358C177.422 94.0849 174.395 100.365 174.403 106.703C174.395 110.897 175.725 115.167 178.431 118.791L178.424 118.783L180.732 121.885C185.116 127.713 191.952 130.709 198.784 130.724C202.642 130.724 206.573 129.749 210.076 127.648L220.528 121.371C222.66 120.067 225.879 119.244 229.207 119.259C233.119 119.236 237.06 120.393 239.43 122.134L268.346 142.865C274.782 147.476 285.264 156.027 291.073 161.409L324.542 192.354C326.524 194.192 327.522 196.675 327.529 199.226ZM363.588 122.557L319.001 171.86L298.757 153.147C292.416 147.294 281.96 138.758 274.946 133.72L246.037 112.989C241.136 109.516 235.135 108.015 229.202 107.993C224.153 108.008 219.067 109.109 214.676 111.723L204.232 118C202.629 118.963 200.74 119.455 198.778 119.459C195.271 119.471 191.761 117.834 189.804 115.169L187.502 112.071L187.495 112.063C186.27 110.412 185.7 108.56 185.691 106.686C185.706 103.851 187.014 101.101 189.546 99.313L220.45 77.5992C223.123 75.6649 227.877 74.308 232.392 74.3418C235.529 74.3268 238.525 74.9575 240.577 75.9708L265.736 88.158C270.026 90.2176 274.867 91.0601 279.737 91.0717C285.995 91.0412 292.32 89.6811 297.532 86.4802L323.233 70.492C324.873 69.4684 326.842 68.939 328.894 68.939C332.363 68.9318 335.84 70.5037 337.808 73.0694L364.158 106.785C365.678 108.716 366.558 111.44 366.558 114.264C366.562 117.421 365.447 120.528 363.588 122.557Z" fill="black"/>
</g>
<path d="M83.7797 385.914H92.1017V391.614H76.3317V364.824H83.7797V385.914ZM106.816 370.79V375.16H115.366V380.822H106.816V385.648H116.506V391.614H99.3677V364.824H116.506V370.79H106.816ZM144.734 364.824V370.752H137.59V391.614H130.142V370.752H123.074V364.824H144.734ZM153.684 364.824H161.208L156.838 375.54H151.86L153.684 364.824ZM179.474 391.88C176.358 391.88 173.8 391.146 171.798 389.676C169.797 388.182 168.72 386.054 168.568 383.292H176.51C176.586 384.23 176.865 384.914 177.346 385.344C177.828 385.775 178.448 385.99 179.208 385.99C179.892 385.99 180.45 385.826 180.88 385.496C181.336 385.142 181.564 384.66 181.564 384.052C181.564 383.267 181.197 382.659 180.462 382.228C179.728 381.798 178.537 381.316 176.89 380.784C175.142 380.202 173.724 379.644 172.634 379.112C171.57 378.555 170.633 377.757 169.822 376.718C169.037 375.654 168.644 374.274 168.644 372.576C168.644 370.854 169.075 369.384 169.936 368.168C170.798 366.927 171.988 365.99 173.508 365.356C175.028 364.723 176.751 364.406 178.676 364.406C181.792 364.406 184.275 365.141 186.124 366.61C187.999 368.054 189 370.094 189.126 372.728H181.032C181.007 371.918 180.754 371.31 180.272 370.904C179.816 370.499 179.221 370.296 178.486 370.296C177.929 370.296 177.473 370.461 177.118 370.79C176.764 371.12 176.586 371.588 176.586 372.196C176.586 372.703 176.776 373.146 177.156 373.526C177.562 373.881 178.056 374.198 178.638 374.476C179.221 374.73 180.082 375.059 181.222 375.464C182.92 376.047 184.313 376.63 185.402 377.212C186.517 377.77 187.467 378.568 188.252 379.606C189.063 380.62 189.468 381.912 189.468 383.482C189.468 385.078 189.063 386.51 188.252 387.776C187.467 389.043 186.314 390.044 184.794 390.778C183.3 391.513 181.526 391.88 179.474 391.88ZM118.242 421.824V427.752H111.098V448.614H103.65V427.752H96.5824V421.824H118.242ZM138.212 448.88C135.704 448.88 133.399 448.298 131.296 447.132C129.193 445.942 127.521 444.308 126.28 442.23C125.064 440.128 124.456 437.759 124.456 435.124C124.456 432.49 125.064 430.134 126.28 428.056C127.521 425.954 129.193 424.32 131.296 423.154C133.399 421.989 135.704 421.406 138.212 421.406C140.745 421.406 143.051 421.989 145.128 423.154C147.231 424.32 148.89 425.954 150.106 428.056C151.322 430.134 151.93 432.49 151.93 435.124C151.93 437.759 151.322 440.128 150.106 442.23C148.89 444.308 147.231 445.942 145.128 447.132C143.025 448.298 140.72 448.88 138.212 448.88ZM138.212 441.964C140.112 441.964 141.607 441.344 142.696 440.102C143.811 438.861 144.368 437.202 144.368 435.124C144.368 432.996 143.811 431.324 142.696 430.108C141.607 428.867 140.112 428.246 138.212 428.246C136.287 428.246 134.779 428.867 133.69 430.108C132.601 431.324 132.056 432.996 132.056 435.124C132.056 437.227 132.601 438.899 133.69 440.14C134.779 441.356 136.287 441.964 138.212 441.964ZM176.748 430.64C176.318 429.931 175.722 429.386 174.962 429.006C174.228 428.626 173.354 428.436 172.34 428.436C170.466 428.436 168.984 429.044 167.894 430.26C166.83 431.476 166.298 433.11 166.298 435.162C166.298 437.468 166.868 439.228 168.008 440.444C169.174 441.635 170.858 442.23 173.062 442.23C175.672 442.23 177.534 441.052 178.648 438.696H171.162V433.338H185.07V440.558C184.488 441.977 183.626 443.307 182.486 444.548C181.372 445.79 179.953 446.816 178.23 447.626C176.508 448.412 174.544 448.804 172.34 448.804C169.655 448.804 167.274 448.234 165.196 447.094C163.144 445.929 161.548 444.32 160.408 442.268C159.294 440.191 158.736 437.822 158.736 435.162C158.736 432.528 159.294 430.184 160.408 428.132C161.548 426.055 163.144 424.446 165.196 423.306C167.248 422.141 169.617 421.558 172.302 421.558C175.672 421.558 178.458 422.369 180.662 423.99C182.866 425.612 184.234 427.828 184.766 430.64H176.748ZM200.226 427.79V432.16H208.776V437.822H200.226V442.648H209.916V448.614H192.778V421.824H209.916V427.79H200.226ZM238.144 421.824V427.752H231V448.614H223.552V427.752H216.484V421.824H238.144ZM269.248 421.824V448.614H261.8V437.86H252.718V448.614H245.27V421.824H252.718V431.894H261.8V421.824H269.248ZM285.328 427.79V432.16H293.878V437.822H285.328V442.648H295.018V448.614H277.88V421.824H295.018V427.79H285.328ZM316.634 448.614L311.314 438.734H310.516V448.614H303.068V421.824H314.81C316.964 421.824 318.788 422.204 320.282 422.964C321.777 423.699 322.904 424.725 323.664 426.042C324.424 427.334 324.804 428.791 324.804 430.412C324.804 432.236 324.298 433.845 323.284 435.238C322.296 436.606 320.84 437.582 318.914 438.164L324.956 448.614H316.634ZM310.516 433.642H314.202C315.216 433.642 315.976 433.402 316.482 432.92C316.989 432.439 317.242 431.742 317.242 430.83C317.242 429.969 316.976 429.298 316.444 428.816C315.938 428.31 315.19 428.056 314.202 428.056H310.516V433.642Z" fill="black"/>
<path d="M246.678 364.824L240.104 391.614H230.946L227.26 375.198L223.498 391.614H214.34L207.842 364.824H215.898L219.014 383.14L223.232 364.824H231.402L235.506 382.988L238.622 364.824H246.678ZM267.053 391.88C264.545 391.88 262.239 391.298 260.137 390.132C258.034 388.942 256.362 387.308 255.121 385.23C253.905 383.128 253.297 380.759 253.297 378.124C253.297 375.49 253.905 373.134 255.121 371.056C256.362 368.954 258.034 367.32 260.137 366.154C262.239 364.989 264.545 364.406 267.053 364.406C269.586 364.406 271.891 364.989 273.969 366.154C276.071 367.32 277.731 368.954 278.947 371.056C280.163 373.134 280.771 375.49 280.771 378.124C280.771 380.759 280.163 383.128 278.947 385.23C277.731 387.308 276.071 388.942 273.969 390.132C271.866 391.298 269.561 391.88 267.053 391.88ZM267.053 384.964C268.953 384.964 270.447 384.344 271.537 383.102C272.651 381.861 273.209 380.202 273.209 378.124C273.209 375.996 272.651 374.324 271.537 373.108C270.447 371.867 268.953 371.246 267.053 371.246C265.127 371.246 263.62 371.867 262.531 373.108C261.441 374.324 260.897 375.996 260.897 378.124C260.897 380.227 261.441 381.899 262.531 383.14C263.62 384.356 265.127 384.964 267.053 384.964ZM302.055 391.614L296.735 381.734H295.937V391.614H288.489V364.824H300.231C302.384 364.824 304.208 365.204 305.703 365.964C307.198 366.699 308.325 367.725 309.085 369.042C309.845 370.334 310.225 371.791 310.225 373.412C310.225 375.236 309.718 376.845 308.705 378.238C307.717 379.606 306.26 380.582 304.335 381.164L310.377 391.614H302.055ZM295.937 376.642H299.623C300.636 376.642 301.396 376.402 301.903 375.92C302.41 375.439 302.663 374.742 302.663 373.83C302.663 372.969 302.397 372.298 301.865 371.816C301.358 371.31 300.611 371.056 299.623 371.056H295.937V376.642ZM333.828 391.614L325.43 379.872V391.614H317.982V364.824H325.43V376.376L333.752 364.824H342.34L332.498 377.82L342.834 391.614H333.828Z" fill="#CB0000"/>
<defs>
<clipPath id="clip0">
<rect width="332.56" height="332.56" fill="white" transform="translate(45.2935 1)"/>
</clipPath>
</defs>
</svg>
