<svg width="422" height="496" viewBox="0 0 422 496" fill="none" xmlns="http://www.w3.org/2000/svg">
<rect width="422" height="496" fill="white"/>
<path d="M296.301 294.134L318.411 271.845C319.065 271.184 319.371 270.255 319.235 269.336C319.1 268.416 318.539 267.614 317.722 267.172L245.13 227.826C243.981 227.204 242.56 227.41 241.637 228.334L219.352 250.619L197.068 228.335C196.513 227.777 195.769 227.466 194.986 227.466C194.495 227.466 194.011 227.591 193.578 227.828L170.262 240.461C169.569 240.839 169.065 241.461 168.841 242.216C168.617 242.971 168.7 243.77 169.073 244.463C169.593 245.415 170.588 246.009 171.67 246.009C172.158 246.009 172.646 245.883 173.075 245.651L194.451 234.064L214.466 254.079L147.103 290.49L127.257 270.482L162.696 251.274C163.392 250.9 163.896 250.278 164.12 249.523C164.344 248.768 164.262 247.969 163.884 247.276C163.368 246.324 162.373 245.73 161.291 245.73C160.803 245.73 160.319 245.856 159.886 246.088L120.985 267.173C120.171 267.61 119.604 268.421 119.471 269.337C119.337 270.25 119.644 271.186 120.297 271.844L142.404 294.135L120.295 316.424C119.641 317.084 119.336 318.013 119.471 318.932C119.607 319.852 120.167 320.654 120.984 321.096L143.613 333.361V386.614C143.613 386.716 143.618 386.818 143.628 386.918C143.633 386.961 143.641 387.003 143.647 387.045C143.654 387.097 143.66 387.148 143.671 387.199C143.683 387.263 143.7 387.325 143.717 387.388C143.725 387.417 143.731 387.446 143.739 387.474C143.759 387.538 143.782 387.6 143.805 387.662C143.815 387.689 143.824 387.717 143.835 387.744C143.858 387.8 143.885 387.853 143.911 387.907C143.927 387.94 143.941 387.974 143.959 388.006C143.982 388.05 144.009 388.093 144.034 388.135C144.058 388.176 144.081 388.216 144.107 388.256C144.129 388.289 144.153 388.32 144.177 388.352C144.21 388.398 144.243 388.445 144.279 388.49C144.299 388.514 144.322 388.537 144.343 388.561C144.384 388.609 144.426 388.657 144.471 388.702C144.494 388.726 144.52 388.747 144.544 388.77C144.588 388.812 144.633 388.855 144.68 388.894C144.726 388.932 144.775 388.967 144.823 389.002C144.851 389.023 144.878 389.045 144.907 389.065C144.991 389.122 145.079 389.175 145.17 389.224L217.935 428.557C218.039 428.614 218.149 428.664 218.261 428.709C218.285 428.718 218.31 428.727 218.335 428.735C218.417 428.766 218.5 428.792 218.585 428.815C218.616 428.823 218.646 428.831 218.677 428.838C218.759 428.858 218.843 428.873 218.928 428.885C218.957 428.889 218.986 428.895 219.015 428.898C219.126 428.911 219.238 428.919 219.353 428.919C219.467 428.919 219.58 428.911 219.691 428.898C219.72 428.895 219.749 428.889 219.778 428.885C219.863 428.873 219.947 428.858 220.029 428.838C220.059 428.831 220.09 428.823 220.12 428.815C220.205 428.792 220.289 428.766 220.37 428.735C220.395 428.727 220.42 428.718 220.444 428.709C220.556 428.664 220.665 428.614 220.77 428.557L293.535 389.224C293.626 389.175 293.713 389.122 293.798 389.065C293.827 389.045 293.854 389.022 293.882 389.002C293.93 388.966 293.979 388.932 294.025 388.894C294.072 388.855 294.116 388.812 294.161 388.77C294.185 388.747 294.211 388.726 294.234 388.702C294.279 388.657 294.321 388.609 294.362 388.561C294.383 388.537 294.406 388.514 294.426 388.49C294.462 388.445 294.495 388.398 294.528 388.352C294.552 388.32 294.576 388.289 294.598 388.256C294.624 388.216 294.647 388.176 294.671 388.135C294.697 388.093 294.723 388.05 294.746 388.006C294.764 387.974 294.778 387.94 294.794 387.907C294.82 387.853 294.847 387.8 294.869 387.744C294.881 387.717 294.89 387.689 294.9 387.662C294.923 387.6 294.946 387.538 294.965 387.474C294.974 387.446 294.98 387.417 294.988 387.388C295.004 387.325 295.022 387.263 295.034 387.199C295.045 387.148 295.05 387.097 295.058 387.045C295.064 387.003 295.072 386.961 295.076 386.918C295.087 386.817 295.092 386.716 295.091 386.614V333.361L317.719 321.097C318.534 320.656 319.101 319.846 319.234 318.933C319.368 318.016 319.061 317.079 318.412 316.422L296.301 294.134ZM244.253 234.065L311.448 270.484L291.602 290.491L224.24 254.078L244.253 234.065ZM147.958 329.003L127.258 317.784L147.104 297.777L214.467 334.19L194.453 354.204L147.983 329.017C147.975 329.012 147.966 329.008 147.958 329.003ZM216.402 421.019L149.515 384.863V336.56L193.577 360.442C194.019 360.682 194.502 360.798 194.982 360.798C195.746 360.798 196.502 360.502 197.069 359.934L216.402 340.601V421.019ZM219.353 330.122L152.776 294.135L219.355 258.147L285.932 294.134L219.353 330.122ZM290.76 328.997C290.744 329.006 290.728 329.014 290.713 329.023L276.011 336.992C275.314 337.366 274.811 337.991 274.586 338.747C274.362 339.503 274.445 340.301 274.819 340.994C275.338 341.946 276.333 342.536 277.415 342.536C277.903 342.536 278.391 342.414 278.82 342.182L289.191 336.561V384.864L222.304 421.019V340.6L241.639 359.934C242.198 360.493 242.937 360.8 243.724 360.8C244.212 360.8 244.696 360.674 245.129 360.442L268.445 347.804C269.137 347.43 269.641 346.805 269.865 346.049C270.09 345.294 270.007 344.499 269.633 343.807C269.114 342.851 268.118 342.26 267.032 342.26C266.548 342.26 266.06 342.382 265.632 342.618L244.255 354.201L224.24 334.19L291.604 297.776L311.45 317.783L290.76 328.997Z" fill="black"/>
<path d="M188.735 299.484L173.377 280.957C162.167 267.434 146.304 258.593 128.907 256.173V256.173C113.528 254.033 99.2884 246.867 88.408 235.789L62.1812 209.088" stroke="black" stroke-width="6" stroke-dasharray="30 30"/>
<path d="M242.973 299.484L261.656 276.794C275.171 260.38 294.354 249.636 315.411 246.687V246.687C334.034 244.079 351.263 235.361 364.395 221.901L396.215 189.287" stroke="black" stroke-width="6" stroke-dasharray="30 30"/>
<path d="M279.797 169.46L279.704 176.323L267.297 176.153L267.222 181.609L276.373 181.734L276.284 188.289L267.132 188.164L266.966 200.307L258.343 200.189L258.767 169.172L279.797 169.46ZM296.936 169.694L296.69 187.688C296.667 189.36 297.031 190.656 297.781 191.575C298.56 192.496 299.742 192.966 301.326 192.988C302.91 193.01 304.104 192.571 304.908 191.673C305.742 190.746 306.17 189.461 306.193 187.818L306.439 169.824L315.062 169.942L314.816 187.936C314.777 190.781 314.143 193.207 312.912 195.215C311.683 197.193 310.019 198.681 307.923 199.679C305.856 200.648 303.562 201.115 301.039 201.081C298.517 201.046 296.265 200.517 294.284 199.492C292.333 198.439 290.799 196.907 289.683 194.897C288.595 192.887 288.071 190.445 288.111 187.571L288.357 169.577L296.936 169.694ZM353.175 201.486L344.551 201.368L333.306 183.876L333.069 201.211L324.445 201.093L324.869 170.076L333.493 170.194L344.736 187.905L344.976 170.351L353.599 170.469L353.175 201.486Z" fill="black"/>
<path d="M72.529 123.768C70.1975 124.236 68.1727 124.07 66.4546 123.271C64.7328 122.453 63.6078 121.023 63.0796 118.979L69.0222 117.787C69.2198 118.477 69.5309 118.947 69.9557 119.197C70.3805 119.447 70.8773 119.515 71.4459 119.401C71.9578 119.298 72.3501 119.091 72.6229 118.78C72.9109 118.447 73.0092 118.052 72.918 117.597C72.8001 117.01 72.434 116.61 71.8196 116.398C71.2053 116.186 70.2421 116.004 68.9301 115.854C67.5347 115.68 66.3896 115.476 65.4946 115.241C64.6148 114.984 63.7937 114.527 63.0312 113.872C62.2839 113.194 61.7828 112.22 61.5281 110.95C61.2695 109.661 61.3712 108.496 61.8332 107.457C62.2914 106.399 63.0416 105.519 64.0839 104.817C65.1262 104.115 66.3677 103.62 67.8083 103.331C70.1399 102.863 72.1078 103.04 73.7121 103.862C75.3316 104.661 76.3864 106.037 76.8766 107.989L70.8203 109.204C70.6796 108.601 70.3988 108.184 69.9778 107.953C69.5758 107.718 69.0999 107.656 68.5502 107.766C68.1332 107.85 67.8167 108.042 67.6007 108.341C67.3848 108.641 67.3224 109.018 67.4137 109.473C67.4897 109.852 67.6984 110.155 68.0398 110.383C68.3963 110.587 68.8135 110.75 69.2913 110.871C69.7653 110.973 70.4592 111.09 71.3731 111.223C72.7306 111.404 73.8606 111.631 74.7631 111.903C75.6808 112.153 76.5114 112.607 77.255 113.267C78.0136 113.903 78.5109 114.809 78.7466 115.984C78.9861 117.179 78.8977 118.311 78.4812 119.38C78.0837 120.446 77.3714 121.367 76.3443 122.145C75.3362 122.919 74.0644 123.46 72.529 123.768ZM95.4783 119.165C93.6017 119.541 91.7892 119.451 90.041 118.895C88.289 118.32 86.7926 117.348 85.552 115.98C84.3265 114.589 83.5161 112.908 83.1207 110.937C82.7252 108.965 82.8265 107.111 83.4246 105.374C84.0379 103.615 85.0437 102.141 86.4421 100.953C87.8405 99.7659 89.4781 98.9839 91.3547 98.6074C93.2503 98.2272 95.0627 98.3172 96.792 98.8774C98.5402 99.4337 100.027 100.407 101.253 101.798C102.474 103.17 103.283 104.842 103.678 106.813C104.074 108.784 103.974 110.648 103.38 112.404C102.782 114.141 101.785 115.612 100.391 116.819C98.9924 118.007 97.3549 118.789 95.4783 119.165ZM94.4402 113.99C95.8619 113.705 96.8872 113.016 97.5159 111.924C98.1637 110.828 98.3317 109.502 98.0199 107.948C97.7005 106.356 97.0325 105.188 96.0159 104.446C95.0145 103.68 93.803 103.44 92.3813 103.725C90.9407 104.014 89.906 104.705 89.2772 105.797C88.6446 106.871 88.488 108.204 88.8074 109.796C89.123 111.369 89.7815 112.539 90.7829 113.304C91.7805 114.05 92.9996 114.279 94.4402 113.99ZM108.777 105.82C108.381 103.849 108.437 102.013 108.944 100.314C109.466 98.5928 110.4 97.1533 111.746 95.9962C113.087 94.82 114.744 94.0342 116.715 93.6388C119.217 93.1369 121.456 93.3877 123.432 94.3914C125.404 95.3761 126.867 96.9658 127.82 99.1606L121.82 100.364C121.308 99.6781 120.69 99.2007 119.965 98.9319C119.26 98.6593 118.49 98.6066 117.656 98.7739C116.367 99.0325 115.427 99.7041 114.836 100.789C114.261 101.851 114.127 103.15 114.435 104.685C114.747 106.239 115.375 107.405 116.319 108.182C117.279 108.936 118.403 109.183 119.692 108.925C120.526 108.757 121.216 108.412 121.762 107.888C122.327 107.361 122.713 106.682 122.921 105.852L128.921 104.648C128.888 107.041 128.153 109.081 126.717 110.769C125.277 112.438 123.306 113.524 120.804 114.026C118.833 114.421 117.003 114.344 115.316 113.796C113.625 113.228 112.208 112.26 111.066 110.892C109.939 109.501 109.176 107.81 108.777 105.82ZM137.847 89.6069L141.868 109.653L136.295 110.77L132.274 90.7248L137.847 89.6069ZM160.337 102.547L153.229 103.972L152.804 107.459L146.947 108.634L150.233 87.1224L156.659 85.8334L167.959 104.419L162.074 105.6L160.337 102.547ZM158.089 98.5609L154.627 92.5115L153.795 99.4222L158.089 98.5609ZM177.763 98.0159L183.99 96.7668L184.846 101.032L173.046 103.399L169.025 83.3531L174.598 82.2352L177.763 98.0159ZM47.6814 170.02L40.573 171.446L40.1484 174.933L34.2911 176.108L37.5776 154.596L44.0036 153.307L55.3036 171.893L49.4178 173.074L47.6814 170.02ZM45.4327 166.035L41.9713 159.985L41.1392 166.896L45.4327 166.035ZM84.6035 145.163L83.7054 166.196L76.8529 167.57L71.631 155.84L71.2799 168.688L64.4274 170.063L55.5443 150.992L61.5723 149.783L66.6529 163.021L67.0599 148.682L73.1732 147.456L78.9703 160.432L78.5756 146.373L84.6035 145.163ZM106.285 158.265L99.1763 159.691L98.7517 163.178L92.8944 164.353L96.1809 142.841L102.607 141.552L113.907 160.138L108.021 161.318L106.285 158.265ZM104.036 154.28L100.575 148.23L99.7424 155.141L104.036 154.28ZM129.144 157.081L123.68 150.487L123.083 150.607L124.566 158L118.993 159.118L114.972 139.072L123.758 137.309C125.369 136.986 126.791 136.997 128.024 137.341C129.252 137.667 130.25 138.265 131.016 139.137C131.779 139.989 132.282 141.022 132.525 142.235C132.799 143.6 132.661 144.88 132.112 146.075C131.578 147.247 130.635 148.195 129.281 148.92L135.371 155.832L129.144 157.081ZM122.319 146.797L125.077 146.244C125.835 146.092 126.368 145.797 126.675 145.361C126.981 144.925 127.066 144.366 126.93 143.683C126.8 143.039 126.501 142.576 126.03 142.296C125.575 141.993 124.978 141.916 124.239 142.064L121.481 142.617L122.319 146.797ZM143.509 137.991L144.165 141.261L150.562 139.978L151.412 144.215L145.015 145.498L145.739 149.109L152.989 147.655L153.885 152.119L141.061 154.691L137.04 134.645L149.864 132.073L150.759 136.537L143.509 137.991ZM178.476 147.186L172.903 148.304L163.234 138.59L165.482 149.793L159.909 150.91L155.888 130.865L161.461 129.747L171.158 139.603L168.882 128.258L174.455 127.14L178.476 147.186ZM187.368 129.194L188.024 132.464L194.421 131.18L195.271 135.417L188.873 136.7L189.598 140.311L196.848 138.857L197.744 143.321L184.92 145.893L180.899 125.848L193.723 123.275L194.618 127.739L187.368 129.194ZM211.371 140.795C209.039 141.262 207.014 141.097 205.296 140.298C203.575 139.48 202.449 138.049 201.921 136.006L207.864 134.814C208.061 135.504 208.373 135.974 208.797 136.224C209.222 136.474 209.719 136.542 210.288 136.427C210.799 136.325 211.192 136.118 211.465 135.807C211.753 135.473 211.851 135.079 211.76 134.624C211.642 134.036 211.276 133.636 210.661 133.424C210.047 133.212 209.084 133.031 207.772 132.88C206.376 132.706 205.231 132.502 204.336 132.268C203.457 132.01 202.635 131.554 201.873 130.898C201.126 130.22 200.625 129.246 200.37 127.976C200.111 126.687 200.213 125.523 200.675 124.484C201.133 123.426 201.883 122.546 202.926 121.843C203.968 121.141 205.209 120.646 206.65 120.357C208.982 119.889 210.95 120.066 212.554 120.888C214.173 121.687 215.228 123.063 215.718 125.015L209.662 126.23C209.521 125.628 209.241 125.211 208.82 124.98C208.418 124.745 207.942 124.682 207.392 124.793C206.975 124.876 206.658 125.068 206.442 125.368C206.226 125.667 206.164 126.045 206.255 126.5C206.331 126.879 206.54 127.182 206.882 127.409C207.238 127.614 207.655 127.777 208.133 127.898C208.607 128 209.301 128.117 210.215 128.249C211.572 128.43 212.702 128.657 213.605 128.93C214.523 129.179 215.353 129.634 216.097 130.293C216.855 130.93 217.353 131.836 217.588 133.011C217.828 134.205 217.739 135.337 217.323 136.406C216.925 137.472 216.213 138.394 215.186 139.172C214.178 139.946 212.906 140.487 211.371 140.795ZM232.273 136.602C229.941 137.07 227.916 136.904 226.198 136.105C224.477 135.287 223.352 133.856 222.823 131.813L228.766 130.621C228.964 131.311 229.275 131.781 229.699 132.031C230.124 132.281 230.621 132.349 231.19 132.235C231.702 132.132 232.094 131.925 232.367 131.614C232.655 131.28 232.753 130.886 232.662 130.431C232.544 129.843 232.178 129.444 231.563 129.232C230.949 129.02 229.986 128.838 228.674 128.687C227.278 128.514 226.133 128.31 225.238 128.075C224.359 127.818 223.537 127.361 222.775 126.706C222.028 126.027 221.527 125.053 221.272 123.783C221.013 122.494 221.115 121.33 221.577 120.291C222.035 119.233 222.785 118.353 223.828 117.651C224.87 116.949 226.111 116.453 227.552 116.164C229.884 115.697 231.852 115.874 233.456 116.696C235.075 117.495 236.13 118.87 236.62 120.823L230.564 122.038C230.423 121.435 230.143 121.018 229.722 120.787C229.32 120.552 228.844 120.49 228.294 120.6C227.877 120.684 227.56 120.875 227.344 121.175C227.129 121.475 227.066 121.852 227.157 122.307C227.233 122.686 227.442 122.989 227.784 123.216C228.14 123.421 228.557 123.584 229.035 123.705C229.509 123.807 230.203 123.924 231.117 124.056C232.474 124.238 233.604 124.464 234.507 124.737C235.425 124.987 236.255 125.441 236.999 126.1C237.757 126.737 238.255 127.643 238.49 128.818C238.73 130.012 238.641 131.144 238.225 132.214C237.827 133.279 237.115 134.201 236.088 134.979C235.08 135.753 233.808 136.294 232.273 136.602Z" fill="#CB0000"/>
<path d="M308.339 53.574C306.369 53.0057 304.886 52.0746 303.889 50.7807C302.896 49.4709 302.604 47.9294 303.012 46.1562L308.032 47.6049C307.909 48.2112 307.96 48.6944 308.186 49.0544C308.412 49.4145 308.765 49.6638 309.245 49.8024C309.677 49.9272 310.06 49.9248 310.392 49.7951C310.745 49.6541 310.977 49.3915 311.088 49.0072C311.231 48.5107 311.11 48.0594 310.724 47.6532C310.338 47.247 309.673 46.7255 308.729 46.0889C307.731 45.4017 306.936 44.7907 306.344 44.2557C305.773 43.7093 305.326 43.0339 305.003 42.2295C304.701 41.4137 304.705 40.4694 305.014 39.3965C305.328 38.3076 305.869 37.4574 306.635 36.8458C307.406 36.2183 308.329 35.843 309.406 35.7199C310.482 35.5968 311.629 35.7109 312.846 36.0621C314.815 36.6305 316.251 37.5477 317.152 38.8138C318.073 40.0685 318.334 41.5401 317.933 43.2286L312.817 41.7522C312.949 41.2351 312.9 40.8046 312.669 40.4606C312.455 40.1212 312.116 39.8845 311.651 39.7505C311.299 39.6488 310.981 39.6698 310.696 39.8132C310.412 39.9567 310.215 40.2206 310.104 40.6049C310.011 40.9252 310.051 41.2401 310.221 41.5496C310.413 41.8477 310.667 42.138 310.985 42.4204C311.307 42.6868 311.791 43.0521 312.438 43.5163C313.405 44.1942 314.179 44.8166 314.761 45.3836C315.364 45.9393 315.819 46.617 316.126 47.4168C316.454 48.2052 316.474 49.0958 316.188 50.0886C315.897 51.0974 315.379 51.9282 314.636 52.581C313.908 53.2384 312.997 53.6607 311.903 53.8478C310.824 54.0396 309.636 53.9483 308.339 53.574ZM328.162 44.8532L327.365 47.6155L332.769 49.175L331.736 52.754L326.332 51.1944L325.452 54.245L331.577 56.0125L330.488 59.7836L319.655 56.6575L324.542 39.7235L335.375 42.8495L334.287 46.6207L328.162 44.8532ZM341.325 59.0076L346.585 60.5256L345.545 64.1285L335.577 61.252L340.464 44.318L345.172 45.6765L341.325 59.0076ZM366.506 51.8331L365.425 55.5802L358.651 53.6255L357.792 56.604L362.788 58.0457L361.755 61.6247L356.759 60.183L354.846 66.8124L350.138 65.4539L355.025 48.5199L366.506 51.8331ZM273.865 70.6869C273.722 70.16 273.445 69.7071 273.034 69.3283C272.639 68.9541 272.121 68.6745 271.481 68.4897C270.296 68.1477 269.248 68.2617 268.338 68.8317C267.443 69.4062 266.809 70.3421 266.435 71.6391C266.014 73.0963 266.053 74.3132 266.552 75.2898C267.072 76.255 268.028 76.9386 269.421 77.3406C271.07 77.8166 272.462 77.4116 273.597 76.1257L268.865 74.7602L269.842 71.3734L278.633 73.9103L277.316 78.4741C276.689 79.2645 275.902 79.9481 274.955 80.5248C274.024 81.1061 272.94 81.4959 271.704 81.6941C270.471 81.8763 269.159 81.7664 267.766 81.3644C266.068 80.8745 264.667 80.0799 263.562 78.9804C262.477 77.8695 261.762 76.5615 261.416 75.0565C261.09 73.5401 261.17 71.9412 261.655 70.2598C262.135 68.5944 262.915 67.2148 263.994 66.1211C265.094 65.0159 266.396 64.2902 267.901 63.9439C269.41 63.5816 271.014 63.6453 272.711 64.1352C274.841 64.7497 276.455 65.7705 277.552 67.1973C278.65 68.6242 279.11 70.2749 278.933 72.1494L273.865 70.6869ZM289.294 87.4467L287.733 80.2312L287.229 80.0856L285.427 86.3308L280.719 84.9722L285.606 68.0382L293.028 70.18C294.389 70.5728 295.473 71.1457 296.279 71.8987C297.089 72.6357 297.615 73.4899 297.855 74.4612C298.1 75.4165 298.074 76.4066 297.779 77.4314C297.446 78.5844 296.832 79.5088 295.937 80.2047C295.063 80.8892 293.965 81.24 292.641 81.2571L294.554 88.9647L289.294 87.4467ZM288.158 76.8669L290.488 77.5393C291.128 77.7241 291.653 77.7106 292.061 77.4988C292.469 77.2869 292.756 76.8928 292.922 76.3163C293.079 75.7719 293.034 75.299 292.785 74.8977C292.557 74.485 292.131 74.1886 291.507 74.0083L289.177 73.336L288.158 76.8669ZM307.432 92.8629C305.847 92.4054 304.496 91.6166 303.379 90.4964C302.267 89.3603 301.508 88.0224 301.103 86.4829C300.717 84.932 300.765 83.3239 301.246 81.6585C301.726 79.9931 302.54 78.6148 303.688 77.5235C304.856 76.4208 306.211 75.6929 307.753 75.3399C309.294 74.9868 310.858 75.039 312.443 75.4965C314.045 75.9586 315.395 76.7474 316.496 77.8629C317.613 78.983 318.363 80.3186 318.748 81.8695C319.138 83.4044 319.093 85.0045 318.612 86.6699C318.132 88.3353 317.315 89.7216 316.163 90.8289C315.016 91.9202 313.669 92.6504 312.122 93.0194C310.581 93.3725 309.017 93.3203 307.432 92.8629ZM308.693 88.4912C309.894 88.8378 310.952 88.7181 311.867 88.1322C312.798 87.5508 313.453 86.6036 313.832 85.2905C314.22 83.9454 314.173 82.7869 313.69 81.8149C313.228 80.8316 312.397 80.1666 311.196 79.82C309.979 79.4689 308.913 79.5862 307.998 80.1722C307.087 80.7421 306.438 81.6996 306.05 83.0448C305.666 84.3739 305.706 85.5301 306.168 86.5134C306.634 87.4808 307.476 88.14 308.693 88.4912ZM349.769 86.5536L340.727 102.289L334.938 100.618L335.602 89.5691L330.23 99.2595L324.441 97.589L325.22 79.4697L330.312 80.9392L328.941 93.0852L334.948 82.2769L340.113 83.7672L339.394 95.9973L344.676 85.0842L349.769 86.5536ZM367.283 91.6078L366.202 95.3549L361.686 94.0518L357.881 107.239L353.173 105.88L356.978 92.6932L352.511 91.404L353.592 87.6569L367.283 91.6078ZM386.944 97.2812L382.057 114.215L377.349 112.857L379.311 106.059L373.57 104.402L371.609 111.2L366.901 109.842L371.787 92.9075L376.495 94.2661L374.658 100.631L380.399 102.288L382.236 95.9227L386.944 97.2812Z" fill="black"/>
<path d="M153.472 456.923C153.472 457.99 153.222 458.965 152.722 459.848C152.239 460.715 151.497 461.415 150.497 461.948C149.514 462.465 148.306 462.723 146.872 462.723H144.447V468.673H139.547V451.048H146.872C148.289 451.048 149.489 451.298 150.472 451.798C151.472 452.298 152.222 452.99 152.722 453.873C153.222 454.756 153.472 455.773 153.472 456.923ZM146.397 458.823C147.781 458.823 148.472 458.19 148.472 456.923C148.472 455.64 147.781 454.998 146.397 454.998H144.447V458.823H146.397ZM169.466 465.798H163.216L162.266 468.673H157.116L163.541 451.048H169.191L175.591 468.673H170.416L169.466 465.798ZM168.241 462.048L166.341 456.348L164.466 462.048H168.241ZM196.388 468.673H191.488L184.963 458.823V468.673H180.063V451.048H184.963L191.488 461.023V451.048H196.388V468.673ZM201.454 459.823C201.454 458.09 201.813 456.548 202.529 455.198C203.263 453.831 204.296 452.773 205.629 452.023C206.963 451.256 208.496 450.873 210.229 450.873C212.429 450.873 214.279 451.465 215.779 452.648C217.279 453.815 218.246 455.406 218.679 457.423H213.404C213.088 456.756 212.646 456.248 212.079 455.898C211.529 455.548 210.888 455.373 210.154 455.373C209.021 455.373 208.113 455.781 207.429 456.598C206.763 457.398 206.429 458.473 206.429 459.823C206.429 461.19 206.763 462.281 207.429 463.098C208.113 463.898 209.021 464.298 210.154 464.298C210.888 464.298 211.529 464.123 212.079 463.773C212.646 463.423 213.088 462.915 213.404 462.248H218.679C218.246 464.265 217.279 465.865 215.779 467.048C214.279 468.215 212.429 468.798 210.229 468.798C208.496 468.798 206.963 468.423 205.629 467.673C204.296 466.906 203.263 465.848 202.529 464.498C201.813 463.131 201.454 461.573 201.454 459.823ZM239.65 451.048V468.673H234.75V461.598H228.775V468.673H223.875V451.048H228.775V457.673H234.75V451.048H239.65ZM256.479 465.798H250.229L249.279 468.673H244.129L250.554 451.048H256.204L262.604 468.673H257.429L256.479 465.798ZM255.254 462.048L253.354 456.348L251.479 462.048H255.254ZM280.351 451.048V454.948H275.651V468.673H270.751V454.948H266.101V451.048H280.351ZM298.314 451.048V454.948H293.614V468.673H288.714V454.948H284.064V451.048H298.314Z" fill="black"/>
</svg>
