<svg width="862" height="875" viewBox="0 0 862 875" fill="none" xmlns="http://www.w3.org/2000/svg">
<rect width="862" height="875" fill="#F9F9F9"/>
<g clip-path="url(#clip0)">
<path d="M267.436 105.888H267.402C265.558 105.888 264.062 107.386 264.062 109.234C264.062 111.082 265.558 112.58 267.402 112.58H267.436C269.281 112.58 270.776 111.082 270.776 109.234C270.776 107.386 269.281 105.888 267.436 105.888Z" fill="#F4F4F4"/>
<path d="M283.979 105.888H283.945C282.101 105.888 280.605 107.386 280.605 109.234C280.605 111.082 282.101 112.58 283.945 112.58H283.979C285.824 112.58 287.319 111.082 287.319 109.234C287.319 107.386 285.824 105.888 283.979 105.888Z" fill="#F4F4F4"/>
<path d="M300.522 105.888H300.488C298.644 105.888 297.148 107.386 297.148 109.234C297.148 111.082 298.644 112.58 300.488 112.58H300.522C302.367 112.58 303.862 111.082 303.862 109.234C303.862 107.386 302.367 105.888 300.522 105.888Z" fill="#F4F4F4"/>
<path d="M393.393 105.888H328.957C327.112 105.888 325.617 107.386 325.617 109.234C325.617 111.081 327.112 112.58 328.957 112.58H393.393C395.237 112.58 396.732 111.081 396.732 109.234C396.732 107.386 395.237 105.888 393.393 105.888Z" fill="#F4F4F4"/>
<path d="M332.801 241.096C331.923 241.096 331.064 241.454 330.439 242.076C329.818 242.698 329.461 243.562 329.461 244.442C329.461 245.322 329.818 246.186 330.439 246.808C331.064 247.43 331.923 247.788 332.801 247.788C333.679 247.788 334.541 247.43 335.162 246.808C335.786 246.186 336.141 245.322 336.141 244.442C336.141 243.562 335.786 242.698 335.162 242.076C334.541 241.454 333.679 241.096 332.801 241.096Z" fill="#F4F4F4"/>
<path d="M405.389 89.8604H255.611C249.761 89.8604 245 94.6302 245 100.492V237.157C245 243.02 249.761 247.789 255.611 247.789H318.811C320.655 247.789 322.15 246.291 322.15 244.442C322.15 242.594 320.655 241.096 318.811 241.096H255.611C253.444 241.096 251.68 239.33 251.68 237.157V128.608H409.32V237.157C409.32 239.328 407.556 241.096 405.389 241.096H346.42C344.576 241.096 343.081 242.594 343.081 244.442C343.081 246.291 344.576 247.789 346.42 247.789H405.389C411.239 247.789 416 243.02 416 237.157V100.492C416 94.6302 411.239 89.8604 405.389 89.8604V89.8604ZM251.68 121.914V100.492C251.68 98.3204 253.444 96.5531 255.611 96.5531H405.389C407.556 96.5531 409.32 98.3204 409.32 100.492V121.915H251.68V121.914Z" fill="#F4F4F4"/>
<path d="M304.461 166.827C304.461 160.184 299.068 154.78 292.438 154.78H281.193C279.349 154.78 277.854 156.278 277.854 158.127V192.929C277.854 194.777 279.349 196.275 281.193 196.275H292.438C299.068 196.275 304.461 190.871 304.461 184.228C304.461 180.81 303.032 177.723 300.741 175.528C303.032 173.333 304.461 170.246 304.461 166.827ZM297.782 184.228C297.782 187.18 295.384 189.583 292.438 189.583H284.533V178.874H292.438C295.384 178.874 297.782 181.275 297.782 184.228ZM284.533 172.181V161.473H292.438C295.385 161.473 297.782 163.876 297.782 166.827C297.782 169.779 295.385 172.181 292.438 172.181H284.533Z" fill="#F4F4F4"/>
<path d="M314.018 154.78C312.173 154.78 310.678 156.278 310.678 158.127V185.189C310.678 191.303 315.642 196.275 321.742 196.275C323.587 196.275 325.082 194.777 325.082 192.929C325.082 191.081 323.587 189.583 321.742 189.583C319.325 189.583 317.357 187.611 317.357 185.189V158.127C317.357 156.278 315.862 154.78 314.018 154.78V154.78Z" fill="#DA0000" fill-opacity="0.04"/>
<path d="M353.5 184.157C353.5 177.475 348.076 172.038 341.406 172.038C334.737 172.038 329.312 177.475 329.312 184.157C329.312 190.839 334.738 196.274 341.406 196.274C348.076 196.274 353.5 190.839 353.5 184.157ZM335.992 184.157C335.992 181.165 338.421 178.731 341.406 178.731C344.391 178.731 346.821 181.165 346.821 184.157C346.821 187.148 344.393 189.582 341.406 189.582C338.42 189.582 335.992 187.148 335.992 184.157Z" fill="#DA0000" fill-opacity="0.04"/>
<path d="M371.051 205.644C368.066 205.644 365.637 203.21 365.637 200.22C365.637 198.371 364.142 196.873 362.297 196.873C360.452 196.873 358.957 198.371 358.957 200.22C358.957 206.902 364.383 212.337 371.051 212.337C377.72 212.337 383.146 206.902 383.146 200.22V184.157C383.146 177.475 377.72 172.038 371.051 172.038C364.383 172.038 358.957 177.475 358.957 184.157C358.957 190.839 364.383 196.275 371.051 196.275C372.997 196.275 374.836 195.809 376.466 194.987V200.22C376.466 203.21 374.037 205.644 371.051 205.644V205.644ZM371.051 189.582C368.066 189.582 365.637 187.148 365.637 184.157C365.637 181.165 368.066 178.731 371.051 178.731C374.037 178.731 376.466 181.165 376.466 184.157C376.466 187.148 374.037 189.582 371.051 189.582V189.582Z" fill="#F4F4F4"/>
<path d="M281.193 229.07H379.805C381.65 229.07 383.145 227.572 383.145 225.723C383.145 223.875 381.65 222.377 379.805 222.377H281.193C279.35 222.377 277.854 223.875 277.854 225.723C277.854 227.572 279.35 229.07 281.193 229.07V229.07Z" fill="#F4F4F4"/>
</g>
<g clip-path="url(#clip1)">
<path d="M425.913 746.726L425.892 746.752C424.728 748.183 424.948 750.289 426.382 751.454C427.816 752.62 429.922 752.405 431.085 750.973L431.107 750.947C432.27 749.515 432.051 747.41 430.616 746.244C429.182 745.079 427.076 745.294 425.913 746.726Z" fill="#F4F4F4"/>
<path d="M436.345 733.888L436.323 733.914C435.16 735.346 435.379 737.451 436.814 738.616C438.248 739.782 440.354 739.567 441.517 738.135L441.538 738.109C442.702 736.677 442.482 734.572 441.048 733.406C439.613 732.241 437.508 732.456 436.345 733.888Z" fill="#F4F4F4"/>
<path d="M446.778 721.051L446.757 721.077C445.593 722.509 445.813 724.614 447.247 725.779C448.682 726.945 450.787 726.73 451.951 725.298L451.972 725.272C453.135 723.84 452.916 721.735 451.481 720.569C450.047 719.404 447.942 719.619 446.778 721.051Z" fill="#F4F4F4"/>
<path d="M505.35 648.98L464.712 698.984C463.548 700.416 463.768 702.521 465.202 703.687C466.636 704.852 468.742 704.637 469.906 703.205L510.544 653.201C511.708 651.769 511.487 649.663 510.054 648.499C508.619 647.333 506.514 647.548 505.35 648.98Z" fill="#F4F4F4"/>
<path d="M572.063 781.274C571.51 781.956 571.246 782.848 571.335 783.725C571.426 784.6 571.871 785.422 572.554 785.977C573.237 786.532 574.133 786.799 575.007 786.71C575.884 786.617 576.704 786.177 577.257 785.495C577.811 784.814 578.077 783.919 577.986 783.045C577.896 782.168 577.449 781.348 576.767 780.793C576.084 780.238 575.19 779.969 574.314 780.06C573.439 780.15 572.617 780.593 572.063 781.274Z" fill="#F4F4F4"/>
<path d="M500.479 629.561L406.016 745.795C402.327 750.335 403.026 757.038 407.575 760.734L513.632 846.927C518.182 850.625 524.885 849.938 528.575 845.398L568.434 796.352C569.597 794.921 569.378 792.816 567.943 791.65C566.509 790.484 564.403 790.7 563.24 792.131L523.381 841.177C522.014 842.859 519.531 843.114 517.845 841.744L433.607 773.283L533.028 650.948L617.267 719.408C618.952 720.778 619.211 723.261 617.844 724.943L580.653 770.705C579.49 772.137 579.709 774.242 581.144 775.407C582.578 776.573 584.684 776.358 585.847 774.926L623.038 729.164C626.727 724.624 626.029 717.922 621.479 714.225L515.422 628.032C510.873 624.335 504.169 625.021 500.479 629.561V629.561ZM428.412 769.061L411.787 755.551C410.102 754.181 409.843 751.698 411.21 750.016L505.673 633.782C507.04 632.1 509.524 631.846 511.209 633.215L527.834 646.727L428.413 769.062L428.412 769.061Z" fill="#F4F4F4"/>
<path d="M496.556 756.427C491.401 752.237 483.805 753.014 479.624 758.159L472.532 766.886C471.369 768.317 471.588 770.422 473.023 771.588L500.031 793.537C501.465 794.703 503.571 794.488 504.734 793.056L511.826 784.33C516.007 779.185 515.215 771.591 510.06 767.401C507.407 765.245 504.109 764.408 500.961 764.801C500.703 761.639 499.209 758.582 496.556 756.427ZM505.847 772.585C508.138 774.447 508.49 777.823 506.632 780.109L501.647 786.243L493.336 779.49L498.322 773.355C500.18 771.069 503.555 770.723 505.847 772.585ZM488.143 775.268L479.832 768.515L484.818 762.38C486.677 760.093 490.053 759.749 492.343 761.61C494.634 763.472 494.987 766.847 493.128 769.134L488.143 775.268Z" fill="#F4F4F4"/>
<path d="M493.231 741.414C492.068 742.846 492.288 744.951 493.722 746.116L514.723 763.184C519.468 767.04 526.458 766.324 530.305 761.59C531.468 760.158 531.249 758.053 529.815 756.887C528.38 755.722 526.275 755.937 525.111 757.369C523.587 759.245 520.816 759.528 518.936 758.001L497.935 740.933C496.5 739.767 494.395 739.982 493.231 741.414V741.414Z" fill="#DA0000" fill-opacity="0.04"/>
<path d="M540.931 729.301C535.745 725.087 528.105 725.868 523.899 731.043C519.693 736.219 520.49 743.857 525.676 748.072C530.862 752.286 538.502 751.504 542.707 746.329C546.914 741.153 546.117 733.516 540.931 729.301ZM529.889 742.888C527.567 741.001 527.21 737.581 529.093 735.264C530.975 732.948 534.396 732.598 536.718 734.485C539.039 736.371 539.397 739.79 537.513 742.108C535.63 744.425 532.21 744.774 529.889 742.888Z" fill="#DA0000" fill-opacity="0.04"/>
<path d="M568.676 729.233C566.793 731.55 563.372 731.9 561.051 730.014C559.617 728.848 557.512 729.064 556.348 730.495C555.185 731.927 555.404 734.032 556.839 735.197C562.024 739.412 569.664 738.629 573.87 733.455C578.076 728.279 577.28 720.64 572.094 716.426L559.629 706.295C554.443 702.081 546.802 702.863 542.596 708.039C538.391 713.213 539.188 720.853 544.373 725.067C549.559 729.281 557.199 728.499 561.405 723.324C562.632 721.813 563.43 720.093 563.821 718.309L567.882 721.609C570.203 723.496 570.559 726.916 568.676 729.233V729.233ZM556.211 719.103C554.328 721.419 550.907 721.77 548.586 719.883C546.264 717.996 545.907 714.576 547.79 712.26C549.673 709.942 553.094 709.592 555.416 711.479C557.737 713.365 558.094 716.786 556.211 719.103V719.103Z" fill="#F4F4F4"/>
<path d="M530.183 813.739L592.376 737.212C593.539 735.781 593.32 733.676 591.885 732.51C590.451 731.344 588.345 731.56 587.182 732.991L524.989 809.518C523.827 810.948 524.045 813.054 525.48 814.22C526.914 815.386 529.02 815.169 530.183 813.739V813.739Z" fill="#F4F4F4"/>
</g>
<g clip-path="url(#clip2)">
<path d="M728.888 75.3638L728.872 75.3595C728.022 75.1286 727.144 75.6323 726.913 76.4847C726.682 77.3372 727.184 78.2152 728.034 78.4461L728.05 78.4504C728.901 78.6813 729.778 78.1776 730.009 77.3252C730.241 76.4727 729.739 75.5947 728.888 75.3638Z" fill="#F4F4F4"/>
<path d="M736.519 77.435L736.503 77.4308C735.652 77.1999 734.775 77.7036 734.544 78.556C734.313 79.4084 734.815 80.2865 735.665 80.5174L735.681 80.5217C736.532 80.7526 737.409 80.2489 737.64 79.3965C737.872 78.544 737.37 77.666 736.519 77.435Z" fill="#F4F4F4"/>
<path d="M744.148 79.5063L744.132 79.5021C743.281 79.2712 742.404 79.7749 742.173 80.6273C741.941 81.4797 742.443 82.3578 743.294 82.5887L743.31 82.593C744.161 82.8239 745.038 82.3202 745.269 81.4677C745.5 80.6153 744.999 79.7373 744.148 79.5063Z" fill="#F4F4F4"/>
<path d="M786.978 91.132L757.261 83.0656C756.41 82.8346 755.533 83.3383 755.302 84.1908C755.071 85.0426 755.572 85.9212 756.423 86.1522L786.14 94.2187C786.991 94.4496 787.868 93.9453 788.099 93.0935C788.331 92.241 787.829 91.363 786.978 91.132Z" fill="#F4F4F4"/>
<path d="M742.109 145.903C741.704 145.794 741.263 145.851 740.897 146.06C740.533 146.269 740.26 146.623 740.149 147.029C740.039 147.434 740.096 147.878 740.305 148.242C740.515 148.608 740.866 148.88 741.271 148.99C741.676 149.1 742.118 149.043 742.483 148.834C742.848 148.625 743.12 148.271 743.23 147.865C743.34 147.459 743.285 147.016 743.075 146.651C742.866 146.287 742.514 146.013 742.109 145.903Z" fill="#F4F4F4"/>
<path d="M794.516 85.2427L725.44 66.4924C722.742 65.76 719.95 67.3639 719.216 70.0671L702.107 133.095C701.373 135.799 702.972 138.594 705.67 139.327L734.817 147.239C735.668 147.47 736.545 146.966 736.776 146.113C737.007 145.261 736.505 144.383 735.655 144.152L706.508 136.24C705.508 135.969 704.916 134.934 705.188 133.932L718.777 83.8701L791.479 103.605L777.89 153.666C777.618 154.668 776.583 155.262 775.584 154.991L748.388 147.608C747.537 147.377 746.66 147.881 746.429 148.734C746.197 149.586 746.699 150.464 747.55 150.695L774.746 158.077C777.444 158.809 780.236 157.206 780.97 154.502L798.079 91.474C798.813 88.7708 797.214 85.975 794.516 85.2427V85.2427ZM719.615 80.7829L722.297 70.9033C722.568 69.9019 723.603 69.3077 724.602 69.579L793.679 88.3293C794.678 88.6006 795.27 89.6365 794.998 90.6378L792.316 100.518L719.615 80.7835L719.615 80.7829Z" fill="#F4F4F4"/>
<path d="M738.335 108.104C739.167 105.04 737.356 101.873 734.298 101.043L729.113 99.6349C728.262 99.404 727.385 99.9077 727.153 100.76L722.797 116.81C722.565 117.663 723.067 118.541 723.918 118.772L729.104 120.18C732.161 121.01 735.325 119.193 736.157 116.129C736.585 114.552 736.312 112.949 735.53 111.65C736.861 110.925 737.907 109.68 738.335 108.104ZM733.076 115.293C732.707 116.654 731.3 117.462 729.942 117.093L726.296 116.103L727.637 111.165L731.282 112.154C732.641 112.523 733.446 113.931 733.076 115.293ZM728.474 108.078L729.815 103.14L733.461 104.129C734.82 104.498 735.624 105.906 735.255 107.267C734.885 108.629 733.479 109.437 732.12 109.068L728.474 108.078Z" fill="#F4F4F4"/>
<path d="M744.249 103.744C743.399 103.513 742.521 104.017 742.29 104.869L738.902 117.35C738.137 120.17 739.804 123.085 742.617 123.848C743.468 124.079 744.345 123.576 744.576 122.723C744.808 121.871 744.306 120.993 743.455 120.762C742.34 120.459 741.68 119.304 741.983 118.187L745.371 105.706C745.602 104.853 745.1 103.975 744.249 103.744V103.744Z" fill="#DA0000" fill-opacity="0.04"/>
<path d="M758.783 122.235C759.619 119.153 757.798 115.967 754.722 115.132C751.646 114.297 748.464 116.125 747.627 119.207C746.791 122.289 748.613 125.475 751.688 126.31C754.764 127.145 757.946 125.317 758.783 122.235ZM750.708 120.043C751.083 118.663 752.508 117.845 753.884 118.219C755.261 118.592 756.076 120.019 755.702 121.399C755.328 122.778 753.903 123.597 752.526 123.223C751.149 122.849 750.334 121.423 750.708 120.043Z" fill="#DA0000" fill-opacity="0.04"/>
<path d="M764.185 134.342C762.808 133.968 761.993 132.542 762.367 131.162C762.598 130.31 762.096 129.432 761.246 129.201C760.395 128.97 759.518 129.474 759.287 130.326C758.45 133.408 760.272 136.594 763.347 137.428C766.423 138.263 769.606 136.436 770.442 133.354L772.453 125.946C773.29 122.865 771.468 119.678 768.392 118.843C765.317 118.008 762.134 119.836 761.297 122.918C760.461 126 762.283 129.186 765.358 130.021C766.256 130.264 767.162 130.28 768.017 130.105L767.362 132.518C766.987 133.897 765.562 134.716 764.185 134.342V134.342ZM766.196 126.934C764.819 126.56 764.004 125.134 764.378 123.754C764.752 122.374 766.178 121.556 767.554 121.93C768.931 122.304 769.747 123.73 769.372 125.11C768.998 126.489 767.573 127.308 766.196 126.934V126.934Z" fill="#F4F4F4"/>
<path d="M719.812 133.896L765.29 146.241C766.141 146.472 767.018 145.968 767.249 145.116C767.481 144.264 766.979 143.385 766.128 143.155L720.65 130.81C719.799 130.579 718.922 131.082 718.69 131.935C718.459 132.787 718.962 133.666 719.812 133.896V133.896Z" fill="#F4F4F4"/>
</g>
<g clip-path="url(#clip3)">
<path d="M63.1928 780.478L63.1796 780.488C62.4644 781.003 62.3033 782.002 62.8197 782.718C63.3361 783.435 64.3342 783.598 65.0494 783.083L65.0626 783.073C65.7778 782.558 65.9389 781.559 65.4226 780.843C64.9062 780.126 63.908 779.963 63.1928 780.478Z" fill="#F4F4F4"/>
<path d="M69.6068 775.856L69.5937 775.866C68.8785 776.381 68.7173 777.38 69.2337 778.096C69.7501 778.813 70.7483 778.976 71.4635 778.461L71.4767 778.451C72.1919 777.936 72.353 776.937 71.8366 776.221C71.3202 775.504 70.3221 775.341 69.6068 775.856Z" fill="#F4F4F4"/>
<path d="M76.019 771.235L76.0058 771.245C75.2906 771.76 75.1295 772.759 75.6458 773.475C76.1622 774.192 77.1604 774.355 77.8756 773.839L77.8888 773.83C78.604 773.315 78.7651 772.316 78.2487 771.6C77.7323 770.883 76.7342 770.72 76.019 771.235Z" fill="#F4F4F4"/>
<path d="M112.025 745.29L87.0429 763.292C86.3277 763.807 86.1666 764.805 86.6829 765.522C87.199 766.238 88.1975 766.402 88.9127 765.886L113.895 747.885C114.61 747.369 114.771 746.37 114.255 745.654C113.738 744.937 112.74 744.774 112.025 745.29Z" fill="#F4F4F4"/>
<path d="M126.309 814.637C125.968 814.883 125.735 815.261 125.667 815.677C125.6 816.092 125.703 816.527 125.949 816.868C126.194 817.209 126.574 817.444 126.989 817.512C127.405 817.578 127.838 817.477 128.178 817.232C128.519 816.987 128.753 816.607 128.82 816.192C128.888 815.777 128.784 815.343 128.538 815.002C128.293 814.66 127.914 814.425 127.498 814.358C127.083 814.29 126.649 814.392 126.309 814.637Z" fill="#F4F4F4"/>
<path d="M112.199 735.724L54.1294 777.569C51.8613 779.203 51.3482 782.383 52.9858 784.655L91.167 837.641C92.8049 839.914 95.9828 840.432 98.2509 838.798L122.754 821.141C123.469 820.626 123.63 819.628 123.114 818.911C122.597 818.194 121.599 818.031 120.884 818.547L96.3811 836.203C95.5409 836.809 94.3637 836.617 93.7568 835.775L63.4305 793.69L124.548 749.648L154.874 791.733C155.481 792.575 155.291 793.753 154.451 794.359L131.588 810.833C130.873 811.349 130.712 812.347 131.228 813.064C131.745 813.78 132.743 813.943 133.458 813.428L156.321 796.953C158.589 795.319 159.102 792.14 157.464 789.867L119.283 736.882C117.645 734.609 114.467 734.09 112.199 735.724V735.724ZM61.5603 791.094L55.5755 782.789C54.9689 781.947 55.159 780.769 55.9992 780.164L114.069 738.319C114.909 737.713 116.087 737.906 116.693 738.748L122.678 747.054L61.5607 791.095L61.5603 791.094Z" fill="#F4F4F4"/>
<path d="M94.5722 793.76C92.7163 791.185 89.1156 790.597 86.545 792.449L82.1855 795.59C81.4703 796.106 81.3091 797.104 81.8255 797.821L91.5485 811.314C92.0649 812.03 93.0631 812.194 93.7783 811.678L98.1378 808.537C100.708 806.684 101.29 803.082 99.4337 800.507C98.4787 799.182 97.0618 798.384 95.5604 798.173C95.8354 796.682 95.5272 795.086 94.5722 793.76ZM96.844 802.373C97.6686 803.517 97.4101 805.119 96.268 805.942L93.2033 808.15L90.2117 803.999L93.2763 801.79C94.4185 800.967 96.019 801.228 96.844 802.373ZM88.3418 801.404L85.3502 797.252L88.4149 795.044C89.5575 794.22 91.1579 794.482 91.9825 795.627C92.8071 796.771 92.5492 798.372 91.4065 799.195L88.3418 801.404Z" fill="#F4F4F4"/>
<path d="M94.9121 786.42C94.1968 786.936 94.0357 787.934 94.5521 788.651L102.113 799.143C103.821 801.513 107.135 802.054 109.5 800.35C110.215 799.835 110.376 798.836 109.86 798.12C109.343 797.403 108.345 797.24 107.63 797.755C106.693 798.431 105.379 798.216 104.702 797.277L97.1418 786.785C96.6254 786.068 95.6273 785.905 94.9121 786.42V786.42Z" fill="#DA0000" fill-opacity="0.04"/>
<path d="M118.427 786.78C116.561 784.189 112.939 783.597 110.353 785.46C107.767 787.323 107.183 790.947 109.05 793.537C110.917 796.128 114.539 796.72 117.124 794.857C119.71 792.993 120.294 789.371 118.427 786.78ZM111.64 791.671C110.804 790.511 111.065 788.889 112.223 788.055C113.38 787.221 115.002 787.486 115.838 788.646C116.673 789.806 116.412 791.428 115.254 792.262C114.096 793.096 112.475 792.831 111.64 791.671Z" fill="#DA0000" fill-opacity="0.04"/>
<path d="M131.234 790.207C130.077 791.041 128.455 790.776 127.619 789.617C127.103 788.9 126.105 788.737 125.389 789.252C124.674 789.768 124.513 790.766 125.03 791.483C126.896 794.073 130.519 794.665 133.104 792.802C135.689 790.939 136.275 787.316 134.408 784.725L129.92 778.497C128.053 775.907 124.431 775.315 121.845 777.178C119.26 779.041 118.675 782.664 120.542 785.255C122.409 787.846 126.031 788.437 128.616 786.574C129.371 786.031 129.954 785.337 130.356 784.562L131.818 786.591C132.654 787.751 132.392 789.373 131.234 790.207V790.207ZM126.746 783.98C125.589 784.814 123.967 784.549 123.132 783.389C122.296 782.229 122.558 780.607 123.715 779.773C124.873 778.938 126.494 779.203 127.33 780.363C128.166 781.523 127.904 783.145 126.746 783.98V783.98Z" fill="#F4F4F4"/>
<path d="M102.94 824.393L141.172 796.843C141.887 796.328 142.048 795.33 141.532 794.613C141.016 793.896 140.017 793.733 139.302 794.249L101.07 821.798C100.356 822.313 100.194 823.312 100.71 824.029C101.227 824.745 102.225 824.908 102.94 824.393V824.393Z" fill="#F4F4F4"/>
</g>
<g clip-path="url(#clip4)">
<path d="M385.899 379.114H385.883C385.002 379.114 384.287 379.83 384.287 380.713C384.287 381.597 385.002 382.313 385.883 382.313H385.899C386.781 382.313 387.495 381.597 387.495 380.713C387.495 379.83 386.781 379.114 385.899 379.114Z" fill="#F4F4F4"/>
<path d="M393.806 379.114H393.789C392.908 379.114 392.193 379.83 392.193 380.713C392.193 381.597 392.908 382.313 393.789 382.313H393.806C394.687 382.313 395.402 381.597 395.402 380.713C395.402 379.83 394.687 379.114 393.806 379.114Z" fill="#F4F4F4"/>
<path d="M401.71 379.114H401.694C400.812 379.114 400.098 379.83 400.098 380.713C400.098 381.597 400.812 382.313 401.694 382.313H401.71C402.591 382.313 403.306 381.597 403.306 380.713C403.306 379.83 402.591 379.114 401.71 379.114Z" fill="#F4F4F4"/>
<path d="M446.089 379.114H415.297C414.416 379.114 413.701 379.83 413.701 380.713C413.701 381.596 414.416 382.313 415.297 382.313H446.089C446.971 382.313 447.685 381.596 447.685 380.713C447.685 379.83 446.971 379.114 446.089 379.114Z" fill="#F4F4F4"/>
<path d="M417.137 443.727C416.717 443.727 416.307 443.898 416.009 444.195C415.712 444.492 415.541 444.905 415.541 445.326C415.541 445.746 415.712 446.159 416.009 446.456C416.307 446.754 416.717 446.925 417.137 446.925C417.557 446.925 417.969 446.754 418.265 446.456C418.563 446.159 418.733 445.746 418.733 445.326C418.733 444.905 418.563 444.492 418.265 444.195C417.969 443.898 417.557 443.727 417.137 443.727Z" fill="#F4F4F4"/>
<path d="M451.824 371.455H380.248C377.453 371.455 375.178 373.734 375.178 376.536V441.845C375.178 444.646 377.453 446.925 380.248 446.925H410.45C411.332 446.925 412.046 446.209 412.046 445.326C412.046 444.443 411.332 443.727 410.45 443.727H380.248C379.213 443.727 378.37 442.883 378.37 441.845V389.972H453.702V441.845C453.702 442.882 452.86 443.727 451.824 443.727H423.644C422.763 443.727 422.048 444.443 422.048 445.326C422.048 446.209 422.763 446.925 423.644 446.925H451.824C454.62 446.925 456.894 444.646 456.894 441.845V376.536C456.894 373.734 454.62 371.455 451.824 371.455V371.455ZM378.37 386.773V376.536C378.37 375.498 379.213 374.653 380.248 374.653H451.824C452.86 374.653 453.702 375.498 453.702 376.536V386.773H378.37V386.773Z" fill="#F4F4F4"/>
<path d="M403.594 408.235C403.594 405.061 401.017 402.479 397.848 402.479H392.475C391.593 402.479 390.879 403.194 390.879 404.078V420.709C390.879 421.592 391.593 422.308 392.475 422.308H397.848C401.017 422.308 403.594 419.726 403.594 416.551C403.594 414.918 402.911 413.442 401.816 412.393C402.911 411.344 403.594 409.869 403.594 408.235ZM400.402 416.551C400.402 417.962 399.256 419.11 397.848 419.11H394.071V413.992H397.848C399.256 413.992 400.402 415.14 400.402 416.551ZM394.071 410.794V405.677H397.848C399.257 405.677 400.402 406.825 400.402 408.235C400.402 409.646 399.257 410.794 397.848 410.794H394.071Z" fill="#F4F4F4"/>
<path d="M408.159 402.479C407.277 402.479 406.562 403.194 406.562 404.078V417.01C406.562 419.932 408.935 422.308 411.85 422.308C412.732 422.308 413.446 421.592 413.446 420.709C413.446 419.826 412.732 419.11 411.85 419.11C410.695 419.11 409.755 418.168 409.755 417.01V404.078C409.755 403.194 409.04 402.479 408.159 402.479V402.479Z" fill="#DA0000" fill-opacity="0.04"/>
<path d="M427.028 416.518C427.028 413.325 424.435 410.727 421.248 410.727C418.061 410.727 415.469 413.325 415.469 416.518C415.469 419.711 418.062 422.309 421.248 422.309C424.435 422.309 427.028 419.711 427.028 416.518ZM418.661 416.518C418.661 415.088 419.822 413.925 421.248 413.925C422.675 413.925 423.835 415.088 423.835 416.518C423.835 417.947 422.675 419.11 421.248 419.11C419.821 419.11 418.661 417.947 418.661 416.518Z" fill="#DA0000" fill-opacity="0.04"/>
<path d="M435.414 426.786C433.988 426.786 432.827 425.623 432.827 424.194C432.827 423.311 432.112 422.595 431.231 422.595C430.349 422.595 429.635 423.311 429.635 424.194C429.635 427.387 432.228 429.984 435.414 429.984C438.601 429.984 441.194 427.387 441.194 424.194V416.518C441.194 413.325 438.601 410.727 435.414 410.727C432.228 410.727 429.635 413.325 429.635 416.518C429.635 419.711 432.228 422.309 435.414 422.309C436.344 422.309 437.223 422.086 438.002 421.693V424.194C438.002 425.623 436.841 426.786 435.414 426.786V426.786ZM435.414 419.11C433.988 419.11 432.827 417.947 432.827 416.518C432.827 415.088 433.988 413.925 435.414 413.925C436.841 413.925 438.002 415.088 438.002 416.518C438.002 417.947 436.841 419.11 435.414 419.11V419.11Z" fill="#F4F4F4"/>
<path d="M392.475 437.98H439.599C440.481 437.98 441.195 437.264 441.195 436.38C441.195 435.497 440.481 434.781 439.599 434.781H392.475C391.594 434.781 390.879 435.497 390.879 436.38C390.879 437.264 391.594 437.98 392.475 437.98V437.98Z" fill="#F4F4F4"/>
</g>
<g clip-path="url(#clip5)">
<path d="M650.089 358.392H650.066C648.826 358.392 647.82 359.399 647.82 360.642C647.82 361.885 648.826 362.893 650.066 362.893H650.089C651.33 362.893 652.335 361.885 652.335 360.642C652.335 359.399 651.33 358.392 650.089 358.392Z" fill="#F4F4F4"/>
<path d="M661.214 358.392H661.191C659.951 358.392 658.945 359.399 658.945 360.642C658.945 361.885 659.951 362.893 661.191 362.893H661.214C662.455 362.893 663.46 361.885 663.46 360.642C663.46 359.399 662.455 358.392 661.214 358.392Z" fill="#F4F4F4"/>
<path d="M672.339 358.392H672.316C671.076 358.392 670.07 359.399 670.07 360.642C670.07 361.885 671.076 362.893 672.316 362.893H672.339C673.58 362.893 674.585 361.885 674.585 360.642C674.585 359.399 673.58 358.392 672.339 358.392Z" fill="#F4F4F4"/>
<path d="M734.797 358.392H691.463C690.222 358.392 689.217 359.399 689.217 360.642C689.217 361.884 690.222 362.893 691.463 362.893H734.797C736.037 362.893 737.043 361.884 737.043 360.642C737.043 359.399 736.037 358.392 734.797 358.392Z" fill="#F4F4F4"/>
<path d="M694.047 449.321C693.456 449.321 692.879 449.562 692.459 449.981C692.041 450.399 691.801 450.98 691.801 451.572C691.801 452.163 692.041 452.744 692.459 453.163C692.879 453.581 693.456 453.822 694.047 453.822C694.637 453.822 695.217 453.581 695.635 453.163C696.054 452.744 696.293 452.163 696.293 451.572C696.293 450.98 696.054 450.399 695.635 449.981C695.217 449.562 694.637 449.321 694.047 449.321Z" fill="#F4F4F4"/>
<path d="M742.864 347.613H642.136C638.202 347.613 635 350.821 635 354.763V446.673C635 450.615 638.202 453.822 642.136 453.822H684.639C685.879 453.822 686.885 452.815 686.885 451.572C686.885 450.329 685.879 449.321 684.639 449.321H642.136C640.678 449.321 639.492 448.134 639.492 446.673V373.671H745.508V446.673C745.508 448.133 744.322 449.321 742.864 449.321H703.207C701.966 449.321 700.961 450.329 700.961 451.572C700.961 452.815 701.966 453.822 703.207 453.822H742.864C746.798 453.822 750 450.615 750 446.673V354.763C750 350.821 746.798 347.613 742.864 347.613V347.613ZM639.492 369.17V354.763C639.492 353.303 640.678 352.114 642.136 352.114H742.864C744.322 352.114 745.508 353.303 745.508 354.763V369.171H639.492V369.17Z" fill="#F4F4F4"/>
<path d="M674.99 399.375C674.99 394.908 671.363 391.273 666.904 391.273H659.342C658.101 391.273 657.096 392.281 657.096 393.524V416.929C657.096 418.172 658.101 419.179 659.342 419.179H666.904C671.363 419.179 674.99 415.545 674.99 411.078C674.99 408.779 674.028 406.702 672.488 405.226C674.028 403.75 674.99 401.674 674.99 399.375ZM670.498 411.078C670.498 413.063 668.885 414.679 666.904 414.679H661.588V407.477H666.904C668.885 407.477 670.498 409.092 670.498 411.078ZM661.588 402.976V395.774H666.904C668.886 395.774 670.498 397.39 670.498 399.375C670.498 401.36 668.886 402.976 666.904 402.976H661.588Z" fill="#F4F4F4"/>
<path d="M681.414 391.273C680.173 391.273 679.168 392.281 679.168 393.524V411.724C679.168 415.835 682.506 419.179 686.609 419.179C687.85 419.179 688.855 418.172 688.855 416.929C688.855 415.686 687.85 414.679 686.609 414.679C684.983 414.679 683.66 413.353 683.66 411.724V393.524C683.66 392.281 682.655 391.273 681.414 391.273V391.273Z" fill="#DA0000" fill-opacity="0.04"/>
<path d="M707.968 411.03C707.968 406.536 704.32 402.88 699.834 402.88C695.349 402.88 691.701 406.536 691.701 411.03C691.701 415.524 695.35 419.179 699.834 419.179C704.32 419.179 707.968 415.524 707.968 411.03ZM696.193 411.03C696.193 409.018 697.827 407.381 699.834 407.381C701.842 407.381 703.476 409.018 703.476 411.03C703.476 413.041 701.843 414.678 699.834 414.678C697.826 414.678 696.193 413.041 696.193 411.03Z" fill="#DA0000" fill-opacity="0.04"/>
<path d="M719.77 425.481C717.763 425.481 716.129 423.844 716.129 421.832C716.129 420.589 715.123 419.582 713.883 419.582C712.642 419.582 711.637 420.589 711.637 421.832C711.637 426.326 715.286 429.982 719.77 429.982C724.255 429.982 727.904 426.326 727.904 421.832V411.03C727.904 406.536 724.255 402.88 719.77 402.88C715.286 402.88 711.637 406.536 711.637 411.03C711.637 415.524 715.286 419.179 719.77 419.179C721.079 419.179 722.315 418.866 723.412 418.313V421.832C723.412 423.844 721.778 425.481 719.77 425.481V425.481ZM719.77 414.678C717.763 414.678 716.129 413.041 716.129 411.03C716.129 409.018 717.763 407.381 719.77 407.381C721.778 407.381 723.412 409.018 723.412 411.03C723.412 413.041 721.778 414.678 719.77 414.678V414.678Z" fill="#F4F4F4"/>
<path d="M659.342 441.234H725.659C726.9 441.234 727.906 440.227 727.906 438.984C727.906 437.741 726.9 436.733 725.659 436.733H659.342C658.102 436.733 657.096 437.741 657.096 438.984C657.096 440.227 658.102 441.234 659.342 441.234V441.234Z" fill="#F4F4F4"/>
</g>
<g clip-path="url(#clip6)">
<path d="M125.082 459.363L125.062 459.35C123.95 458.645 122.477 458.977 121.771 460.091C121.065 461.205 121.394 462.679 122.506 463.383L122.526 463.396C123.638 464.101 125.111 463.769 125.817 462.655C126.523 461.541 126.194 460.067 125.082 459.363Z" fill="#F4F4F4"/>
<path d="M135.053 465.68L135.032 465.667C133.921 464.963 132.447 465.294 131.742 466.408C131.036 467.522 131.365 468.996 132.477 469.701L132.497 469.714C133.609 470.418 135.082 470.086 135.788 468.972C136.494 467.858 136.165 466.384 135.053 465.68Z" fill="#F4F4F4"/>
<path d="M145.024 471.997L145.003 471.984C143.891 471.28 142.418 471.612 141.712 472.726C141.006 473.84 141.335 475.314 142.447 476.018L142.468 476.031C143.58 476.736 145.053 476.404 145.759 475.29C146.464 474.176 146.135 472.702 145.024 471.997Z" fill="#F4F4F4"/>
<path d="M200.997 507.462L162.161 482.856C161.05 482.151 159.576 482.483 158.871 483.597C158.165 484.71 158.494 486.185 159.606 486.889L198.441 511.496C199.553 512.2 201.026 511.868 201.732 510.754C202.438 509.64 202.109 508.167 200.997 507.462Z" fill="#F4F4F4"/>
<path d="M112.845 565.814C112.316 565.479 111.662 565.367 111.047 565.504C110.435 565.641 109.89 566.026 109.554 566.556C109.218 567.086 109.104 567.743 109.24 568.356C109.379 568.969 109.76 569.513 110.289 569.848C110.818 570.184 111.475 570.297 112.087 570.159C112.7 570.022 113.244 569.637 113.58 569.107C113.916 568.577 114.032 567.92 113.894 567.307C113.757 566.695 113.374 566.15 112.845 565.814Z" fill="#F4F4F4"/>
<path d="M214.347 502.384L124.075 445.187C120.549 442.953 115.858 444.01 113.62 447.542L61.4298 529.911C59.191 533.444 60.2391 538.136 63.7649 540.37L101.856 564.505C102.967 565.21 104.441 564.878 105.146 563.764C105.852 562.65 105.523 561.176 104.411 560.471L66.3207 536.337C65.0147 535.509 64.626 533.771 65.4557 532.462L106.909 467.039L201.919 527.239L160.466 592.662C159.637 593.97 157.899 594.362 156.593 593.534L121.052 571.015C119.94 570.311 118.467 570.643 117.761 571.757C117.055 572.871 117.384 574.344 118.496 575.049L154.037 597.568C157.563 599.802 162.253 598.746 164.492 595.212L216.682 512.844C218.92 509.311 217.872 504.618 214.347 502.384V502.384ZM109.465 463.004L117.646 450.093C118.475 448.785 120.213 448.393 121.519 449.22L211.791 506.418C213.097 507.246 213.485 508.984 212.656 510.293L204.475 523.205L109.464 463.005L109.465 463.004Z" fill="#F4F4F4"/>
<path d="M124.127 510.23C126.664 506.227 125.477 500.91 121.481 498.378L114.704 494.084C113.593 493.38 112.119 493.711 111.413 494.825L98.1231 515.801C97.4173 516.915 97.7463 518.389 98.8581 519.093L105.635 523.387C109.631 525.919 114.945 524.722 117.482 520.718C118.788 518.658 119.105 516.251 118.562 514.053C120.781 513.605 122.822 512.291 124.127 510.23ZM113.456 518.167C112.329 519.946 109.967 520.478 108.191 519.354L103.427 516.335L107.516 509.881L112.28 512.9C114.056 514.025 114.584 516.387 113.456 518.167ZM110.072 505.847L114.161 499.393L118.926 502.412C120.702 503.537 121.229 505.901 120.102 507.68C118.974 509.458 116.613 509.991 114.836 508.866L110.072 505.847Z" fill="#F4F4F4"/>
<path d="M134.486 506.618C133.374 505.914 131.901 506.246 131.195 507.36L120.86 523.67C118.525 527.355 119.618 532.248 123.295 534.577C124.407 535.282 125.88 534.95 126.586 533.836C127.292 532.722 126.963 531.248 125.851 530.544C124.394 529.62 123.961 527.681 124.886 526.221L135.221 509.91C135.926 508.796 135.597 507.323 134.486 506.618V506.618Z" fill="#DA0000" fill-opacity="0.04"/>
<path d="M147.065 539.402C149.617 535.375 148.424 530.027 144.404 527.48C140.385 524.933 135.039 526.138 132.487 530.165C129.935 534.193 131.13 539.541 135.149 542.087C139.168 544.634 144.513 543.43 147.065 539.402ZM136.513 532.716C137.656 530.913 140.049 530.374 141.848 531.513C143.647 532.653 144.182 535.048 143.039 536.851C141.897 538.654 139.504 539.194 137.705 538.053C135.905 536.913 135.371 534.519 136.513 532.716Z" fill="#DA0000" fill-opacity="0.04"/>
<path d="M149.436 559.055C147.637 557.915 147.102 555.52 148.244 553.718C148.95 552.603 148.621 551.13 147.509 550.425C146.398 549.721 144.924 550.053 144.218 551.167C141.667 555.194 142.861 560.542 146.88 563.088C150.9 565.635 156.245 564.431 158.797 560.404L164.931 550.723C167.483 546.696 166.289 541.347 162.269 538.8C158.251 536.254 152.904 537.458 150.353 541.486C147.801 545.513 148.995 550.861 153.014 553.407C154.187 554.151 155.473 554.572 156.77 554.699L154.771 557.853C153.629 559.656 151.236 560.195 149.436 559.055V559.055ZM155.57 549.374C153.771 548.234 153.236 545.839 154.378 544.037C155.521 542.233 157.915 541.694 159.714 542.834C161.513 543.974 162.048 546.369 160.905 548.172C159.763 549.975 157.37 550.514 155.57 549.374V549.374Z" fill="#F4F4F4"/>
<path d="M86.334 538.858L145.767 576.516C146.879 577.22 148.352 576.888 149.058 575.774C149.764 574.66 149.435 573.187 148.323 572.482L88.8899 534.824C87.7788 534.12 86.3049 534.452 85.599 535.566C84.8932 536.68 85.223 538.154 86.334 538.858V538.858Z" fill="#F4F4F4"/>
</g>
<defs>
<clipPath id="clip0">
<rect width="171" height="171" fill="white" transform="translate(245 83)"/>
</clipPath>
<clipPath id="clip1">
<rect width="171" height="171" fill="white" transform="translate(394 749.703) rotate(-50.8993)"/>
</clipPath>
<clipPath id="clip2">
<rect width="81.7167" height="81.7167" fill="white" transform="translate(721.406 62) rotate(15.1867)"/>
</clipPath>
<clipPath id="clip3">
<rect width="81.7167" height="81.7167" fill="white" transform="translate(48.0996 777.873) rotate(-35.7764)"/>
</clipPath>
<clipPath id="clip4">
<rect width="81.7167" height="81.7167" fill="white" transform="translate(375.178 368.177)"/>
</clipPath>
<clipPath id="clip5">
<rect width="115" height="115" fill="white" transform="translate(635 343)"/>
</clipPath>
<clipPath id="clip6">
<rect width="122.008" height="122.008" fill="white" transform="translate(120.301 437) rotate(32.359)"/>
</clipPath>
</defs>
</svg>
