<svg width="966" height="390" viewBox="0 0 966 390" fill="none" xmlns="http://www.w3.org/2000/svg">
<path d="M130.5 95H844.5L930.217 247.607C930.707 248.478 930.73 249.535 930.281 250.427L901.5 307.5H66.5L45.4775 250.685C45.1744 249.866 45.2434 248.955 45.6667 248.191L130.5 95Z" fill="#FF0000"/>
<rect x="97" y="323" width="783" height="14" fill="black"/>
<path d="M133.604 87.4098L126.5 101H847.5L840.413 87.4426C837.636 82.1294 832.514 78.4388 826.595 77.486L733.5 62.5V79H238.5V62.5L147.364 77.4626C141.469 78.4305 136.372 82.1151 133.604 87.4098Z" fill="#C4C4C4"/>
<path d="M89.5001 361.736H65.5001L70 336.871H61.5V322L53.5 304H912L901 322V332L893 338.557V363H873.5L864 335.607H857L854.5 338.557H839.5L837 335.607H829.5L827.5 338.557L826.5 344.457H815.203L801 328.443H742.5L720.702 344.457H582.987L570.5 328.443H553.07V344.457H503.682L489 328.443H382L365.018 344.457H267.668V328.443H252.5L243.924 344.457H123.305L123.5 336.871L120.5 334.764H113.5L110.483 336.871L89.5001 361.736Z" fill="#CB0000"/>
<path d="M61.5 322L53.5 304H912L901 322H881H75.5H61.5Z" fill="#FF0000"/>
<rect x="66" y="309" width="20" height="9" fill="black"/>
<rect x="295" y="309" width="34" height="9" fill="black"/>
<rect x="262" y="86" width="34" height="9" fill="black"/>
<rect x="338" y="86" width="85" height="9" fill="black"/>
<rect x="548" y="86" width="85" height="9" fill="black"/>
<rect x="690" y="86" width="36" height="9" fill="black"/>
<rect x="846" y="310" width="34" height="9" fill="black"/>
<path d="M740 289.5V101.5H847.5L930.151 247.124C930.992 248.605 931.021 250.411 930.229 251.918L911 288.5L740 289.5Z" fill="#F30000"/>
<path d="M257 288V103.968V101H127L46.0987 247.51C45.4006 248.775 45.2832 250.279 45.7767 251.636L59 288H257Z" fill="#F30000"/>
<path d="M171 179.5L149.5 124.5L155 125L175.5 179.5H171Z" stroke="black"/>
<path d="M115.823 172.503L142.057 127.003C142.95 125.454 144.601 124.5 146.389 124.5H211.5C214.261 124.5 216.5 126.739 216.5 129.5V175C216.5 177.761 214.261 180 211.5 180H120.154C116.307 180 113.901 175.836 115.823 172.503Z" fill="#737373" stroke="black"/>
<path d="M120.5 153.5H126.5L124 191.222H120.5L118.44 183.518C117.863 181.356 116.13 179.696 113.945 179.21L113 179L120.5 153.5Z" fill="black"/>
<path d="M201 179.5L180 125H188L209 179.5H201Z" fill="#8B8B8B"/>
<path d="M214.5 178C214 177.5 194 125 194 125H198L216 174C216.39 175.944 215 178.5 214.5 178Z" fill="#8B8B8B"/>
<path d="M157 179.5L139.5 132.5C143.5 126 143 125.5 146.5 125L168 179.5H157Z" fill="#C4C4C4" fill-opacity="0.29"/>
<path d="M178.5 179.5H172.5L160.5 150.5L149.5 125H157L178.5 179.5Z" fill="#8B8B8B"/>
<path d="M178 124H180V180H178V124Z" fill="black"/>
<path d="M812.5 180.5L834 125.5L828.5 126L808 180.5H812.5Z" stroke="black"/>
<path d="M867.677 173.503L841.443 128.003C840.55 126.454 838.899 125.5 837.111 125.5H772C769.239 125.5 767 127.739 767 130.5V176C767 178.761 769.239 181 772 181H863.346C867.193 181 869.599 176.836 867.677 173.503Z" fill="#737373" stroke="black"/>
<path d="M863 154.5H857L859.5 192.222H863L865.06 184.518C865.637 182.356 867.37 180.696 869.555 180.21L870.5 180L863 154.5Z" fill="black"/>
<path d="M782.5 180.5L803.5 126H795.5L774.5 180.5H782.5Z" fill="#8B8B8B"/>
<path d="M769 179C769.5 178.5 789.5 126 789.5 126H785.5L767.5 175C767.11 176.944 768.5 179.5 769 179Z" fill="#8B8B8B"/>
<path d="M826.5 180.5L844 133.5C840 127 840.5 126.5 837 126L815.5 180.5H826.5Z" fill="#C4C4C4" fill-opacity="0.29"/>
<path d="M805 180.5H811L823 151.5L834 126H826.5L805 180.5Z" fill="#8B8B8B"/>
<path d="M805.5 125H803.5V181H805.5V125Z" fill="black"/>
<path d="M52.7793 299.5L53.4993 304H911.999L911.559 300H905.499L911.096 288.5H58.4993L62.2793 299L52.7793 299.5Z" fill="#FFE600"/>
<path d="M930.213 252H45.9033L54.2873 275H918.127L930.213 252Z" fill="#FFE600"/>
<rect x="290" y="154" width="44" height="138" rx="8" fill="#CB0000"/>
<rect x="279" y="196" width="5" height="117" rx="2.5" fill="#990404"/>
<rect x="340" y="196" width="5" height="117" rx="2.5" fill="#990404"/>
<rect x="295" y="159" width="34" height="42" rx="4" fill="#737373"/>
<rect x="325" y="209" width="5" height="14" rx="2.5" fill="#990404"/>
<path d="M329 192.5L305.5 159H310.5L329 185V192.5Z" fill="#8B8B8B"/>
<path d="M312.5 201L295 167.5C295 165.134 295 164 295 162.5C295.421 160.387 296.5 159.5 297.5 159.5L321 201H312.5Z" fill="#8B8B8B"/>
<path d="M269 52H424V53H269V52Z" fill="#898989"/>
<path d="M510 52H665V53H510V52Z" fill="#898989"/>
<path d="M269 64H424V65H269V64Z" fill="#898989"/>
<path d="M510 64H665V65H510V64Z" fill="#898989"/>
<rect x="401.5" y="127.5" width="54" height="73" fill="#DA0000" stroke="#CB0000" stroke-width="7"/>
<path d="M405 134.5L452 134.5" stroke="black"/>
<path d="M405 152.5L452 152.5" stroke="black"/>
<path d="M405 170.5L452 170.5" stroke="black"/>
<path d="M405 188.5L452 188.5" stroke="black"/>
<path d="M405 136.5L452 136.5" stroke="black"/>
<path d="M405 154.5L452 154.5" stroke="black"/>
<path d="M405 172.5L452 172.5" stroke="black"/>
<path d="M405 190.5L452 190.5" stroke="black"/>
<path d="M405 138.5L452 138.5" stroke="black"/>
<path d="M405 156.5L452 156.5" stroke="black"/>
<path d="M405 174.5L452 174.5" stroke="black"/>
<path d="M405 192.5L452 192.5" stroke="black"/>
<path d="M405 140.5L452 140.5" stroke="black"/>
<path d="M405 158.5L452 158.5" stroke="black"/>
<path d="M405 176.5L452 176.5" stroke="black"/>
<path d="M405 194.5L452 194.5" stroke="black"/>
<path d="M405 142.5L452 142.5" stroke="black"/>
<path d="M405 160.5L452 160.5" stroke="black"/>
<path d="M405 178.5L452 178.5" stroke="black"/>
<path d="M405 144.5L452 144.5" stroke="black"/>
<path d="M405 162.5L452 162.5" stroke="black"/>
<path d="M405 180.5L452 180.5" stroke="black"/>
<path d="M405 146.5L452 146.5" stroke="black"/>
<path d="M405 164.5L452 164.5" stroke="black"/>
<path d="M405 182.5L452 182.5" stroke="black"/>
<path d="M405 148.5L452 148.5" stroke="black"/>
<path d="M405 166.5L452 166.5" stroke="black"/>
<path d="M405 184.5L452 184.5" stroke="black"/>
<path d="M405 150.5L452 150.5" stroke="black"/>
<path d="M405 168.5L452 168.5" stroke="black"/>
<path d="M405 186.5L452 186.5" stroke="black"/>
<rect x="509.5" y="127.5" width="54" height="73" fill="#DA0000" stroke="#CB0000" stroke-width="7"/>
<path d="M513 134.5L560 134.5" stroke="black"/>
<path d="M513 152.5L560 152.5" stroke="black"/>
<path d="M513 170.5L560 170.5" stroke="black"/>
<path d="M513 188.5L560 188.5" stroke="black"/>
<path d="M513 136.5L560 136.5" stroke="black"/>
<path d="M513 154.5L560 154.5" stroke="black"/>
<path d="M513 172.5L560 172.5" stroke="black"/>
<path d="M513 190.5L560 190.5" stroke="black"/>
<path d="M513 138.5L560 138.5" stroke="black"/>
<path d="M513 156.5L560 156.5" stroke="black"/>
<path d="M513 174.5L560 174.5" stroke="black"/>
<path d="M513 192.5L560 192.5" stroke="black"/>
<path d="M513 140.5L560 140.5" stroke="black"/>
<path d="M513 158.5L560 158.5" stroke="black"/>
<path d="M513 176.5L560 176.5" stroke="black"/>
<path d="M513 194.5L560 194.5" stroke="black"/>
<path d="M513 142.5L560 142.5" stroke="black"/>
<path d="M513 160.5L560 160.5" stroke="black"/>
<path d="M513 178.5L560 178.5" stroke="black"/>
<path d="M513 144.5L560 144.5" stroke="black"/>
<path d="M513 162.5L560 162.5" stroke="black"/>
<path d="M513 180.5L560 180.5" stroke="black"/>
<path d="M513 146.5L560 146.5" stroke="black"/>
<path d="M513 164.5L560 164.5" stroke="black"/>
<path d="M513 182.5L560 182.5" stroke="black"/>
<path d="M513 148.5L560 148.5" stroke="black"/>
<path d="M513 166.5L560 166.5" stroke="black"/>
<path d="M513 184.5L560 184.5" stroke="black"/>
<path d="M513 150.5L560 150.5" stroke="black"/>
<path d="M513 168.5L560 168.5" stroke="black"/>
<path d="M513 186.5L560 186.5" stroke="black"/>
<rect x="617.5" y="126.5" width="54" height="73" fill="#DA0000" stroke="#CB0000" stroke-width="7"/>
<path d="M621 133.5L668 133.5" stroke="black"/>
<path d="M621 151.5L668 151.5" stroke="black"/>
<path d="M621 169.5L668 169.5" stroke="black"/>
<path d="M621 187.5L668 187.5" stroke="black"/>
<path d="M621 135.5L668 135.5" stroke="black"/>
<path d="M621 153.5L668 153.5" stroke="black"/>
<path d="M621 171.5L668 171.5" stroke="black"/>
<path d="M621 189.5L668 189.5" stroke="black"/>
<path d="M621 137.5L668 137.5" stroke="black"/>
<path d="M621 155.5L668 155.5" stroke="black"/>
<path d="M621 173.5L668 173.5" stroke="black"/>
<path d="M621 191.5L668 191.5" stroke="black"/>
<path d="M621 139.5L668 139.5" stroke="black"/>
<path d="M621 157.5L668 157.5" stroke="black"/>
<path d="M621 175.5L668 175.5" stroke="black"/>
<path d="M621 193.5L668 193.5" stroke="black"/>
<path d="M621 141.5L668 141.5" stroke="black"/>
<path d="M621 159.5L668 159.5" stroke="black"/>
<path d="M621 177.5L668 177.5" stroke="black"/>
<path d="M621 143.5L668 143.5" stroke="black"/>
<path d="M621 161.5L668 161.5" stroke="black"/>
<path d="M621 179.5L668 179.5" stroke="black"/>
<path d="M621 145.5L668 145.5" stroke="black"/>
<path d="M621 163.5L668 163.5" stroke="black"/>
<path d="M621 181.5L668 181.5" stroke="black"/>
<path d="M621 147.5L668 147.5" stroke="black"/>
<path d="M621 165.5L668 165.5" stroke="black"/>
<path d="M621 183.5L668 183.5" stroke="black"/>
<path d="M621 149.5L668 149.5" stroke="black"/>
<path d="M621 167.5L668 167.5" stroke="black"/>
<path d="M621 185.5L668 185.5" stroke="black"/>
<path d="M261 24L270.109 17.0526L366.891 2L376 10.1053" stroke="#747474" stroke-width="3"/>
<path d="M335 22.5L342.848 27L365.273 24.75L372 18" stroke="#747474" stroke-width="3"/>
<path d="M238.5 76H735V79H238.5V76Z" fill="#838383"/>
<path d="M287.949 20.3554L402.723 7L405 15.6016L299.879 25.9307L287.949 20.3554Z" fill="black"/>
<path d="M287.949 20.3554L402.723 7L405 15.6016L299.879 25.9307M287.949 20.3554L247 25.9307L317.321 50.7561V53M287.949 20.3554L299.879 25.9307M299.879 25.9307L268.358 29.439L342.372 48.5122V51.878" stroke="black" stroke-width="3"/>
<path d="M421 3C421 3 376.592 3 389.28 5.16711C401.968 7.33422 402.86 9.50132 402.86 9.50132C402.86 9.50132 405.14 14.3773 401.968 22.504C398.796 30.6306 421 3 421 3Z" fill="#747474"/>
<path d="M297.5 74.5V52.5H351.5V74.5H297.5Z" fill="#747474" stroke="#AFAFAF" stroke-width="3"/>
<path d="M538.5 74.5V52.5H592.5V74.5H538.5Z" fill="#747474" stroke="#AFAFAF" stroke-width="3"/>
<rect x="388" y="54" width="10" height="9" fill="#989898"/>
<path d="M388 47C388 44.2386 390.239 42 393 42V42C395.761 42 398 44.2386 398 47V51H388V47Z" fill="#989898"/>
<rect x="388" y="66" width="10" height="9" fill="#989898"/>
<rect x="387" y="50" width="12" height="1" fill="#989898"/>
<rect x="387" y="62" width="12" height="1" fill="#989898"/>
<rect x="387" y="75" width="12" height="1" fill="#989898"/>
<rect x="629" y="54" width="10" height="9" fill="#989898"/>
<path d="M629 47C629 44.2386 631.239 42 634 42V42C636.761 42 639 44.2386 639 47V51H629V47Z" fill="#989898"/>
<rect x="629" y="66" width="10" height="9" fill="#989898"/>
<rect x="628" y="50" width="12" height="1" fill="#989898"/>
<rect x="628" y="62" width="12" height="1" fill="#989898"/>
<rect x="628" y="75" width="12" height="1" fill="#989898"/>
<rect x="413" y="54" width="10" height="9" fill="#989898"/>
<path d="M413 47C413 44.2386 415.239 42 418 42V42C420.761 42 423 44.2386 423 47V51H413V47Z" fill="#989898"/>
<rect x="413" y="66" width="10" height="9" fill="#989898"/>
<rect x="412" y="50" width="12" height="1" fill="#989898"/>
<rect x="412" y="62" width="12" height="1" fill="#989898"/>
<rect x="412" y="75" width="12" height="1" fill="#989898"/>
<rect x="654" y="54" width="10" height="9" fill="#989898"/>
<path d="M654 47C654 44.2386 656.239 42 659 42V42C661.761 42 664 44.2386 664 47V51H654V47Z" fill="#989898"/>
<rect x="654" y="66" width="10" height="9" fill="#989898"/>
<rect x="653" y="50" width="12" height="1" fill="#989898"/>
<rect x="653" y="62" width="12" height="1" fill="#989898"/>
<rect x="653" y="75" width="12" height="1" fill="#989898"/>
<rect x="270" y="54" width="10" height="9" fill="#989898"/>
<path d="M270 47C270 44.2386 272.239 42 275 42V42C277.761 42 280 44.2386 280 47V51H270V47Z" fill="#989898"/>
<rect x="270" y="66" width="10" height="9" fill="#989898"/>
<rect x="269" y="50" width="12" height="1" fill="#989898"/>
<rect x="269" y="62" width="12" height="1" fill="#989898"/>
<rect x="269" y="75" width="12" height="1" fill="#989898"/>
<rect x="511" y="54" width="10" height="9" fill="#989898"/>
<path d="M511 47C511 44.2386 513.239 42 516 42V42C518.761 42 521 44.2386 521 47V51H511V47Z" fill="#989898"/>
<rect x="511" y="66" width="10" height="9" fill="#989898"/>
<rect x="510" y="50" width="12" height="1" fill="#989898"/>
<rect x="510" y="62" width="12" height="1" fill="#989898"/>
<rect x="510" y="75" width="12" height="1" fill="#989898"/>
<rect x="363" y="54" width="10" height="9" fill="#989898"/>
<path d="M363 47C363 44.2386 365.239 42 368 42V42C370.761 42 373 44.2386 373 47V51H363V47Z" fill="#989898"/>
<rect x="363" y="66" width="10" height="9" fill="#989898"/>
<rect x="362" y="50" width="12" height="1" fill="#989898"/>
<rect x="362" y="62" width="12" height="1" fill="#989898"/>
<rect x="362" y="75" width="12" height="1" fill="#989898"/>
<rect x="604" y="54" width="10" height="9" fill="#989898"/>
<path d="M604 47C604 44.2386 606.239 42 609 42V42C611.761 42 614 44.2386 614 47V51H604V47Z" fill="#989898"/>
<rect x="604" y="66" width="10" height="9" fill="#989898"/>
<rect x="603" y="50" width="12" height="1" fill="#989898"/>
<rect x="603" y="62" width="12" height="1" fill="#989898"/>
<rect x="603" y="75" width="12" height="1" fill="#989898"/>
<rect x="292.5" y="323.5" width="39" height="65" stroke="#A5A5A5" stroke-width="3"/>
<path d="M292.26 339H331.32" stroke="#A5A5A5" stroke-width="3"/>
<path d="M291.84 372H330.9" stroke="#A5A5A5" stroke-width="3"/>
<path d="M17.6882 342.305L1 355.896V306.662L17.567 325.602L17.8659 325.944H18.3197H71.8614L68.8693 348.925H56.8751V343.081V342.081H55.8751H18.3197H17.964L17.6882 342.305Z" fill="#494949" stroke="#BEBEBE" stroke-width="2"/>
<path d="M948.137 353.302L965 366.908V317.644L948.259 336.606L947.979 336.923L947.556 336.943L894 339.454V359.054L908.603 359.868V354.081V353.081H909.603H947.509H947.862L948.137 353.302Z" fill="#494949" stroke="#BEBEBE" stroke-width="2"/>
</svg>
