<svg width="60" height="59" viewBox="0 0 60 59" fill="none" xmlns="http://www.w3.org/2000/svg">
<path d="M29.7557 19.6621C24.3389 19.6621 19.9184 24.0826 19.9184 29.4995C19.9184 34.9163 24.3389 39.3368 29.7557 39.3368C35.1726 39.3368 39.5931 34.9163 39.5931 29.4995C39.5931 24.0826 35.1726 19.6621 29.7557 19.6621ZM59.2604 29.4995C59.2604 25.4258 59.2973 21.389 59.0685 17.3227C58.8397 12.5996 57.7623 8.40784 54.3085 4.95407C50.8474 1.49292 46.663 0.422846 41.9399 0.194071C37.8662 -0.0347043 33.8294 0.00219509 29.7631 0.00219509C25.6894 0.00219509 21.6527 -0.0347043 17.5864 0.194071C12.8633 0.422846 8.67151 1.5003 5.21775 4.95407C1.7566 8.41522 0.686518 12.5996 0.457743 17.3227C0.228968 21.3964 0.265867 25.4332 0.265867 29.4995C0.265867 33.5658 0.228968 37.6099 0.457743 41.6762C0.686518 46.3993 1.76398 50.5911 5.21775 54.0448C8.67889 57.506 12.8633 58.5761 17.5864 58.8048C21.66 59.0336 25.6968 58.9967 29.7631 58.9967C33.8368 58.9967 37.8736 59.0336 41.9399 58.8048C46.663 58.5761 50.8547 57.4986 54.3085 54.0448C57.7696 50.5837 58.8397 46.3993 59.0685 41.6762C59.3047 37.6099 59.2604 33.5731 59.2604 29.4995ZM29.7557 44.6355C21.3796 44.6355 14.6197 37.8756 14.6197 29.4995C14.6197 21.1233 21.3796 14.3634 29.7557 14.3634C38.1319 14.3634 44.8918 21.1233 44.8918 29.4995C44.8918 37.8756 38.1319 44.6355 29.7557 44.6355ZM45.5117 17.2784C43.5561 17.2784 41.9768 15.6991 41.9768 13.7435C41.9768 11.7878 43.5561 10.2085 45.5117 10.2085C47.4674 10.2085 49.0467 11.7878 49.0467 13.7435C49.0473 14.2079 48.9562 14.6678 48.7788 15.0969C48.6013 15.5261 48.341 15.916 48.0126 16.2444C47.6842 16.5727 47.2943 16.8331 46.8652 17.0105C46.436 17.188 45.9761 17.279 45.5117 17.2784Z" fill="#FF4500"/>
</svg>
