<svg width="161" height="453" viewBox="0 0 161 453" fill="none" xmlns="http://www.w3.org/2000/svg">
<path d="M92.4093 439.328C94.3577 430.073 102.523 423.448 111.98 423.448H137.78C147.003 423.448 155.031 429.756 157.212 438.718L160.689 453H89.531L92.4093 439.328Z" fill="#B7B7B7"/>
<rect x="107.418" y="283.465" width="34.9957" height="139.983" fill="#8E8C8C"/>
<rect x="115.195" y="125.984" width="19.8309" height="160.98" fill="#B7B7B7"/>
<rect x="101.585" y="117.041" width="45.8833" height="8.94335" rx="4.47167" fill="#BAB7B7"/>
<path d="M64.4509 41.6063L70.8668 28.5801C127.357 29.9561 134.958 58.4652 135.026 117.041H115.195C118.885 58.8991 110.81 47.2217 64.4509 41.6063Z" fill="#8E8C8C"/>
<path d="M3.64704 26.2554C7.1248 11.7549 21.699 2.81929 36.1995 6.29706L62.0449 12.4958C76.5454 15.9735 85.4811 30.5478 82.0033 45.0483L80.891 49.6858L2.53477 30.893L3.64704 26.2554Z" fill="#B7B7B7"/>
<path d="M3.01172 29L81.368 47.7928V47.7928C79.7047 54.7279 72.7343 59.0016 65.7992 57.3383L12.5572 44.5688C5.62206 42.9055 1.34841 35.9351 3.01172 29V29Z" fill="#FFE174"/>
</svg>
