<svg width="1035" height="341" viewBox="0 0 1035 341" fill="none" xmlns="http://www.w3.org/2000/svg">
<path d="M1007.09 309.242L1034 324.055V271.215L1007.22 291.91L1006.96 292.108L1006.64 292.118L923.91 294.765V315.356L947.403 316.249V310.118V309.118H948.403H1006.61H1006.86L1007.09 309.242Z" fill="#494949" stroke="#BEBEBE" stroke-width="2"/>
<path d="M27.9102 310.289L1 325.103V272.262L27.781 292.957L28.0511 293.166H28.3925H111.927L107.271 317.336H87.597V311.165V310.165H86.597H28.3925H28.1354L27.9102 310.289Z" fill="#494949" stroke="#BEBEBE" stroke-width="2"/>
<rect x="0.5" y="-0.5" width="220.99" height="43.9504" transform="matrix(-1 0 0 1 627.447 264.988)" fill="#5F5F5F" stroke="black"/>
<rect width="4.54182" height="4.54182" transform="matrix(-1 0 0 1 967.428 207.653)" fill="black"/>
<path d="M621.686 293.447H794.339V105.961H198.09V191.756V192.256H197.59H99.5344C98.1537 192.256 97.0344 193.375 97.0344 194.756V291.947C97.0344 292.775 97.7059 293.447 98.5344 293.447H424.181V290.831C424.181 277.853 434.702 267.331 447.681 267.331H571.154H597.083C610.166 267.331 620.94 277.61 621.556 290.678L621.686 293.447Z" fill="#AF0020" stroke="black"/>
<path d="M933.803 105.961H790.797V275.05C790.797 276.431 791.916 277.55 793.297 277.55H933.803C944.572 277.55 953.303 268.82 953.303 258.05V125.461C953.303 114.692 944.572 105.961 933.803 105.961Z" fill="#4D4D4D" stroke="black"/>
<path d="M928.823 95.8781H929.279L929.321 96.3328L930.456 108.823L930.519 109.511L929.846 109.355L915.085 105.949L914.697 105.859V105.462V96.3781V95.8781H915.197H928.823Z" fill="#5F5F5F" stroke="black"/>
<path d="M92.7336 249.774H82.6628C81.8344 249.774 81.1628 250.446 81.1628 251.274V274.511C81.1628 275.34 81.8344 276.011 82.6628 276.011H92.7336V249.774Z" fill="#5F5F5F" stroke="black"/>
<rect x="0.5" y="-0.5" width="4.14271" height="18.8087" transform="matrix(-1 0 0 1 97.3763 253.465)" fill="#AF0020" stroke="black"/>
<path d="M883.217 94.6069H801.839C798.249 94.6069 795.339 97.5171 795.339 101.107V107.232H889.717V101.107C889.717 97.5171 886.807 94.6069 883.217 94.6069Z" fill="#9F1414" stroke="black"/>
<rect x="0.5" y="-0.5" width="7.81273" height="21.4382" rx="3.90636" transform="matrix(-1 0 0 1 814.006 89.5658)" fill="#9F1414" stroke="black"/>
<path d="M867.508 10.0834L887.897 97.669C888.023 98.2092 888.564 98.5439 889.104 98.4149L907.368 94.048L919.739 10.0834H867.508Z" fill="#5F5F5F" stroke="black"/>
<path d="M879.998 96.457V105.462H910.961C913.892 105.462 916.629 103.999 918.258 101.563L918.363 101.406C919.26 100.064 919.739 98.4868 919.739 96.8731V95.7822C919.739 94.1606 919.049 92.6154 917.843 91.5323C916.468 90.2985 914.581 89.8059 912.778 90.2104L893.851 94.457H881.998C880.893 94.457 879.998 95.3524 879.998 96.457Z" fill="#5F5F5F" stroke="black"/>
<path d="M865.237 0.5H919.739C922.524 0.5 924.781 2.7573 924.781 5.54182C924.781 8.32634 922.524 10.5836 919.739 10.5836H865.237C862.453 10.5836 860.196 8.32634 860.196 5.54182C860.196 2.7573 862.453 0.5 865.237 0.5Z" fill="#5F5F5F" stroke="black"/>
<path d="M935.135 165.005H922.468C919.983 165.005 917.968 167.02 917.968 169.505V275.139L928.717 272.452C932.489 271.509 935.135 268.12 935.135 264.232V165.005Z" fill="#393939" stroke="black"/>
<path d="M973.741 58.2727H924.01C923.182 58.2727 922.51 58.9443 922.51 59.7727V87.5654C922.51 88.3939 923.182 89.0654 924.01 89.0654H973.741V58.2727Z" fill="#949494" stroke="black"/>
<path d="M961.157 140.026H954.532C953.151 140.026 952.032 141.145 952.032 142.526V175.86C952.032 179.347 954.858 182.173 958.345 182.173C961.831 182.173 964.657 179.347 964.657 175.86V143.526C964.657 141.593 963.09 140.026 961.157 140.026Z" fill="#5F5F5F" stroke="black"/>
<path d="M964.657 155.922H908.385C904.898 155.922 902.072 158.748 902.072 162.234C902.072 165.721 904.898 168.547 908.385 168.547H964.657V155.922Z" fill="#5F5F5F" stroke="black"/>
<circle r="4.54182" transform="matrix(-1 0 0 1 940.177 82.7531)" fill="black"/>
<circle r="2.83864" transform="matrix(-1 0 0 1 925.984 176.428)" fill="black"/>
<circle r="2.83864" transform="matrix(-1 0 0 1 925.984 190.054)" fill="black"/>
<circle r="2.83864" transform="matrix(-1 0 0 1 925.984 203.678)" fill="black"/>
<circle r="2.83864" transform="matrix(-1 0 0 1 925.984 217.304)" fill="black"/>
<circle r="2.83864" transform="matrix(-1 0 0 1 925.984 230.929)" fill="black"/>
<circle r="2.83864" transform="matrix(-1 0 0 1 925.984 244.555)" fill="black"/>
<circle r="2.83864" transform="matrix(-1 0 0 1 925.984 258.18)" fill="black"/>
<path d="M959.886 199.069H952.032V236.675H959.886C961.267 236.675 962.386 235.556 962.386 234.175V201.569C962.386 200.189 961.267 199.069 959.886 199.069Z" fill="#5F5F5F" stroke="black"/>
<rect width="6.81273" height="18.1673" rx="3.40636" transform="matrix(-1 0 0 1 974.241 200.84)" fill="#FFB800" stroke="black"/>
<rect x="-0.5" y="0.5" width="10.3545" height="44.4182" rx="5.17727" transform="matrix(-1 0 0 1 973.241 50.96)" fill="#949494" stroke="black"/>
<rect x="-0.5" y="0.5" width="119.358" height="67.1273" transform="matrix(-1 0 0 1 525.872 105.461)" fill="#AF0020" stroke="black"/>
<path d="M927.052 82.7523V157.192H953.303V82.7523C953.303 75.5033 947.426 69.6268 940.177 69.6268C932.928 69.6268 927.052 75.5033 927.052 82.7523Z" fill="#393939" stroke="black"/>
<path d="M937.906 58.2728H937.406V57.7728V52.9601C937.406 51.5794 938.526 50.4601 939.906 50.4601H942.719C944.1 50.4601 945.219 51.5794 945.219 52.9601V57.7728V58.2728H944.719H937.906Z" fill="#9F1414" stroke="black"/>
<path d="M917.672 172.802V170.186C917.672 169.592 917.216 169.097 916.624 169.047H910.358C909.828 169.047 909.326 169.286 908.991 169.697C908.736 170.011 908.597 170.403 908.597 170.808V238.99C908.597 240.025 908.276 241.034 907.678 241.879C906.741 243.201 905.221 243.987 903.6 243.987H889.082C887.2 243.987 885.675 245.512 885.675 247.393C885.675 249.275 887.2 250.8 889.082 250.8H906.184H911.508C913.47 250.8 915.315 249.865 916.477 248.283C917.253 247.226 917.672 245.948 917.672 244.636V172.802Z" fill="#5F5F5F" stroke="black"/>
<rect x="-0.5" y="0.5" width="35.3345" height="60.3145" rx="0.5" transform="matrix(-1 0 0 1 886.946 232.633)" fill="#AF0020" stroke="black"/>
<circle r="14.2609" transform="matrix(-1 0 0 1 857.289 149.745)" fill="#5F5F5F" stroke="black"/>
<circle r="14.2609" transform="matrix(-1 0 0 1 816.413 192.891)" fill="#5F5F5F" stroke="black"/>
<path d="M852.747 144.567H525.101V154.922H852.747C855.606 154.922 857.924 152.604 857.924 149.744C857.924 146.885 855.606 144.567 852.747 144.567Z" fill="#5F5F5F" stroke="black"/>
<path d="M804.399 171.818H407.013V182.171L808.622 181.056C812.535 181.046 815.511 184.567 814.848 188.424L814.463 190.667C814.206 192.162 815.357 193.527 816.873 193.527C818.224 193.527 819.319 192.432 819.319 191.082V186.738C819.319 178.498 812.639 171.818 804.399 171.818Z" fill="#5F5F5F" stroke="black"/>
<path d="M712.222 167.276H696.919C696.09 167.276 695.419 167.948 695.419 168.776V293.447H705.773V200.272C705.773 197.801 707.776 195.798 710.247 195.798C712.166 195.798 713.722 194.242 713.722 192.324V168.776C713.722 167.948 713.05 167.276 712.222 167.276Z" fill="#5F5F5F" stroke="black"/>
<circle r="9.71909" transform="matrix(-1 0 0 1 705.138 199.704)" fill="#5F5F5F" stroke="black"/>
<rect x="-0.5" y="0.5" width="12.6255" height="8.08363" transform="matrix(-1 0 0 1 707.544 284.863)" fill="#5F5F5F" stroke="black"/>
<path d="M755.369 250.164H729.483V293.447H767.088V266.425C767.088 265.597 766.416 264.925 765.588 264.925H757.369H756.869V264.425V251.664C756.869 250.836 756.197 250.164 755.369 250.164Z" fill="#4C4C4C" stroke="black"/>
<rect x="-0.5" y="0.5" width="21.7091" height="8.08363" rx="4.04182" transform="matrix(-1 0 0 1 755.234 262.154)" fill="#FFB800" stroke="black"/>
<circle r="8.58363" transform="matrix(-1 0 0 1 733.525 255.342)" fill="#FFB800" stroke="black"/>
<path d="M758.505 283.593C758.505 283.041 758.057 282.593 757.505 282.593H752.692C752.14 282.593 751.692 283.041 751.692 283.593V292.812H758.505V283.593Z" fill="#5F5F5F" stroke="black"/>
<path d="M744.879 283.593C744.879 283.041 744.431 282.593 743.879 282.593H739.066C738.514 282.593 738.066 283.041 738.066 283.593V292.812H744.879V283.593Z" fill="#5F5F5F" stroke="black"/>
<path d="M622.521 162.735H601.541C600.712 162.735 600.041 163.406 600.041 164.235V181.038H624.021V164.235C624.021 163.406 623.349 162.735 622.521 162.735Z" fill="#5F5F5F" stroke="black"/>
<path d="M744.841 108.166L745.61 109.534C746.327 110.81 745.446 112.401 743.986 112.508C652.925 119.138 602.922 115.303 510.328 110.015C508.977 109.938 508.063 108.567 508.546 107.302L515.876 88.1296C517.14 84.8232 517.788 81.3133 517.788 77.7735V65.0435C517.788 62.282 520.027 60.0435 522.788 60.0435H731.931C734.692 60.0435 736.931 62.282 736.931 65.0435V82.7448C736.931 86.2121 737.553 89.6514 738.767 92.8992L742.959 104.114C743.481 105.511 744.111 106.866 744.841 108.166Z" fill="#AF0020" stroke="black"/>
<path d="M728.054 58.2725H526.872C519.79 58.2725 514.018 63.8806 513.756 70.8979H741.171C740.908 63.8806 735.136 58.2725 728.054 58.2725Z" fill="#9F1414" stroke="black"/>
<path d="M742.004 79.9023L741.042 79.5817C740.576 79.4265 740.086 79.3594 739.595 79.3839L720.164 80.3555C718.969 80.4152 718.228 81.6828 718.764 82.7532C719.46 84.1449 720.882 85.0241 722.438 85.0241H740.771C741.232 85.0241 741.688 84.9166 742.1 84.7102L742.337 84.5919C743.199 84.1609 743.744 83.2799 743.744 82.3161C743.744 81.221 743.043 80.2487 742.004 79.9023Z" fill="#AF0020" stroke="black"/>
<path d="M690.377 70.2625V110.003" stroke="black"/>
<path d="M567.748 71.3979V108.868" stroke="black"/>
<rect x="-0.5" y="0.5" width="10.3545" height="17.1673" rx="0.5" transform="matrix(-1 0 0 1 682.564 78.2113)" fill="#FFB800" stroke="black"/>
<circle r="9.58363" transform="matrix(-1 0 0 1 622.25 96.3783)" fill="#DE032B" stroke="black"/>
<circle r="9.58363" transform="matrix(-1 0 0 1 540.497 91.8361)" fill="#DE032B" stroke="black"/>
<circle r="6.31273" transform="matrix(-1 0 0 1 622.25 98.6485)" fill="#5F5F5F" stroke="black"/>
<circle r="6.31273" transform="matrix(-1 0 0 1 540.497 94.1074)" fill="#5F5F5F" stroke="black"/>
<path d="M672.608 171.015L673.22 171.818H672.21H666.995H666.75L666.6 171.625C647.069 146.436 636.96 131.389 621.134 103.114C620.754 102.436 620.951 101.564 621.606 101.127L622.454 100.562C623.664 99.7548 625.305 100.156 626.021 101.415C641.157 128.02 651.682 143.573 672.608 171.015Z" fill="#4C4C4C" stroke="black"/>
<path d="M549.581 132.713L550.436 127.585C551.364 122.013 550.847 116.297 548.934 110.982L546.742 104.894L543.838 96.8256C543.112 94.8111 540.252 94.8452 539.574 96.8764C539.436 97.2924 539.421 97.7399 539.533 98.164L543.953 114.959C544.674 117.7 545.039 120.523 545.039 123.357V126.192C545.039 128.264 544.844 130.331 544.456 132.367L541.811 146.253C540.945 150.801 541.045 155.48 542.106 159.986L545.039 172.454H554.123L551.477 167.163C548.752 161.713 547.589 155.616 548.117 149.546L549.581 132.713Z" fill="#5F5F5F" stroke="black"/>
<path d="M406.514 144.067L488.266 143.036C493.573 142.969 498.636 140.795 502.34 136.994L520.318 118.539L537.253 96.572C538.285 95.2336 540.229 95.0375 541.508 96.1429L542.516 96.8951C543.889 97.9198 544.127 99.8848 543.037 101.207L507.08 144.846C503.334 149.392 497.775 152.056 491.884 152.127L406.514 153.151V144.067Z" fill="#5F5F5F" stroke="black"/>
<path d="M411.083 113.564L407.649 114.545V92.9714H418.877C419.522 92.9714 419.998 93.5728 419.85 94.2005L416.673 107.704C416.009 110.526 413.871 112.768 411.083 113.564Z" fill="#AF0020" stroke="black"/>
<path d="M513.247 95.2426H419.004" stroke="black"/>
<rect width="6.81273" height="38.6054" rx="3.40636" transform="matrix(-1 0 0 1 436.036 73.6691)" fill="#5F5F5F" stroke="black"/>
<path d="M442.848 83.7524C442.848 83.2002 442.4 82.7524 441.848 82.7524H423.41C422.858 82.7524 422.41 83.2002 422.41 83.7524V87.5652C422.41 88.6697 423.305 89.5652 424.41 89.5652H440.848C441.953 89.5652 442.848 88.6697 442.848 87.5652V83.7524Z" fill="#8A8A8A" stroke="black"/>
<path d="M422.91 72.5337V77.7109H442.348V72.5337C442.348 67.166 437.997 62.8146 432.629 62.8146C427.261 62.8146 422.91 67.166 422.91 72.5337Z" fill="#8A8A8A" stroke="black"/>
<rect x="-0.5" y="0.5" width="210.195" height="148.88" transform="matrix(-1 0 0 1 407.784 32.7924)" fill="#AF0020" stroke="black"/>
<path d="M432.629 63.4497V60.0434V57.7725" stroke="black"/>
<path d="M437.171 57.7725H428.273C426.652 57.7725 425.048 58.1017 423.558 58.7401V58.7401C419.989 60.2696 417.384 63.4356 416.571 67.2324L415.035 74.3996C414.657 76.1623 413.902 77.822 412.82 79.2642L411.817 80.6014C411.316 81.2693 410.667 81.8114 409.92 82.1847V82.1847C409.173 82.5581 408.35 82.7525 407.515 82.7525H406.514" stroke="black"/>
<path d="M496.35 169.547H480.183C479.907 169.547 479.683 169.771 479.683 170.047V182.173H496.85V170.047C496.85 169.771 496.626 169.547 496.35 169.547Z" fill="#5F5F5F" stroke="black"/>
<path d="M197.991 59.1639H198.491V59.6639V108.9V109.4H197.991H188.563H188.063V108.9V61.6639C188.063 60.2832 189.182 59.1639 190.563 59.1639H197.991Z" fill="#AF0020" stroke="black"/>
<path d="M109.025 110.504H109.525V110.004V64.3146C109.525 62.9339 108.405 61.8146 107.025 61.8146H101.941C100.56 61.8146 99.4409 62.9339 99.4409 64.3146V110.004V110.504H99.9409H109.025Z" fill="#AF0020" stroke="black"/>
<circle r="7.44818" transform="matrix(-1 0 0 1 480.318 138.39)" fill="#AF0020" stroke="black"/>
<circle r="9.71909" transform="matrix(-1 0 0 1 428.088 136.119)" fill="#AF0020" stroke="black"/>
<path d="M481.454 128.17V132.712H479.183V128.17" stroke="black"/>
<path d="M333.845 118.318V180.402H290.697V101.92C290.697 101.368 291.145 100.92 291.697 100.92H315.964C318.275 100.92 320.565 101.361 322.71 102.219L323.03 102.347C326.703 103.815 329.757 106.505 331.679 109.962C333.099 112.518 333.845 115.394 333.845 118.318Z" fill="#DE032B" stroke="black"/>
<path d="M429.223 123.629V130.442H426.952V123.629" stroke="black"/>
<rect x="-0.5" y="0.5" width="214.736" height="17.1673" rx="0.5" transform="matrix(-1 0 0 1 410.055 44.1469)" fill="#9F1414" stroke="black"/>
<path d="M411.327 12.8545H195.048C194.22 12.8545 193.548 13.5261 193.548 14.3545V32.2927H412.827V14.3545C412.827 13.5261 412.155 12.8545 411.327 12.8545Z" fill="#5F5F5F" stroke="black"/>
<rect x="-0.5" y="0.5" width="10.3545" height="14.8964" rx="5.17727" transform="matrix(-1 0 0 1 398.701 3.27112)" fill="#949494" stroke="black"/>
<rect x="-0.5" y="0.5" width="10.3545" height="14.8964" rx="5.17727" transform="matrix(-1 0 0 1 217.028 3.27112)" fill="#949494" stroke="black"/>
<path d="M388.346 30.5222H347.47V37.6059C347.47 38.7104 348.366 39.6059 349.47 39.6059H386.346C387.451 39.6059 388.346 38.7104 388.346 37.6059V30.5222Z" fill="black"/>
<path d="M327.032 30.5222H286.156V37.6059C286.156 38.7104 287.051 39.6059 288.156 39.6059H325.032C326.136 39.6059 327.032 38.7104 327.032 37.6059V30.5222Z" fill="black"/>
<path d="M265.717 30.5222H224.841V37.6059C224.841 38.7104 225.736 39.6059 226.841 39.6059H263.717C264.822 39.6059 265.717 38.7104 265.717 37.6059V30.5222Z" fill="black"/>
<rect x="-0.5" y="0.5" width="44.4182" height="62.5854" rx="2.5" transform="matrix(-1 0 0 1 385.076 96.3781)" fill="#A0ABAD" stroke="black"/>
<rect x="-0.5" y="0.5" width="26.2509" height="37.6054" rx="2.5" transform="matrix(-1 0 0 1 323.761 116.816)" fill="#A0ABAD" stroke="black"/>
<circle r="2.27091" transform="matrix(-1 0 0 1 345.199 69.1277)" fill="black"/>
<circle r="2.27091" transform="matrix(-1 0 0 1 290.698 69.1277)" fill="black"/>
<circle r="2.27091" transform="matrix(-1 0 0 1 315.677 69.1277)" fill="black"/>
<circle r="2.27091" transform="matrix(-1 0 0 1 206.673 69.1277)" fill="black"/>
<circle r="2.27091" transform="matrix(-1 0 0 1 206.674 89.566)" fill="black"/>
<circle r="2.27091" transform="matrix(-1 0 0 1 206.674 107.733)" fill="black"/>
<circle r="2.27091" transform="matrix(-1 0 0 1 206.674 130.442)" fill="black"/>
<circle r="2.27091" transform="matrix(-1 0 0 1 206.674 150.88)" fill="black"/>
<circle r="2.27091" transform="matrix(-1 0 0 1 206.674 171.319)" fill="black"/>
<circle r="2.27091" transform="matrix(-1 0 0 1 297.51 189.486)" fill="black"/>
<circle r="2.27091" transform="matrix(-1 0 0 1 297.51 209.924)" fill="black"/>
<circle r="2.27091" transform="matrix(-1 0 0 1 297.51 225.82)" fill="black"/>
<circle r="2.27091" transform="matrix(-1 0 0 1 297.51 246.259)" fill="black"/>
<circle r="2.27091" transform="matrix(-1 0 0 1 297.51 266.697)" fill="black"/>
<circle r="2.27091" transform="matrix(-1 0 0 1 297.51 284.864)" fill="black"/>
<circle r="2.27091" transform="matrix(-0.999989 0.00461613 0.00461613 0.999989 410.605 191.766)" fill="black"/>
<circle r="2.27091" transform="matrix(-0.999989 0.00461613 0.00461613 0.999989 410.688 209.934)" fill="black"/>
<circle r="2.27091" transform="matrix(-0.999989 0.00461613 0.00461613 0.999989 410.773 228.101)" fill="black"/>
<circle r="2.27091" transform="matrix(-0.999989 0.00461613 0.00461613 0.999989 410.867 248.538)" fill="black"/>
<circle r="2.27091" transform="matrix(-0.999989 0.00461613 0.00461613 0.999989 410.961 268.976)" fill="black"/>
<circle r="2.27091" transform="matrix(-0.999989 0.00461614 0.00461613 0.999989 411.045 287.142)" fill="black"/>
<circle r="2.27091" transform="matrix(-0.999989 0.00461613 0.00461613 0.999989 688.096 191.766)" fill="black"/>
<circle r="2.27091" transform="matrix(-0.999989 0.00461613 0.00461613 0.999989 687.739 207.662)" fill="black"/>
<circle r="2.27091" transform="matrix(-0.999989 0.00461613 0.00461613 0.999989 687.823 225.829)" fill="black"/>
<circle r="2.27091" transform="matrix(-0.999989 0.00461613 0.00461613 0.999989 687.918 246.267)" fill="black"/>
<circle r="2.27091" transform="matrix(-0.999989 0.00461613 0.00461613 0.999989 688.012 266.706)" fill="black"/>
<circle r="2.27091" transform="matrix(-0.999989 0.00461613 0.00461613 0.999989 688.096 284.872)" fill="black"/>
<circle r="2.27091" transform="matrix(-0.999989 0.00461613 0.00461613 0.999989 629.052 191.766)" fill="black"/>
<circle r="2.27091" transform="matrix(-0.999989 0.00461613 0.00461613 0.999989 629.052 207.663)" fill="black"/>
<circle r="2.27091" transform="matrix(-0.999989 0.00461613 0.00461613 0.999989 629.052 225.83)" fill="black"/>
<circle r="2.27091" transform="matrix(-0.999989 0.00461613 0.00461613 0.999989 629.052 246.268)" fill="black"/>
<circle r="2.27091" transform="matrix(-0.999989 0.00461613 0.00461613 0.999989 629.052 264.435)" fill="black"/>
<circle r="2.27091" transform="matrix(-0.999989 0.00461613 0.00461613 0.999989 629.052 284.873)" fill="black"/>
<circle r="2.27091" transform="matrix(0 -1 -1 0 606.354 191.756)" fill="black"/>
<circle r="2.27091" transform="matrix(0 -1 -1 0 588.187 191.756)" fill="black"/>
<circle r="2.27091" transform="matrix(0 -1 -1 0 570.019 191.756)" fill="black"/>
<circle r="2.27091" transform="matrix(0 -1 -1 0 392.889 209.923)" fill="black"/>
<circle r="2.27091" transform="matrix(0 -1 -1 0 549.581 191.756)" fill="black"/>
<circle r="2.27091" transform="matrix(0 -1 -1 0 367.909 209.923)" fill="black"/>
<circle r="2.27091" transform="matrix(0 -1 -1 0 672.21 225.82)" fill="black"/>
<circle r="2.27091" transform="matrix(0 -1 -1 0 529.143 191.756)" fill="black"/>
<circle r="2.27091" transform="matrix(0 -1 -1 0 342.929 209.923)" fill="black"/>
<circle r="2.27091" transform="matrix(0 -1 -1 0 658.585 225.82)" fill="black"/>
<circle r="2.27091" transform="matrix(0 -1 -1 0 510.976 191.756)" fill="black"/>
<circle r="2.27091" transform="matrix(0 -1 -1 0 317.948 209.923)" fill="black"/>
<circle r="2.27091" transform="matrix(0 -1 -1 0 644.959 225.82)" fill="black"/>
<circle r="2.27091" transform="matrix(0 -1 -1 0 492.808 191.756)" fill="black"/>
<circle r="2.27091" transform="matrix(0 -1 -1 0 472.37 191.756)" fill="black"/>
<circle r="2.27091" transform="matrix(0 -1 -1 0 451.932 191.756)" fill="black"/>
<circle r="2.27091" transform="matrix(0 -1 -1 0 433.764 191.756)" fill="black"/>
<circle r="2.27091" transform="matrix(-1 0 0 1 363.366 69.1277)" fill="black"/>
<circle r="2.27091" transform="matrix(-1 0 0 1 381.534 69.1277)" fill="black"/>
<circle r="2.27091" transform="matrix(-1 0 0 1 401.972 69.1277)" fill="black"/>
<circle r="2.27091" transform="matrix(-1 0 0 1 401.972 89.5656)" fill="black"/>
<circle r="2.27091" transform="matrix(-1 0 0 1 401.972 110.003)" fill="black"/>
<circle r="2.27091" transform="matrix(-1 0 0 1 401.972 130.441)" fill="black"/>
<circle r="2.27091" transform="matrix(-1 0 0 1 401.972 150.88)" fill="black"/>
<circle r="2.27091" transform="matrix(-1 0 0 1 401.972 171.318)" fill="black"/>
<circle r="2.27091" transform="matrix(-1 0 0 1 381.534 171.318)" fill="black"/>
<circle r="2.27091" transform="matrix(-1 0 0 1 363.366 171.318)" fill="black"/>
<circle r="2.27091" transform="matrix(-1 0 0 1 345.199 171.318)" fill="black"/>
<path d="M274.801 61.8146H275.301V62.3146V68.1273C275.301 68.9557 274.629 69.6273 273.801 69.6273H221.299C220.471 69.6273 219.799 68.9557 219.799 68.1273V62.3146V61.8146H220.299H274.801Z" fill="#8A8A8A" stroke="black"/>
<rect x="-0.5" y="0.5" width="71.6691" height="10.3545" transform="matrix(-1 0 0 1 289.697 182.673)" fill="#AF0020" stroke="black"/>
<path d="M290.697 180.673V100.92H221.028C219.371 100.92 218.028 102.263 218.028 103.92V180.673C218.028 181.778 218.924 182.673 220.028 182.673H288.697C289.802 182.673 290.697 181.778 290.697 180.673Z" fill="white" stroke="black"/>
<path d="M289.562 290.05V181.537L284.348 187.794C284.049 188.153 283.885 188.606 283.885 189.074V285.999L287.794 290.69C288.393 291.408 289.562 290.985 289.562 290.05Z" fill="#A5A5A5" stroke="black"/>
<path d="M219.164 288.914V180.402L224.377 186.658C224.677 187.017 224.841 187.471 224.841 187.938V284.863L220.932 289.554C220.333 290.273 219.164 289.849 219.164 288.914Z" fill="#A5A5A5" stroke="black"/>
<path d="M225.255 284.363H283.416C283.861 284.363 284.284 284.561 284.569 284.903L288.579 289.715C289.393 290.692 288.699 292.176 287.427 292.176H220.443C219.106 292.176 218.437 290.56 219.382 289.615L224.194 284.802C224.476 284.521 224.857 284.363 225.255 284.363Z" fill="#5F5F5F" stroke="black"/>
<path d="M198.538 124.066H102.114V192.753C102.114 193.029 102.338 193.253 102.614 193.253H198.538V124.066Z" fill="#AF0020" stroke="black"/>
<path d="M197.991 109.447H198.491V109.947V123.566V124.066H197.991H99.4242C98.0434 124.066 96.9242 122.947 96.9242 121.566V111.947C96.9242 110.567 98.0434 109.447 99.4242 109.447H197.991Z" fill="#5F5F5F" stroke="black"/>
<rect x="0.5" y="-0.5" width="78.5202" height="19.8563" transform="matrix(-1 0 0 1 188.515 71.1873)" fill="#9E750B" stroke="black"/>
<rect x="0.5" y="-0.5" width="78.5202" height="18.8087" transform="matrix(-1 0 0 1 188.515 91.0911)" fill="#9E750B" stroke="black"/>
<circle r="2.27091" transform="matrix(-1 0 0 1 111.295 141.797)" fill="black"/>
<circle r="2.27091" transform="matrix(-1 0 0 1 206.674 239.445)" fill="black"/>
<circle r="2.27091" transform="matrix(-1 0 0 1 186.235 253.07)" fill="black"/>
<circle r="2.27091" transform="matrix(-1 0 0 1 111.295 241.716)" fill="black"/>
<circle r="2.27091" transform="matrix(-1 0 0 1 206.674 219.007)" fill="black"/>
<circle r="2.27091" transform="matrix(-1 0 0 1 186.235 232.633)" fill="black"/>
<circle r="2.27091" transform="matrix(-1 0 0 1 111.295 225.82)" fill="black"/>
<circle r="2.27091" transform="matrix(-1 0 0 1 206.674 198.569)" fill="black"/>
<circle r="2.27091" transform="matrix(-1 0 0 1 186.235 212.195)" fill="black"/>
<circle r="2.27091" transform="matrix(-1 0 0 1 111.295 209.924)" fill="black"/>
<circle r="2.27091" transform="matrix(-1 0 0 1 111.295 162.235)" fill="black"/>
<circle r="2.27091" transform="matrix(-1 0 0 1 206.674 259.884)" fill="black"/>
<circle r="2.27091" transform="matrix(-1 0 0 1 186.235 273.509)" fill="black"/>
<circle r="2.27091" transform="matrix(-1 0 0 1 111.295 257.613)" fill="black"/>
<circle r="2.27091" transform="matrix(-1 0 0 1 111.295 182.673)" fill="black"/>
<circle r="2.27091" transform="matrix(-1 0 0 1 206.674 280.322)" fill="black"/>
<circle r="2.27091" transform="matrix(-1 0 0 1 111.295 273.509)" fill="black"/>
<path d="M124.661 193.206H124.161V192.706V183.277V175.849C124.161 174.469 125.28 173.349 126.661 173.349H177.134C178.515 173.349 179.634 174.469 179.634 175.849V192.706V193.206H179.134H124.661Z" fill="#5F5F5F" stroke="black"/>
<path d="M179.658 182.673H124.661" stroke="black"/>
<path d="M621.75 293.948V293.448H622.25H930.094C930.922 293.448 931.594 294.119 931.594 294.948V313.386C931.594 314.214 930.922 314.886 930.094 314.886H623.25C622.422 314.886 621.75 314.214 621.75 313.386V293.948Z" fill="#5F5F5F" stroke="black"/>
<rect x="-0.5" y="0.5" width="135.255" height="17.1673" rx="0.5" transform="matrix(-1 0 0 1 242.008 291.676)" fill="#AA0101" stroke="black"/>
<rect x="-0.5" y="0.5" width="135.255" height="17.1673" rx="0.5" transform="matrix(-1 0 0 1 410.055 291.676)" fill="#AA0101" stroke="black"/>
<circle r="1.13545" transform="matrix(-1 0 0 1 112.431 297.354)" fill="black"/>
<circle r="1.13545" transform="matrix(-1 0 0 1 112.431 304.166)" fill="black"/>
<rect x="0.5" y="-0.5" width="39.6054" height="46.4182" transform="matrix(-1 0 0 1 275.801 293.948)" fill="#FFB800" stroke="black"/>
<rect x="-0.5" y="0.5" width="28.5218" height="10.3545" rx="0.5" transform="matrix(-1 0 0 1 269.259 296.219)" fill="#9E750B" stroke="black"/>
<path d="M269.259 310.343H241.737C241.461 310.343 241.237 310.567 241.237 310.843V320.198C241.237 320.474 241.461 320.698 241.737 320.698H269.259C269.535 320.698 269.759 320.474 269.759 320.198V310.843C269.759 310.567 269.535 310.343 269.259 310.343ZM269.259 323.969H241.737C241.461 323.969 241.237 324.192 241.237 324.469V333.823C241.237 334.099 241.461 334.323 241.737 334.323H269.259C269.535 334.323 269.759 334.099 269.759 333.823V324.469C269.759 324.192 269.535 323.969 269.259 323.969Z" fill="#9E750B" stroke="black"/>
<path d="M96.924 212.062H88.9482C88.1198 212.062 87.4482 212.733 87.4482 213.562V225.275C87.4482 226.104 88.1198 226.775 88.9482 226.775H96.924V212.062Z" fill="#5F5F5F" stroke="black"/>
<path d="M96.3763 206.871H96.8763V207.371V211.562V212.062H96.3763H92.1861H91.6861V211.562V208.371C91.6861 207.543 92.3576 206.871 93.1861 206.871H96.3763Z" fill="#8A8A8A" stroke="black"/>
<rect x="-0.5" y="0.5" width="3.19028" height="6.333" rx="0.5" transform="matrix(-1 0 0 1 92.2337 246.132)" fill="#8B8B8B" stroke="black"/>
<rect x="-0.5" y="0.5" width="5.28543" height="10.5233" rx="0.5" transform="matrix(-1 0 0 1 92.2337 268.131)" fill="#8B8B8B" stroke="black"/>
<path d="M309.797 214.931C309.797 209.722 308.495 207.118 305.891 207.118V199.306H325.422V207.118C322.818 207.118 321.516 209.722 321.516 214.931V218.837H321.75L332.063 199.306H346.907V207.118C344.823 207.118 342.948 207.327 341.282 207.743L332.297 224.696L341.282 241.65C342.948 242.066 344.823 242.275 346.907 242.275V250.087H332.063L321.75 230.556H321.516V234.462C321.516 239.67 322.818 242.275 325.422 242.275V250.087H305.891V242.275C308.495 242.275 309.797 239.67 309.797 234.462V214.931ZM371.191 238.368C376.399 238.368 379.003 237.066 379.003 234.462H386.816V250.087H351.66V242.275C354.264 242.275 355.566 239.67 355.566 234.462V214.931C355.566 209.722 354.264 207.118 351.66 207.118V199.306H386.816V214.931H379.003C379.003 212.327 376.399 211.025 371.191 211.025H367.285V218.837H379.003V226.65C373.795 229.254 369.889 230.556 367.285 230.556V238.368H371.191ZM409.147 222.743V250.087H393.522V242.275C396.126 242.275 397.428 239.67 397.428 234.462V214.931C397.428 209.722 396.126 207.118 393.522 207.118V199.306H409.147L416.96 218.837L424.772 199.306H440.397V207.118C437.793 207.118 436.491 209.722 436.491 214.931V234.462C436.491 239.67 437.793 242.275 440.397 242.275V250.087H424.772V222.743L416.96 242.275L409.147 222.743ZM469.435 214.931C469.435 209.722 468.133 207.118 465.528 207.118V199.306H485.06C498.081 199.306 504.591 204.514 504.591 214.931C504.591 225.347 498.081 230.556 485.06 230.556H481.153V234.462C481.153 239.67 482.456 242.275 485.06 242.275V250.087H465.528V242.275C468.133 242.275 469.435 239.67 469.435 234.462V214.931ZM481.153 211.025V218.837H485.06C490.268 218.837 492.872 217.535 492.872 214.931C492.872 212.327 490.268 211.025 485.06 211.025H481.153ZM533.407 199.306L541.219 234.462C542.521 239.67 544.474 242.275 547.078 242.275V250.087H527.157V242.275C529.006 242.275 529.865 240.972 529.735 238.368H517.547C517.417 240.972 518.276 242.275 520.125 242.275V250.087H500.203V242.275C502.808 242.275 504.761 239.67 506.063 234.462L513.875 199.306H533.407ZM527.391 226.65L523.914 211.025H523.368L519.891 226.65H527.391ZM571.363 238.368C576.571 238.368 579.175 237.066 579.175 234.462H586.988V250.087H551.832V242.275C554.436 242.275 555.738 239.67 555.738 234.462V214.931C555.738 209.722 554.436 207.118 551.832 207.118V199.306H571.363V207.118C568.759 207.118 567.457 209.722 567.457 214.931V238.368H571.363ZM607.132 234.501C607.132 239.683 608.434 242.275 611.038 242.275V250.087H591.507V242.275C594.111 242.275 595.413 239.67 595.413 234.462V211.103C591.507 211.389 589.553 212.665 589.553 214.931H581.741V199.306H620.803V214.931H612.991C612.991 212.665 611.038 211.389 607.132 211.103V234.501ZM668.525 199.306V207.118C666.442 207.118 664.554 207.327 662.861 207.743L652.9 226.532V234.462C652.9 239.67 654.202 242.275 656.807 242.275V250.087H637.275V242.275C639.88 242.275 641.182 239.67 641.182 234.462V226.532L631.221 207.743C629.528 207.327 627.64 207.118 625.557 207.118V199.306H640.4L647.041 211.806L653.682 199.306H668.525Z" fill="#FFB800"/>
</svg>
