<svg width="578" height="444" viewBox="0 0 578 444" fill="none" xmlns="http://www.w3.org/2000/svg">
<g id="Group 84">
<g id="Group 104">
<g id="pedestal_and_stand">
<path id="Rectangle 162" d="M56.8145 211.983L48.5165 199.058L63.854 199.873L328.492 356.022L321.5 368.5L56.8145 211.983Z" fill="#D2D2D2"/>
</g>
<g id="panchatt">
<path id="Rectangle 168" d="M40.5072 278.112L113.249 152.979L149.18 150.463L166.665 184.031L93.9234 309.163L55.124 312.261L40.5072 278.112Z" fill="#D2D2D2"/>
<path id="PANCHATT" d="M74.1574 275.349C74.8952 275.778 75.469 276.343 75.8789 277.044C76.284 277.726 76.4699 278.521 76.4367 279.427C76.3987 280.315 76.0916 281.254 75.5153 282.245L74.5403 283.923L78.6555 286.315L76.6854 289.704L64.4955 282.618L67.4405 277.551C68.0101 276.572 68.6655 275.842 69.4067 275.363C70.1545 274.873 70.9344 274.632 71.7464 274.641C72.5584 274.651 73.362 274.886 74.1574 275.349ZM72.627 281.006C73.1831 280.049 73.0232 279.316 72.1471 278.807C71.2595 278.291 70.5377 278.511 69.9815 279.468L69.1975 280.817L71.843 282.355L72.627 281.006ZM86.7259 267.855L84.2131 272.178L85.8196 273.991L83.749 277.553L74.1422 266.023L76.4138 262.115L91.177 264.775L89.0963 268.354L86.7259 267.855ZM83.6398 267.195L78.9336 266.217L82.122 269.806L83.6398 267.195ZM99.5385 250.391L97.5685 253.78L88.1325 254.333L94.945 258.293L92.975 261.682L80.785 254.596L82.7551 251.207L92.2775 250.704L85.3785 246.694L87.3486 243.305L99.5385 250.391ZM95.4545 243.329C94.2557 242.632 93.3335 241.765 92.6879 240.726C92.0375 239.669 91.721 238.529 91.7384 237.306C91.7442 236.075 92.0956 234.86 92.7925 233.662C93.677 232.14 94.83 231.098 96.2515 230.537C97.6615 229.968 99.151 229.94 100.72 230.451L98.5992 234.099C98.0108 234.05 97.4816 234.151 97.0117 234.402C96.5485 234.642 96.1695 235.016 95.8746 235.523C95.419 236.307 95.3362 237.099 95.6263 237.9C95.9116 238.683 96.521 239.345 97.4547 239.888C98.4 240.438 99.289 240.646 100.122 240.513C100.95 240.362 101.592 239.895 102.047 239.111C102.342 238.604 102.479 238.09 102.458 237.569C102.444 237.036 102.27 236.526 101.936 236.039L104.057 232.391C105.278 233.501 105.996 234.813 106.211 236.326C106.415 237.833 106.074 239.347 105.19 240.868C104.493 242.067 103.617 242.977 102.562 243.598C101.496 244.212 100.349 244.501 99.1201 244.465C97.8867 244.411 96.6649 244.033 95.4545 243.329ZM104.742 213.384L116.932 220.47L114.962 223.859L110.069 221.015L107.666 225.147L112.56 227.992L110.59 231.381L98.3997 224.295L100.37 220.906L104.952 223.569L107.354 219.437L102.772 216.773L104.742 213.384ZM121.71 207.675L119.197 211.998L120.804 213.811L118.733 217.372L109.126 205.842L111.398 201.935L126.161 204.595L124.08 208.174L121.71 207.675ZM118.624 207.014L113.918 206.037L117.106 209.625L118.624 207.014ZM121.106 185.234L123.804 186.802L121.914 190.053L131.407 195.571L129.436 198.96L119.944 193.442L118.074 196.658L115.377 195.09L121.106 185.234ZM128.328 172.81L131.026 174.378L129.136 177.629L138.629 183.147L136.659 186.536L127.166 181.018L125.296 184.234L122.599 182.666L128.328 172.81Z" fill="#D2D2D2"/>
</g>
</g>
<g id="Group 118">
<g id="pedestal_and_stand_2">
<path id="Rectangle 162_2" d="M305.024 71.6694L314.866 58L324.708 71.6694V342.871H305.024V71.6694Z" fill="url(#paint0_linear)"/>
<path id="Vector 98" d="M260.736 354.353L305.298 343.145H323.889L373.099 354.353L383.761 378.685H252.261L260.736 354.353Z" fill="#210000" stroke="#1D0000"/>
</g>
<g id="panchatt_2">
<path id="Rectangle 168_2" d="M186.972 120.693L214.57 94.3057H415.069L440.243 120.689L414.996 149.092H214.643L186.972 120.693Z" fill="#DA0000" stroke="#C00000" stroke-width="7"/>
<path id="PANCHATT_2" d="M261.817 118.509C261.817 119.363 261.617 120.143 261.217 120.849C260.831 121.543 260.237 122.103 259.437 122.529C258.651 122.943 257.684 123.149 256.537 123.149H254.597V127.909H250.677V113.809H256.537C257.671 113.809 258.631 114.009 259.417 114.409C260.217 114.809 260.817 115.363 261.217 116.069C261.617 116.776 261.817 117.589 261.817 118.509ZM256.157 120.029C257.264 120.029 257.817 119.523 257.817 118.509C257.817 117.483 257.264 116.969 256.157 116.969H254.597V120.029H256.157ZM274.612 125.609H269.612L268.852 127.909H264.732L269.872 113.809H274.392L279.512 127.909H275.372L274.612 125.609ZM273.632 122.609L272.112 118.049L270.612 122.609H273.632ZM296.15 127.909H292.23L287.01 120.029V127.909H283.09V113.809H287.01L292.23 121.789V113.809H296.15V127.909ZM300.203 120.829C300.203 119.443 300.489 118.209 301.063 117.129C301.649 116.036 302.476 115.189 303.543 114.589C304.609 113.976 305.836 113.669 307.223 113.669C308.983 113.669 310.463 114.143 311.663 115.089C312.863 116.023 313.636 117.296 313.983 118.909H309.763C309.509 118.376 309.156 117.969 308.703 117.689C308.263 117.409 307.749 117.269 307.163 117.269C306.256 117.269 305.529 117.596 304.983 118.249C304.449 118.889 304.183 119.749 304.183 120.829C304.183 121.923 304.449 122.796 304.983 123.449C305.529 124.089 306.256 124.409 307.163 124.409C307.749 124.409 308.263 124.269 308.703 123.989C309.156 123.709 309.509 123.303 309.763 122.769H313.983C313.636 124.383 312.863 125.663 311.663 126.609C310.463 127.543 308.983 128.009 307.223 128.009C305.836 128.009 304.609 127.709 303.543 127.109C302.476 126.496 301.649 125.649 301.063 124.569C300.489 123.476 300.203 122.229 300.203 120.829ZM330.759 113.809V127.909H326.839V122.249H322.059V127.909H318.139V113.809H322.059V119.109H326.839V113.809H330.759ZM344.222 125.609H339.222L338.462 127.909H334.342L339.482 113.809H344.002L349.122 127.909H344.982L344.222 125.609ZM343.242 122.609L341.722 118.049L340.222 122.609H343.242ZM363.32 113.809V116.929H359.56V127.909H355.64V116.929H351.92V113.809H363.32ZM377.69 113.809V116.929H373.93V127.909H370.01V116.929H366.29V113.809H377.69Z" fill="white"/>
</g>
</g>
</g>
<defs>
<linearGradient id="paint0_linear" x1="314.866" y1="71.6694" x2="314.866" y2="342.871" gradientUnits="userSpaceOnUse">
<stop stop-color="#C00000"/>
<stop offset="1"/>
</linearGradient>
</defs>
</svg>
