<svg width="534" height="619" viewBox="0 0 534 619" fill="none" xmlns="http://www.w3.org/2000/svg">
<path d="M266 207H489.568L528.425 250.17L489.749 287H266V207Z" stroke="#950000" stroke-width="8"/>
<path d="M264.5 29.5H443.464L492.901 85.8701L443.578 137.5H264.5V29.5Z" stroke="#950000" stroke-width="9"/>
<path d="M236.5 120.5H56.7494L6.16779 180.657L56.4525 228.5H236.5V120.5Z" stroke="#950000" stroke-width="9"/>
<path d="M233 27.09L251 0L269 27.09L273 567.807L233 564.556V27.09Z" fill="url(#paint0_linear)"/>
<path d="M312.71 81.33C314.157 81.6567 315.3 82.38 316.14 83.5C317.003 84.5967 317.435 85.8567 317.435 87.28C317.435 89.38 316.712 91.025 315.265 92.215C313.818 93.405 311.788 94 309.175 94H296.96V69.325H308.79C311.31 69.325 313.282 69.885 314.705 71.005C316.152 72.125 316.875 73.7 316.875 75.73C316.875 77.1767 316.49 78.39 315.72 79.37C314.973 80.3267 313.97 80.98 312.71 81.33ZM303.82 79.125H307.285C309.012 79.125 309.875 78.4133 309.875 76.99C309.875 75.52 309.012 74.785 307.285 74.785H303.82V79.125ZM307.81 88.47C309.537 88.47 310.4 87.7467 310.4 86.3C310.4 85.5533 310.167 84.9817 309.7 84.585C309.257 84.1883 308.615 83.99 307.775 83.99H303.82V88.47H307.81ZM331.326 88.75H338.991V94H324.466V69.325H331.326V88.75ZM357.514 94.245C355.204 94.245 353.08 93.7083 351.144 92.635C349.207 91.5383 347.667 90.0333 346.524 88.12C345.404 86.1833 344.844 84.0017 344.844 81.575C344.844 79.1483 345.404 76.9783 346.524 75.065C347.667 73.1283 349.207 71.6233 351.144 70.55C353.08 69.4767 355.204 68.94 357.514 68.94C359.847 68.94 361.97 69.4767 363.884 70.55C365.82 71.6233 367.349 73.1283 368.469 75.065C369.589 76.9783 370.149 79.1483 370.149 81.575C370.149 84.0017 369.589 86.1833 368.469 88.12C367.349 90.0333 365.82 91.5383 363.884 92.635C361.947 93.7083 359.824 94.245 357.514 94.245ZM357.514 87.875C359.264 87.875 360.64 87.3033 361.644 86.16C362.67 85.0167 363.184 83.4883 363.184 81.575C363.184 79.615 362.67 78.075 361.644 76.955C360.64 75.8117 359.264 75.24 357.514 75.24C355.74 75.24 354.352 75.8117 353.349 76.955C352.345 78.075 351.844 79.615 351.844 81.575C351.844 83.5117 352.345 85.0517 353.349 86.195C354.352 87.315 355.74 87.875 357.514 87.875ZM393.008 77.445C392.611 76.7917 392.063 76.29 391.363 75.94C390.686 75.59 389.881 75.415 388.948 75.415C387.221 75.415 385.856 75.975 384.853 77.095C383.873 78.215 383.383 79.72 383.383 81.61C383.383 83.7333 383.908 85.355 384.958 86.475C386.031 87.5717 387.583 88.12 389.613 88.12C392.016 88.12 393.731 87.035 394.758 84.865H387.863V79.93H400.673V86.58C400.136 87.8867 399.343 89.1117 398.293 90.255C397.266 91.3983 395.959 92.3433 394.373 93.09C392.786 93.8133 390.978 94.175 388.948 94.175C386.474 94.175 384.281 93.65 382.368 92.6C380.478 91.5267 379.008 90.045 377.958 88.155C376.931 86.2417 376.418 84.06 376.418 81.61C376.418 79.1833 376.931 77.025 377.958 75.135C379.008 73.2217 380.478 71.74 382.368 70.69C384.258 69.6167 386.439 69.08 388.913 69.08C392.016 69.08 394.583 69.8267 396.613 71.32C398.643 72.8133 399.903 74.855 400.393 77.445H393.008ZM417.082 94.245C414.212 94.245 411.855 93.5683 410.012 92.215C408.169 90.8383 407.177 88.8783 407.037 86.335H414.352C414.422 87.1983 414.679 87.8283 415.122 88.225C415.565 88.6217 416.137 88.82 416.837 88.82C417.467 88.82 417.98 88.6683 418.377 88.365C418.797 88.0383 419.007 87.595 419.007 87.035C419.007 86.3117 418.669 85.7517 417.992 85.355C417.315 84.9583 416.219 84.515 414.702 84.025C413.092 83.4883 411.785 82.975 410.782 82.485C409.802 81.9717 408.939 81.2367 408.192 80.28C407.469 79.3 407.107 78.0283 407.107 76.465C407.107 74.8783 407.504 73.525 408.297 72.405C409.09 71.2617 410.187 70.3983 411.587 69.815C412.987 69.2317 414.574 68.94 416.347 68.94C419.217 68.94 421.504 69.6167 423.207 70.97C424.934 72.3 425.855 74.1783 425.972 76.605H418.517C418.494 75.8583 418.26 75.2983 417.817 74.925C417.397 74.5517 416.849 74.365 416.172 74.365C415.659 74.365 415.239 74.5167 414.912 74.82C414.585 75.1233 414.422 75.555 414.422 76.115C414.422 76.5817 414.597 76.99 414.947 77.34C415.32 77.6667 415.775 77.9583 416.312 78.215C416.849 78.4483 417.642 78.7517 418.692 79.125C420.255 79.6617 421.539 80.1983 422.542 80.735C423.569 81.2483 424.444 81.9833 425.167 82.94C425.914 83.8733 426.287 85.0633 426.287 86.51C426.287 87.98 425.914 89.2983 425.167 90.465C424.444 91.6317 423.382 92.5533 421.982 93.23C420.605 93.9067 418.972 94.245 417.082 94.245Z" fill="#950000"/>
<path d="M316.455 243.55C316.455 245.043 316.105 246.408 315.405 247.645C314.728 248.858 313.69 249.838 312.29 250.585C310.913 251.308 309.222 251.67 307.215 251.67H303.82V260H296.96V235.325H307.215C309.198 235.325 310.878 235.675 312.255 236.375C313.655 237.075 314.705 238.043 315.405 239.28C316.105 240.517 316.455 241.94 316.455 243.55ZM306.55 246.21C308.487 246.21 309.455 245.323 309.455 243.55C309.455 241.753 308.487 240.855 306.55 240.855H303.82V246.21H306.55ZM335.066 260.245C332.756 260.245 330.633 259.708 328.696 258.635C326.759 257.538 325.219 256.033 324.076 254.12C322.956 252.183 322.396 250.002 322.396 247.575C322.396 245.148 322.956 242.978 324.076 241.065C325.219 239.128 326.759 237.623 328.696 236.55C330.633 235.477 332.756 234.94 335.066 234.94C337.399 234.94 339.523 235.477 341.436 236.55C343.373 237.623 344.901 239.128 346.021 241.065C347.141 242.978 347.701 245.148 347.701 247.575C347.701 250.002 347.141 252.183 346.021 254.12C344.901 256.033 343.373 257.538 341.436 258.635C339.499 259.708 337.376 260.245 335.066 260.245ZM335.066 253.875C336.816 253.875 338.193 253.303 339.196 252.16C340.223 251.017 340.736 249.488 340.736 247.575C340.736 245.615 340.223 244.075 339.196 242.955C338.193 241.812 336.816 241.24 335.066 241.24C333.293 241.24 331.904 241.812 330.901 242.955C329.898 244.075 329.396 245.615 329.396 247.575C329.396 249.512 329.898 251.052 330.901 252.195C331.904 253.315 333.293 253.875 335.066 253.875ZM364.575 235.325C367.165 235.325 369.428 235.85 371.365 236.9C373.325 237.927 374.83 239.373 375.88 241.24C376.93 243.107 377.455 245.242 377.455 247.645C377.455 250.025 376.918 252.148 375.845 254.015C374.795 255.882 373.29 257.352 371.33 258.425C369.393 259.475 367.141 260 364.575 260H354.81V235.325H364.575ZM364.05 253.945C366.056 253.945 367.631 253.397 368.775 252.3C369.918 251.203 370.49 249.652 370.49 247.645C370.49 245.615 369.918 244.052 368.775 242.955C367.631 241.835 366.056 241.275 364.05 241.275H361.67V253.945H364.05ZM383.732 247.61C383.732 245.183 384.234 243.025 385.237 241.135C386.264 239.222 387.71 237.74 389.577 236.69C391.444 235.617 393.59 235.08 396.017 235.08C399.097 235.08 401.687 235.908 403.787 237.565C405.887 239.198 407.24 241.427 407.847 244.25H400.462C400.019 243.317 399.4 242.605 398.607 242.115C397.837 241.625 396.939 241.38 395.912 241.38C394.325 241.38 393.054 241.952 392.097 243.095C391.164 244.215 390.697 245.72 390.697 247.61C390.697 249.523 391.164 251.052 392.097 252.195C393.054 253.315 394.325 253.875 395.912 253.875C396.939 253.875 397.837 253.63 398.607 253.14C399.4 252.65 400.019 251.938 400.462 251.005H407.847C407.24 253.828 405.887 256.068 403.787 257.725C401.687 259.358 399.097 260.175 396.017 260.175C393.59 260.175 391.444 259.65 389.577 258.6C387.71 257.527 386.264 256.045 385.237 254.155C384.234 252.242 383.732 250.06 383.732 247.61ZM430.731 255.975H421.981L420.651 260H413.441L422.436 235.325H430.346L439.306 260H432.061L430.731 255.975ZM429.016 250.725L426.356 242.745L423.731 250.725H429.016ZM454.876 260.245C452.006 260.245 449.65 259.568 447.806 258.215C445.963 256.838 444.971 254.878 444.831 252.335H452.146C452.216 253.198 452.473 253.828 452.916 254.225C453.36 254.622 453.931 254.82 454.631 254.82C455.261 254.82 455.775 254.668 456.171 254.365C456.591 254.038 456.801 253.595 456.801 253.035C456.801 252.312 456.463 251.752 455.786 251.355C455.11 250.958 454.013 250.515 452.496 250.025C450.886 249.488 449.58 248.975 448.576 248.485C447.596 247.972 446.733 247.237 445.986 246.28C445.263 245.3 444.901 244.028 444.901 242.465C444.901 240.878 445.298 239.525 446.091 238.405C446.885 237.262 447.981 236.398 449.381 235.815C450.781 235.232 452.368 234.94 454.141 234.94C457.011 234.94 459.298 235.617 461.001 236.97C462.728 238.3 463.65 240.178 463.766 242.605H456.311C456.288 241.858 456.055 241.298 455.611 240.925C455.191 240.552 454.643 240.365 453.966 240.365C453.453 240.365 453.033 240.517 452.706 240.82C452.38 241.123 452.216 241.555 452.216 242.115C452.216 242.582 452.391 242.99 452.741 243.34C453.115 243.667 453.57 243.958 454.106 244.215C454.643 244.448 455.436 244.752 456.486 245.125C458.05 245.662 459.333 246.198 460.336 246.735C461.363 247.248 462.238 247.983 462.961 248.94C463.708 249.873 464.081 251.063 464.081 252.51C464.081 253.98 463.708 255.298 462.961 256.465C462.238 257.632 461.176 258.553 459.776 259.23C458.4 259.907 456.766 260.245 454.876 260.245ZM489.881 235.325V240.785H483.301V260H476.441V240.785H469.931V235.325H489.881Z" fill="#950000"/>
<path d="M95.7659 161.325L87.2609 186H78.4759L69.9359 161.325H77.2859L82.8859 179.14L88.4509 161.325H95.7659ZM108.788 161.325V186H101.928V161.325H108.788ZM126.485 161.325C129.075 161.325 131.338 161.85 133.275 162.9C135.235 163.927 136.74 165.373 137.79 167.24C138.84 169.107 139.365 171.242 139.365 173.645C139.365 176.025 138.828 178.148 137.755 180.015C136.705 181.882 135.2 183.352 133.24 184.425C131.303 185.475 129.052 186 126.485 186H116.72V161.325H126.485ZM125.96 179.945C127.967 179.945 129.542 179.397 130.685 178.3C131.828 177.203 132.4 175.652 132.4 173.645C132.4 171.615 131.828 170.052 130.685 168.955C129.542 167.835 127.967 167.275 125.96 167.275H123.58V179.945H125.96ZM153.342 166.82V170.845H161.217V176.06H153.342V180.505H162.267V186H146.482V161.325H162.267V166.82H153.342ZM181.512 186.245C179.202 186.245 177.079 185.708 175.142 184.635C173.205 183.538 171.665 182.033 170.522 180.12C169.402 178.183 168.842 176.002 168.842 173.575C168.842 171.148 169.402 168.978 170.522 167.065C171.665 165.128 173.205 163.623 175.142 162.55C177.079 161.477 179.202 160.94 181.512 160.94C183.845 160.94 185.969 161.477 187.882 162.55C189.819 163.623 191.347 165.128 192.467 167.065C193.587 168.978 194.147 171.148 194.147 173.575C194.147 176.002 193.587 178.183 192.467 180.12C191.347 182.033 189.819 183.538 187.882 184.635C185.945 185.708 183.822 186.245 181.512 186.245ZM181.512 179.875C183.262 179.875 184.639 179.303 185.642 178.16C186.669 177.017 187.182 175.488 187.182 173.575C187.182 171.615 186.669 170.075 185.642 168.955C184.639 167.812 183.262 167.24 181.512 167.24C179.739 167.24 178.35 167.812 177.347 168.955C176.344 170.075 175.842 171.615 175.842 173.575C175.842 175.512 176.344 177.052 177.347 178.195C178.35 179.315 179.739 179.875 181.512 179.875ZM210.566 186.245C207.696 186.245 205.339 185.568 203.496 184.215C201.653 182.838 200.661 180.878 200.521 178.335H207.836C207.906 179.198 208.163 179.828 208.606 180.225C209.049 180.622 209.621 180.82 210.321 180.82C210.951 180.82 211.464 180.668 211.861 180.365C212.281 180.038 212.491 179.595 212.491 179.035C212.491 178.312 212.153 177.752 211.476 177.355C210.799 176.958 209.703 176.515 208.186 176.025C206.576 175.488 205.269 174.975 204.266 174.485C203.286 173.972 202.423 173.237 201.676 172.28C200.953 171.3 200.591 170.028 200.591 168.465C200.591 166.878 200.988 165.525 201.781 164.405C202.574 163.262 203.671 162.398 205.071 161.815C206.471 161.232 208.058 160.94 209.831 160.94C212.701 160.94 214.988 161.617 216.691 162.97C218.418 164.3 219.339 166.178 219.456 168.605H212.001C211.978 167.858 211.744 167.298 211.301 166.925C210.881 166.552 210.333 166.365 209.656 166.365C209.143 166.365 208.723 166.517 208.396 166.82C208.069 167.123 207.906 167.555 207.906 168.115C207.906 168.582 208.081 168.99 208.431 169.34C208.804 169.667 209.259 169.958 209.796 170.215C210.333 170.448 211.126 170.752 212.176 171.125C213.739 171.662 215.023 172.198 216.026 172.735C217.053 173.248 217.928 173.983 218.651 174.94C219.398 175.873 219.771 177.063 219.771 178.51C219.771 179.98 219.398 181.298 218.651 182.465C217.928 183.632 216.866 184.553 215.466 185.23C214.089 185.907 212.456 186.245 210.566 186.245Z" fill="#950000"/>
<path d="M161.583 572.088L235.384 547H268.82L355.854 572.396C359.757 573.534 362.972 576.314 364.663 580.011L382.5 619H138L153.038 580.275C154.536 576.417 157.664 573.42 161.583 572.088Z" fill="#1C0000"/>
<defs>
<linearGradient id="paint0_linear" x1="253" y1="27.246" x2="253" y2="567.807" gradientUnits="userSpaceOnUse">
<stop stop-color="#C00000"/>
<stop offset="1"/>
</linearGradient>
</defs>
</svg>
