<svg width="127" height="127" viewBox="0 0 127 127" fill="none" xmlns="http://www.w3.org/2000/svg">
<path d="M121.982 58.8127H117.625V54.4562C117.625 53.2532 116.65 52.2779 115.447 52.2779C115.447 23.4056 92.0414 0 63.1691 0C34.2969 0 10.8912 23.4056 10.8912 52.2779C9.68822 52.2779 8.71299 53.2532 8.71299 54.4562V58.8127H4.35649C1.95047 58.8127 0 60.7631 0 63.1692V89.3081C0 91.7141 1.95047 93.6646 4.35649 93.6646H8.71299V98.0211C8.71299 99.2241 9.68822 100.199 10.8912 100.199H21.7825C24.1885 100.199 26.139 98.2489 26.139 95.8429V56.6344C26.139 54.2284 24.1885 52.2779 21.7825 52.2779H19.6042C19.6042 28.2177 39.1089 8.71299 63.1691 8.71299C87.2294 8.71299 106.734 28.2177 106.734 52.2779H104.556C102.15 52.2779 100.199 54.2284 100.199 56.6344V95.8429C100.199 98.2489 102.15 100.199 104.556 100.199H115.447C116.65 100.199 117.625 99.2241 117.625 98.0211V93.6646H121.982C124.388 93.6646 126.338 91.7141 126.338 89.3081V63.1692C126.338 60.7631 124.388 58.8127 121.982 58.8127Z" fill="#95A5A5"/>
<path d="M77.0233 42.7808C71.4168 37.1813 62.9908 35.5074 55.6698 38.5388C48.3487 41.5701 43.5724 48.7106 43.5654 56.6344V87.1299C43.5603 96.2826 49.8892 104.221 58.8132 106.255V117.625H47.9219C45.5159 117.625 43.5654 119.576 43.5654 121.982V124.16C43.5654 125.363 44.5407 126.338 45.7437 126.338H80.5956C81.7986 126.338 82.7739 125.363 82.7739 124.16V121.982C82.7739 119.576 80.8234 117.625 78.4174 117.625H67.5261V106.255C76.4501 104.221 82.779 96.2826 82.7739 87.1299V56.6344C82.7693 51.4368 80.7009 46.4537 77.0233 42.7808Z" fill="#BDC3C7"/>
<path d="M26.1389 56.6343V95.8428C26.1389 98.2488 24.1884 100.199 21.7824 100.199H10.8911C9.68812 100.199 8.71289 99.224 8.71289 98.021V54.4561C8.71289 53.2531 9.68812 52.2778 10.8911 52.2778H21.7824C24.1884 52.2778 26.1389 54.2283 26.1389 56.6343Z" fill="#3B97D3"/>
<path d="M8.71299 58.8125V93.6644H4.35649C1.95047 93.6644 0 91.714 0 89.308V63.169C0 60.763 1.95047 58.8125 4.35649 58.8125H8.71299Z" fill="#2980BA"/>
<path d="M117.625 54.4561V98.021C117.625 99.224 116.65 100.199 115.447 100.199H104.556C102.15 100.199 100.199 98.2488 100.199 95.8428V56.6343C100.199 54.2283 102.15 52.2778 104.556 52.2778H115.447C116.65 52.2778 117.625 53.2531 117.625 54.4561Z" fill="#3B97D3"/>
<path d="M126.338 63.169V89.308C126.338 91.714 124.388 93.6644 121.981 93.6644H117.625V58.8125H121.981C124.388 58.8125 126.338 60.763 126.338 63.169Z" fill="#2980BA"/>
<path d="M91.5957 35.1349C90.9479 35.1359 90.3331 34.8485 89.9185 34.3507C83.2967 26.4227 73.4992 21.8406 63.1696 21.8406C52.84 21.8406 43.0425 26.4227 36.4207 34.3507C35.9227 34.9499 35.1428 35.2379 34.3748 35.1062C33.6068 34.9745 32.9675 34.4431 32.6976 33.7121C32.4277 32.9812 32.5682 32.1618 33.0662 31.5625C40.5157 22.6358 51.5428 17.4756 63.1696 17.4756C74.7964 17.4756 85.8235 22.6358 93.273 31.5625C93.6434 32.0071 93.8217 32.5808 93.7686 33.157C93.7155 33.7332 93.4353 34.2646 92.9898 34.6339C92.5979 34.9586 92.1047 35.1359 91.5957 35.1349Z" fill="#FAC176"/>
<path d="M85.5828 41.539C84.9087 41.5374 84.2733 41.2237 83.862 40.6895C78.9127 34.2762 71.2696 30.5202 63.1687 30.5202C55.0677 30.5202 47.4246 34.2762 42.4753 40.6895C41.7171 41.5553 40.4162 41.6819 39.5053 40.9785C38.5944 40.2752 38.3878 38.9845 39.0337 38.032C44.8082 30.5554 53.7218 26.1772 63.1687 26.1772C72.6156 26.1772 81.5291 30.5554 87.3037 38.032C88.0351 38.983 87.8598 40.3465 86.9116 41.0815C86.5314 41.3766 86.0641 41.5375 85.5828 41.539Z" fill="#F18D46"/>
<path d="M82.7739 84.9517V87.1299C82.779 96.2827 76.4501 104.221 67.5261 106.255C64.657 106.894 61.6823 106.894 58.8132 106.255C49.8892 104.221 43.5603 96.2827 43.5654 87.1299L43.5654 84.9517H82.7739Z" fill="#3B97D3"/>
<path d="M82.7739 121.981V124.16C82.7739 125.363 81.7986 126.338 80.5956 126.338H45.7437C44.5407 126.338 43.5654 125.363 43.5654 124.16V121.981C43.5654 119.575 45.5159 117.625 47.9219 117.625H78.4174C80.8234 117.625 82.7739 119.575 82.7739 121.981Z" fill="#3B97D3"/>
<path d="M58.8122 58.8125C58.8122 60.0155 57.8369 60.9908 56.6339 60.9908H43.5645V56.6343H56.6339C57.8369 56.6343 58.8122 57.6095 58.8122 58.8125Z" fill="#7F8C8D"/>
<path d="M58.8122 67.5249C58.8122 68.7279 57.8369 69.7032 56.6339 69.7032H43.5645V65.3467H56.6339C57.8369 65.3467 58.8122 66.3219 58.8122 67.5249Z" fill="#7F8C8D"/>
<path d="M58.8122 76.2378C58.8122 77.4408 57.8369 78.4161 56.6339 78.4161H43.5645V74.0596H56.6339C57.8369 74.0596 58.8122 75.0348 58.8122 76.2378Z" fill="#7F8C8D"/>
<path d="M82.7731 56.6338V60.9903H69.7036C68.5006 60.9903 67.5254 60.015 67.5254 58.812C67.5254 57.609 68.5006 56.6338 69.7036 56.6338H82.7731Z" fill="#7F8C8D"/>
<path d="M82.7731 65.3467V69.7032H69.7036C68.5006 69.7032 67.5254 68.7279 67.5254 67.5249C67.5254 66.3219 68.5006 65.3467 69.7036 65.3467H82.7731Z" fill="#7F8C8D"/>
<path d="M82.7731 74.0596V78.4161H69.7036C68.5006 78.4161 67.5254 77.4408 67.5254 76.2378C67.5254 75.0348 68.5006 74.0596 69.7036 74.0596H82.7731Z" fill="#7F8C8D"/>
</svg>
