<svg width="422" height="496" viewBox="0 0 422 496" fill="none" xmlns="http://www.w3.org/2000/svg">
<rect width="422" height="496" fill="white"/>
<g clip-path="url(#clip0)">
<path d="M204.936 442.817H151.876C144.363 442.817 138.251 436.705 138.251 429.191V414.271C139.443 414.549 140.667 414.703 141.909 414.703C142.474 414.703 143.043 414.673 143.613 414.614C144.548 414.517 145.462 414.338 146.349 414.089V429.191C146.349 432.239 148.828 434.719 151.876 434.719H203.874C206.11 434.719 207.922 432.907 207.922 430.67C207.922 428.434 206.11 426.621 203.874 426.621H154.446V408.803C154.473 408.77 154.502 408.739 154.529 408.706C159.863 402.138 159.195 392.623 153.226 386.843C155.833 385.866 158.224 384.211 160.102 381.899C165.436 375.33 164.768 365.816 158.799 360.036C161.406 359.059 163.796 357.404 165.674 355.092C168.405 351.729 169.663 347.504 169.216 343.196C168.769 338.888 166.671 335.01 163.308 332.28L154.446 325.083V245.654H172.373L172.49 246.02C173.839 250.271 177.741 253.127 182.201 253.127H213.494C217.954 253.127 221.856 250.272 223.206 246.02L223.323 245.654H239.413V301.842C239.413 304.078 241.225 305.89 243.462 305.89C245.698 305.89 247.51 304.078 247.51 301.842V243.084C247.51 240.036 245.031 237.557 241.983 237.557H222.232C219.341 237.557 216.81 239.409 215.935 242.165L215.489 243.571C215.212 244.443 214.411 245.03 213.495 245.03H182.202C181.287 245.03 180.486 244.443 180.209 243.571L179.763 242.165C178.888 239.409 176.358 237.557 173.466 237.557H151.876C148.828 237.557 146.349 240.037 146.349 243.084V318.528C143.956 316.746 141.171 315.676 138.251 315.396V274.185C138.251 271.949 136.438 270.136 134.202 270.136C131.979 270.136 130.177 271.927 130.155 274.145C127.182 272.38 123.735 271.617 120.233 271.98C115.924 272.427 112.048 274.525 109.317 277.888C106.587 281.25 105.329 285.475 105.775 289.784C106.222 294.092 108.32 297.969 111.683 300.699L130.153 315.698V316.687C127.816 317.71 125.739 319.279 124.084 321.317C121.353 324.68 120.095 328.905 120.542 333.213C120.938 337.041 122.642 340.525 125.374 343.171C122.712 344.17 120.351 345.859 118.51 348.124C113.175 354.695 113.844 364.211 119.816 369.991C117.208 370.967 114.816 372.618 112.937 374.931C110.206 378.294 108.948 382.519 109.395 386.828C109.842 391.136 111.94 395.013 115.303 397.744L130.153 409.802V429.191C130.153 441.169 139.897 450.914 151.875 450.914H204.936C207.172 450.914 208.985 449.102 208.985 446.865C208.985 444.628 207.173 442.817 204.936 442.817V442.817ZM116.788 294.413C115.104 293.046 114.054 291.105 113.83 288.948C113.606 286.791 114.236 284.676 115.603 282.992C116.97 281.309 118.911 280.259 121.069 280.034C123.224 279.809 125.341 280.439 127.024 281.807L130.153 284.348V305.266L116.788 294.413ZM130.37 326.421C131.737 324.738 133.678 323.688 135.836 323.464C136.121 323.434 136.405 323.419 136.689 323.419C138.544 323.419 140.331 324.051 141.792 325.237L158.205 338.565C159.888 339.932 160.939 341.873 161.163 344.03C161.386 346.187 160.757 348.302 159.39 349.986C156.568 353.461 151.445 353.994 147.969 351.17L131.555 337.842C129.872 336.475 128.821 334.534 128.597 332.377C128.373 330.22 129.003 328.105 130.37 326.421V326.421ZM124.797 353.229C126.164 351.546 128.105 350.496 130.263 350.271C132.33 350.059 134.356 350.635 136.004 351.887L142.863 357.457C142.941 357.52 143.023 357.573 143.101 357.634L152.631 365.373C156.107 368.195 156.638 373.319 153.816 376.794C150.993 380.269 145.87 380.801 142.394 377.978L125.981 364.65C122.506 361.828 121.975 356.705 124.797 353.229V353.229ZM117.451 385.992C117.228 383.836 117.857 381.721 119.224 380.037C120.827 378.064 123.171 377.039 125.535 377.039C127.238 377.039 128.948 377.578 130.4 378.67L137.29 384.265C137.369 384.33 137.453 384.383 137.533 384.445L147.059 392.181C150.534 395.003 151.066 400.127 148.243 403.602C146.876 405.285 144.935 406.335 142.778 406.559C140.621 406.782 138.506 406.153 136.822 404.786L120.409 391.458C118.725 390.091 117.675 388.15 117.451 385.992V385.992Z" fill="black"/>
<path d="M134.202 260.98C136.438 260.98 138.251 259.167 138.251 256.931V243.084C138.251 235.571 144.364 229.459 151.876 229.459H241.983C249.496 229.459 255.608 235.571 255.608 243.084V317.797C255.608 320.033 257.42 321.846 259.657 321.846C261.893 321.846 263.705 320.033 263.705 317.797V243.084C263.706 231.106 253.961 221.361 241.983 221.361H151.876C139.898 221.361 130.153 231.106 130.153 243.084V256.93C130.153 259.167 131.966 260.98 134.202 260.98V260.98Z" fill="black"/>
<path d="M356.158 489.33L328.535 456.837C327.087 455.133 324.532 454.926 322.828 456.374C321.125 457.823 320.917 460.378 322.366 462.081L349.989 494.575C350.789 495.517 351.929 496.001 353.076 496.001C354.002 496.001 354.934 495.685 355.696 495.037C357.399 493.589 357.606 491.033 356.158 489.33Z" fill="black"/>
<path d="M257.018 478.077C256.39 477.256 255.472 476.708 254.451 476.542C240.375 474.267 228.989 463.353 226.121 449.386L224.628 442.119C222.94 433.897 224.299 425.353 228.456 418.061L248.485 382.923C251.09 378.353 250.683 372.721 247.449 368.572L228.69 344.508C223.201 337.468 223.476 327.476 229.343 320.749L230.346 319.599C230.882 318.984 231.549 318.881 231.899 318.874C232.257 318.863 232.919 318.945 233.478 319.538L251.379 338.531C252.913 340.159 255.475 340.233 257.103 338.7C258.73 337.166 258.806 334.604 257.272 332.976L239.371 313.984C237.399 311.891 234.619 310.718 231.743 310.778C228.867 310.833 226.134 312.108 224.243 314.275L223.241 315.425C214.83 325.069 214.436 339.393 222.303 349.486L241.063 373.55C242.271 375.1 242.423 377.205 241.45 378.912L221.421 414.05C216.29 423.052 214.612 433.599 216.696 443.748L218.189 451.015C221.619 467.718 234.915 480.883 251.541 484.242L259.339 494.415C260.136 495.455 261.339 496.001 262.555 496.001C263.414 496.001 264.281 495.728 265.015 495.165C266.79 493.805 267.126 491.263 265.766 489.489L257.018 478.077Z" fill="black"/>
<path d="M306.875 431.354C305.995 430.32 305.511 429.003 305.511 427.646V406.801C305.511 392.198 299.995 378.305 289.98 367.678L269.112 345.538C267.579 343.911 265.016 343.836 263.388 345.369C261.761 346.903 261.686 349.466 263.219 351.093L284.087 373.233C292.68 382.351 297.413 394.272 297.413 406.801V427.646C297.413 430.923 298.582 434.102 300.705 436.6L311.153 448.891C311.954 449.833 313.094 450.318 314.24 450.318C315.167 450.318 316.098 450.002 316.861 449.354C318.564 447.906 318.772 445.351 317.323 443.647L306.875 431.354Z" fill="black"/>
<path d="M208.301 403.627H176.634C175.981 403.627 175.448 403.095 175.448 402.441V385.117C175.448 384.462 175.981 383.931 176.634 383.931H217.277C219.513 383.931 221.326 382.118 221.326 379.882C221.326 377.645 219.513 375.833 217.277 375.833H176.634C171.516 375.833 167.351 379.998 167.351 385.117V402.441C167.351 407.56 171.516 411.725 176.634 411.725H208.301C210.537 411.725 212.35 409.912 212.35 407.676C212.35 405.439 210.537 403.627 208.301 403.627Z" fill="black"/>
<path d="M184.707 306.009V275.83C184.707 272.079 188.684 269.664 192.012 271.393L219.233 285.54C222.718 287.352 222.849 292.291 219.464 294.285L192.244 310.317C188.911 312.281 184.707 309.877 184.707 306.009Z" fill="#CB0000"/>
</g>
<path d="M246.515 46.226C247.631 46.478 248.513 47.036 249.161 47.9C249.827 48.746 250.16 49.718 250.16 50.816C250.16 52.436 249.602 53.705 248.486 54.623C247.37 55.541 245.804 56 243.788 56H234.365V36.965H243.491C245.435 36.965 246.956 37.397 248.054 38.261C249.17 39.125 249.728 40.34 249.728 41.906C249.728 43.022 249.431 43.958 248.837 44.714C248.261 45.452 247.487 45.956 246.515 46.226ZM239.657 44.525H242.33C243.662 44.525 244.328 43.976 244.328 42.878C244.328 41.744 243.662 41.177 242.33 41.177H239.657V44.525ZM242.735 51.734C244.067 51.734 244.733 51.176 244.733 50.06C244.733 49.484 244.553 49.043 244.193 48.737C243.851 48.431 243.356 48.278 242.708 48.278H239.657V51.734H242.735ZM260.876 51.95H266.789V56H255.584V36.965H260.876V51.95ZM281.078 56.189C279.296 56.189 277.658 55.775 276.164 54.947C274.67 54.101 273.482 52.94 272.6 51.464C271.736 49.97 271.304 48.287 271.304 46.415C271.304 44.543 271.736 42.869 272.6 41.393C273.482 39.899 274.67 38.738 276.164 37.91C277.658 37.082 279.296 36.668 281.078 36.668C282.878 36.668 284.516 37.082 285.992 37.91C287.486 38.738 288.665 39.899 289.529 41.393C290.393 42.869 290.825 44.543 290.825 46.415C290.825 48.287 290.393 49.97 289.529 51.464C288.665 52.94 287.486 54.101 285.992 54.947C284.498 55.775 282.86 56.189 281.078 56.189ZM281.078 51.275C282.428 51.275 283.49 50.834 284.264 49.952C285.056 49.07 285.452 47.891 285.452 46.415C285.452 44.903 285.056 43.715 284.264 42.851C283.49 41.969 282.428 41.528 281.078 41.528C279.71 41.528 278.639 41.969 277.865 42.851C277.091 43.715 276.704 44.903 276.704 46.415C276.704 47.909 277.091 49.097 277.865 49.979C278.639 50.843 279.71 51.275 281.078 51.275ZM308.459 43.229C308.153 42.725 307.73 42.338 307.19 42.068C306.668 41.798 306.047 41.663 305.327 41.663C303.995 41.663 302.942 42.095 302.168 42.959C301.412 43.823 301.034 44.984 301.034 46.442C301.034 48.08 301.439 49.331 302.249 50.195C303.077 51.041 304.274 51.464 305.84 51.464C307.694 51.464 309.017 50.627 309.809 48.953H304.49V45.146H314.372V50.276C313.958 51.284 313.346 52.229 312.536 53.111C311.744 53.993 310.736 54.722 309.512 55.298C308.288 55.856 306.893 56.135 305.327 56.135C303.419 56.135 301.727 55.73 300.251 54.92C298.793 54.092 297.659 52.949 296.849 51.491C296.057 50.015 295.661 48.332 295.661 46.442C295.661 44.57 296.057 42.905 296.849 41.447C297.659 39.971 298.793 38.828 300.251 38.018C301.709 37.19 303.392 36.776 305.3 36.776C307.694 36.776 309.674 37.352 311.24 38.504C312.806 39.656 313.778 41.231 314.156 43.229H308.459ZM327.03 56.189C324.816 56.189 322.998 55.667 321.576 54.623C320.154 53.561 319.389 52.049 319.281 50.087H324.924C324.978 50.753 325.176 51.239 325.518 51.545C325.86 51.851 326.301 52.004 326.841 52.004C327.327 52.004 327.723 51.887 328.029 51.653C328.353 51.401 328.515 51.059 328.515 50.627C328.515 50.069 328.254 49.637 327.732 49.331C327.21 49.025 326.364 48.683 325.194 48.305C323.952 47.891 322.944 47.495 322.17 47.117C321.414 46.721 320.748 46.154 320.172 45.416C319.614 44.66 319.335 43.679 319.335 42.473C319.335 41.249 319.641 40.205 320.253 39.341C320.865 38.459 321.711 37.793 322.791 37.343C323.871 36.893 325.095 36.668 326.463 36.668C328.677 36.668 330.441 37.19 331.755 38.234C333.087 39.26 333.798 40.709 333.888 42.581H328.137C328.119 42.005 327.939 41.573 327.597 41.285C327.273 40.997 326.85 40.853 326.328 40.853C325.932 40.853 325.608 40.97 325.356 41.204C325.104 41.438 324.978 41.771 324.978 42.203C324.978 42.563 325.113 42.878 325.383 43.148C325.671 43.4 326.022 43.625 326.436 43.823C326.85 44.003 327.462 44.237 328.272 44.525C329.478 44.939 330.468 45.353 331.242 45.767C332.034 46.163 332.709 46.73 333.267 47.468C333.843 48.188 334.131 49.106 334.131 50.222C334.131 51.356 333.843 52.373 333.267 53.273C332.709 54.173 331.89 54.884 330.81 55.406C329.748 55.928 328.488 56.189 327.03 56.189Z" fill="black"/>
<path d="M213.212 163.965L206.651 183H199.874L193.286 163.965H198.956L203.276 177.708L207.569 163.965H213.212ZM223.258 163.965V183H217.966V163.965H223.258ZM236.91 163.965C238.908 163.965 240.654 164.37 242.148 165.18C243.66 165.972 244.821 167.088 245.631 168.528C246.441 169.968 246.846 171.615 246.846 173.469C246.846 175.305 246.432 176.943 245.604 178.383C244.794 179.823 243.633 180.957 242.121 181.785C240.627 182.595 238.89 183 236.91 183H229.377V163.965H236.91ZM236.505 178.329C238.053 178.329 239.268 177.906 240.15 177.06C241.032 176.214 241.473 175.017 241.473 173.469C241.473 171.903 241.032 170.697 240.15 169.851C239.268 168.987 238.053 168.555 236.505 168.555H234.669V178.329H236.505ZM257.628 168.204V171.309H263.703V175.332H257.628V178.761H264.513V183H252.336V163.965H264.513V168.204H257.628ZM279.359 183.189C277.577 183.189 275.939 182.775 274.445 181.947C272.951 181.101 271.763 179.94 270.881 178.464C270.017 176.97 269.585 175.287 269.585 173.415C269.585 171.543 270.017 169.869 270.881 168.393C271.763 166.899 272.951 165.738 274.445 164.91C275.939 164.082 277.577 163.668 279.359 163.668C281.159 163.668 282.797 164.082 284.273 164.91C285.767 165.738 286.946 166.899 287.81 168.393C288.674 169.869 289.106 171.543 289.106 173.415C289.106 175.287 288.674 176.97 287.81 178.464C286.946 179.94 285.767 181.101 284.273 181.947C282.779 182.775 281.141 183.189 279.359 183.189ZM279.359 178.275C280.709 178.275 281.771 177.834 282.545 176.952C283.337 176.07 283.733 174.891 283.733 173.415C283.733 171.903 283.337 170.715 282.545 169.851C281.771 168.969 280.709 168.528 279.359 168.528C277.991 168.528 276.92 168.969 276.146 169.851C275.372 170.715 274.985 171.903 274.985 173.415C274.985 174.909 275.372 176.097 276.146 176.979C276.92 177.843 277.991 178.275 279.359 178.275ZM301.772 183.189C299.558 183.189 297.74 182.667 296.318 181.623C294.896 180.561 294.131 179.049 294.023 177.087H299.666C299.72 177.753 299.918 178.239 300.26 178.545C300.602 178.851 301.043 179.004 301.583 179.004C302.069 179.004 302.465 178.887 302.771 178.653C303.095 178.401 303.257 178.059 303.257 177.627C303.257 177.069 302.996 176.637 302.474 176.331C301.952 176.025 301.106 175.683 299.936 175.305C298.694 174.891 297.686 174.495 296.912 174.117C296.156 173.721 295.49 173.154 294.914 172.416C294.356 171.66 294.077 170.679 294.077 169.473C294.077 168.249 294.383 167.205 294.995 166.341C295.607 165.459 296.453 164.793 297.533 164.343C298.613 163.893 299.837 163.668 301.205 163.668C303.419 163.668 305.183 164.19 306.497 165.234C307.829 166.26 308.54 167.709 308.63 169.581H302.879C302.861 169.005 302.681 168.573 302.339 168.285C302.015 167.997 301.592 167.853 301.07 167.853C300.674 167.853 300.35 167.97 300.098 168.204C299.846 168.438 299.72 168.771 299.72 169.203C299.72 169.563 299.855 169.878 300.125 170.148C300.413 170.4 300.764 170.625 301.178 170.823C301.592 171.003 302.204 171.237 303.014 171.525C304.22 171.939 305.21 172.353 305.984 172.767C306.776 173.163 307.451 173.73 308.009 174.468C308.585 175.188 308.873 176.106 308.873 177.222C308.873 178.356 308.585 179.373 308.009 180.273C307.451 181.173 306.632 181.884 305.552 182.406C304.49 182.928 303.23 183.189 301.772 183.189Z" fill="black"/>
<path d="M61.7357 100.31C61.7357 101.462 61.4657 102.515 60.9257 103.469C60.4037 104.405 59.6027 105.161 58.5227 105.737C57.4607 106.295 56.1557 106.574 54.6077 106.574H51.9887V113H46.6967V93.965H54.6077C56.1377 93.965 57.4337 94.235 58.4957 94.775C59.5757 95.315 60.3857 96.062 60.9257 97.016C61.4657 97.97 61.7357 99.068 61.7357 100.31ZM54.0947 102.362C55.5887 102.362 56.3357 101.678 56.3357 100.31C56.3357 98.924 55.5887 98.231 54.0947 98.231H51.9887V102.362H54.0947ZM76.0928 113.189C74.3108 113.189 72.6728 112.775 71.1788 111.947C69.6848 111.101 68.4968 109.94 67.6148 108.464C66.7508 106.97 66.3188 105.287 66.3188 103.415C66.3188 101.543 66.7508 99.869 67.6148 98.393C68.4968 96.899 69.6848 95.738 71.1788 94.91C72.6728 94.082 74.3108 93.668 76.0928 93.668C77.8928 93.668 79.5308 94.082 81.0068 94.91C82.5008 95.738 83.6798 96.899 84.5438 98.393C85.4078 99.869 85.8398 101.543 85.8398 103.415C85.8398 105.287 85.4078 106.97 84.5438 108.464C83.6798 109.94 82.5008 111.101 81.0068 111.947C79.5128 112.775 77.8748 113.189 76.0928 113.189ZM76.0928 108.275C77.4428 108.275 78.5048 107.834 79.2788 106.952C80.0708 106.07 80.4668 104.891 80.4668 103.415C80.4668 101.903 80.0708 100.715 79.2788 99.851C78.5048 98.969 77.4428 98.528 76.0928 98.528C74.7248 98.528 73.6538 98.969 72.8798 99.851C72.1058 100.715 71.7188 101.903 71.7188 103.415C71.7188 104.909 72.1058 106.097 72.8798 106.979C73.6538 107.843 74.7248 108.275 76.0928 108.275ZM98.8567 93.965C100.855 93.965 102.601 94.37 104.095 95.18C105.607 95.972 106.768 97.088 107.578 98.528C108.388 99.968 108.793 101.615 108.793 103.469C108.793 105.305 108.379 106.943 107.551 108.383C106.741 109.823 105.58 110.957 104.068 111.785C102.574 112.595 100.837 113 98.8567 113H91.3237V93.965H98.8567ZM98.4517 108.329C99.9997 108.329 101.215 107.906 102.097 107.06C102.979 106.214 103.42 105.017 103.42 103.469C103.42 101.903 102.979 100.697 102.097 99.851C101.215 98.987 99.9997 98.555 98.4517 98.555H96.6157V108.329H98.4517ZM113.635 103.442C113.635 101.57 114.022 99.905 114.796 98.447C115.588 96.971 116.704 95.828 118.144 95.018C119.584 94.19 121.24 93.776 123.112 93.776C125.488 93.776 127.486 94.415 129.106 95.693C130.726 96.953 131.77 98.672 132.238 100.85H126.541C126.199 100.13 125.722 99.581 125.11 99.203C124.516 98.825 123.823 98.636 123.031 98.636C121.807 98.636 120.826 99.077 120.088 99.959C119.368 100.823 119.008 101.984 119.008 103.442C119.008 104.918 119.368 106.097 120.088 106.979C120.826 107.843 121.807 108.275 123.031 108.275C123.823 108.275 124.516 108.086 125.11 107.708C125.722 107.33 126.199 106.781 126.541 106.061H132.238C131.77 108.239 130.726 109.967 129.106 111.245C127.486 112.505 125.488 113.135 123.112 113.135C121.24 113.135 119.584 112.73 118.144 111.92C116.704 111.092 115.588 109.949 114.796 108.491C114.022 107.015 113.635 105.332 113.635 103.442ZM149.891 109.895H143.141L142.115 113H136.553L143.492 93.965H149.594L156.506 113H150.917L149.891 109.895ZM148.568 105.845L146.516 99.689L144.491 105.845H148.568ZM168.518 113.189C166.304 113.189 164.486 112.667 163.064 111.623C161.642 110.561 160.877 109.049 160.769 107.087H166.412C166.466 107.753 166.664 108.239 167.006 108.545C167.348 108.851 167.789 109.004 168.329 109.004C168.815 109.004 169.211 108.887 169.517 108.653C169.841 108.401 170.003 108.059 170.003 107.627C170.003 107.069 169.742 106.637 169.22 106.331C168.698 106.025 167.852 105.683 166.682 105.305C165.44 104.891 164.432 104.495 163.658 104.117C162.902 103.721 162.236 103.154 161.66 102.416C161.102 101.66 160.823 100.679 160.823 99.473C160.823 98.249 161.129 97.205 161.741 96.341C162.353 95.459 163.199 94.793 164.279 94.343C165.359 93.893 166.583 93.668 167.951 93.668C170.165 93.668 171.929 94.19 173.243 95.234C174.575 96.26 175.286 97.709 175.376 99.581H169.625C169.607 99.005 169.427 98.573 169.085 98.285C168.761 97.997 168.338 97.853 167.816 97.853C167.42 97.853 167.096 97.97 166.844 98.204C166.592 98.438 166.466 98.771 166.466 99.203C166.466 99.563 166.601 99.878 166.871 100.148C167.159 100.4 167.51 100.625 167.924 100.823C168.338 101.003 168.95 101.237 169.76 101.525C170.966 101.939 171.956 102.353 172.73 102.767C173.522 103.163 174.197 103.73 174.755 104.468C175.331 105.188 175.619 106.106 175.619 107.222C175.619 108.356 175.331 109.373 174.755 110.273C174.197 111.173 173.378 111.884 172.298 112.406C171.236 112.928 169.976 113.189 168.518 113.189ZM195.521 93.965V98.177H190.445V113H185.153V98.177H180.131V93.965H195.521ZM207.766 113.189C205.552 113.189 203.734 112.667 202.312 111.623C200.89 110.561 200.125 109.049 200.017 107.087H205.66C205.714 107.753 205.912 108.239 206.254 108.545C206.596 108.851 207.037 109.004 207.577 109.004C208.063 109.004 208.459 108.887 208.765 108.653C209.089 108.401 209.251 108.059 209.251 107.627C209.251 107.069 208.99 106.637 208.468 106.331C207.946 106.025 207.1 105.683 205.93 105.305C204.688 104.891 203.68 104.495 202.906 104.117C202.15 103.721 201.484 103.154 200.908 102.416C200.35 101.66 200.071 100.679 200.071 99.473C200.071 98.249 200.377 97.205 200.989 96.341C201.601 95.459 202.447 94.793 203.527 94.343C204.607 93.893 205.831 93.668 207.199 93.668C209.413 93.668 211.177 94.19 212.491 95.234C213.823 96.26 214.534 97.709 214.624 99.581H208.873C208.855 99.005 208.675 98.573 208.333 98.285C208.009 97.997 207.586 97.853 207.064 97.853C206.668 97.853 206.344 97.97 206.092 98.204C205.84 98.438 205.714 98.771 205.714 99.203C205.714 99.563 205.849 99.878 206.119 100.148C206.407 100.4 206.758 100.625 207.172 100.823C207.586 101.003 208.198 101.237 209.008 101.525C210.214 101.939 211.204 102.353 211.978 102.767C212.77 103.163 213.445 103.73 214.003 104.468C214.579 105.188 214.867 106.106 214.867 107.222C214.867 108.356 214.579 109.373 214.003 110.273C213.445 111.173 212.626 111.884 211.546 112.406C210.484 112.928 209.224 113.189 207.766 113.189Z" fill="black"/>
<circle cx="338.671" cy="313.37" r="5.78475" fill="white" stroke="black" stroke-width="6"/>
<circle cx="122.289" cy="166.34" r="5.78475" fill="white" stroke="black" stroke-width="6"/>
<circle cx="54.7847" cy="330.939" r="5.78475" fill="white" stroke="black" stroke-width="6"/>
<circle cx="301.682" cy="121.955" r="5.78475" fill="white" stroke="black" stroke-width="6"/>
<circle cx="144.482" cy="25.7847" r="5.78475" fill="white" stroke="black" stroke-width="6"/>
<circle cx="367.337" cy="174.663" r="5.78475" fill="white" stroke="black" stroke-width="6"/>
<defs>
<clipPath id="clip0">
<rect width="274.639" height="274.639" fill="white" transform="translate(94.085 221.361)"/>
</clipPath>
</defs>
</svg>
