<svg width="137" height="137" viewBox="0 0 137 137" fill="none" xmlns="http://www.w3.org/2000/svg">
<path d="M122.827 101.568V129.913C122.827 133.827 125.999 136.999 129.913 136.999C133.828 136.999 137 133.827 137 129.913V101.568H122.827Z" fill="#0071BC"/>
<path d="M115.741 0C119.655 0 122.827 3.17213 122.827 7.08626V129.913C122.827 133.827 125.999 137 129.913 137H21.2581C17.3443 137 14.1719 133.828 14.1719 129.913V7.08626C14.1721 3.17213 17.3443 0 21.2581 0H115.741Z" fill="#E6E6E6"/>
<path d="M21.2579 0H115.74C119.654 0 122.827 3.17213 122.827 7.08626V18.8966H14.1719V7.08626C14.1719 3.17213 17.344 0 21.2579 0Z" fill="#0071BC"/>
<path d="M25.9834 30.707H54.3282V59.0518H25.9834V30.707Z" fill="#29ABE2"/>
<path d="M25.9824 70.8618H111.017V89.7584H25.9824V70.8618Z" fill="#29ABE2"/>
<path d="M92.1206 122.827L111.017 113.379L92.1206 103.931H0V122.827H92.1206V122.827Z" fill="#DA4836"/>
<path d="M11.8105 103.931H21.2587V122.827H11.8105V103.931Z" fill="#F8CF26"/>
<path d="M0 103.931H11.8103V122.827H0V103.931Z" fill="#FBB03B"/>
<path d="M92.1211 103.931L111.018 113.379L92.1211 122.827V103.931Z" fill="#C69C6D"/>
<path d="M21.2588 113.378H92.1208V122.827H21.2588V113.378Z" fill="#F7931E"/>
<path d="M63.7754 37.792H113.379V42.5161H63.7754V37.792Z" fill="#999999"/>
<path d="M63.7754 47.2402H113.379V51.9643H63.7754V47.2402Z" fill="#999999"/>
<path d="M63.7754 56.689H103.931V61.413H63.7754V56.689Z" fill="#999999"/>
<path d="M82.6729 28.3438H113.38V33.0678H82.6729V28.3438Z" fill="#999999"/>
<path d="M73.2236 28.3438H77.9477V33.0678H73.2236V28.3438Z" fill="#999999"/>
<path d="M21.2588 9.44798C21.2588 8.14346 22.3163 7.08594 23.6208 7.08594C24.9254 7.08594 25.9829 8.14346 25.9829 9.44798C25.9829 10.7525 24.9254 11.81 23.6208 11.81C22.3163 11.81 21.2588 10.7525 21.2588 9.44798Z" fill="#DA4836"/>
<path d="M30.7715 9.31907C30.7715 8.01455 31.829 6.95703 33.1335 6.95703C34.438 6.95703 35.4956 8.01455 35.4956 9.31907C35.4956 10.6236 34.438 11.6811 33.1335 11.6811C31.829 11.6811 30.7715 10.6236 30.7715 9.31907Z" fill="#F5DD00"/>
<path d="M40.1553 9.44798C40.1553 8.14346 41.2128 7.08594 42.5173 7.08594C43.8218 7.08594 44.8794 8.14346 44.8794 9.44798C44.8794 10.7525 43.8218 11.81 42.5173 11.81C41.2128 11.81 40.1553 10.7525 40.1553 9.44798Z" fill="#3DBF50"/>
</svg>
