<svg width="26" height="26" viewBox="0 0 26 26" fill="none" xmlns="http://www.w3.org/2000/svg">
<path d="M13.4275 7.76147C10.322 7.76147 7.81714 10.2664 7.81714 13.3718C7.81714 16.4773 10.322 18.9822 13.4275 18.9822C16.533 18.9822 19.0378 16.4773 19.0378 13.3718C19.0378 10.2664 16.533 7.76147 13.4275 7.76147ZM13.4275 17.0193C11.4207 17.0193 9.78003 15.3835 9.78003 13.3718C9.78003 11.3601 11.4158 9.72437 13.4275 9.72437C15.4392 9.72437 17.075 11.3601 17.075 13.3718C17.075 15.3835 15.4343 17.0193 13.4275 17.0193V17.0193ZM20.5759 7.53198C20.5759 8.25952 19.99 8.84058 19.2673 8.84058C18.5398 8.84058 17.9587 8.25464 17.9587 7.53198C17.9587 6.80933 18.5447 6.22339 19.2673 6.22339C19.99 6.22339 20.5759 6.80933 20.5759 7.53198ZM24.2917 8.86011C24.2087 7.10718 23.8083 5.55444 22.5242 4.27515C21.2449 2.99585 19.6921 2.59546 17.9392 2.50757C16.1326 2.40503 10.7175 2.40503 8.91089 2.50757C7.16284 2.59058 5.61011 2.99097 4.32593 4.27026C3.04175 5.54956 2.64624 7.10229 2.55835 8.85522C2.45581 10.6619 2.45581 16.0769 2.55835 17.8835C2.64136 19.6365 3.04175 21.1892 4.32593 22.4685C5.61011 23.7478 7.15796 24.1482 8.91089 24.2361C10.7175 24.3386 16.1326 24.3386 17.9392 24.2361C19.6921 24.1531 21.2449 23.7527 22.5242 22.4685C23.8035 21.1892 24.2039 19.6365 24.2917 17.8835C24.3943 16.0769 24.3943 10.6667 24.2917 8.86011V8.86011ZM21.9578 19.822C21.5769 20.7791 20.8396 21.5164 19.8777 21.9021C18.4373 22.4734 15.0193 22.3416 13.4275 22.3416C11.8357 22.3416 8.41284 22.4685 6.97729 21.9021C6.02026 21.5212 5.28296 20.7839 4.89722 19.822C4.32593 18.3816 4.45776 14.9636 4.45776 13.3718C4.45776 11.78 4.33081 8.35718 4.89722 6.92163C5.27808 5.9646 6.01538 5.22729 6.97729 4.84155C8.41772 4.27026 11.8357 4.4021 13.4275 4.4021C15.0193 4.4021 18.4421 4.27515 19.8777 4.84155C20.8347 5.22241 21.572 5.95972 21.9578 6.92163C22.5291 8.36206 22.3972 11.78 22.3972 13.3718C22.3972 14.9636 22.5291 18.3865 21.9578 19.822Z" fill="white"/>
</svg>
