<svg width="60" height="60" viewBox="0 0 60 60" fill="none" xmlns="http://www.w3.org/2000/svg">
<path d="M0.527344 29.5005C0.527344 41.5802 7.79126 51.9578 18.1856 56.5204C18.1027 54.4605 18.1709 51.9875 18.6991 49.7462C19.2663 47.3514 22.4949 33.6715 22.4949 33.6715C22.4949 33.6715 21.5525 31.7879 21.5525 29.004C21.5525 24.6323 24.0863 21.3672 27.2419 21.3672C29.9252 21.3672 31.2216 23.3827 31.2216 25.7961C31.2216 28.4935 29.5012 32.5284 28.6164 36.2654C27.8773 39.3947 30.1854 41.9472 33.2726 41.9472C38.8619 41.9472 42.6264 34.7683 42.6264 26.2626C42.6264 19.797 38.2717 14.9577 30.3512 14.9577C21.4025 14.9577 15.8277 21.6311 15.8277 29.0854C15.8277 31.6556 16.5855 33.468 17.7724 34.8715C18.3181 35.5162 18.394 35.7754 18.1965 36.5157C18.055 37.0585 17.73 38.3652 17.5954 38.8831C17.399 39.6303 16.7936 39.8974 16.1183 39.6215C11.9966 37.9388 10.077 33.4251 10.077 28.3511C10.077 19.971 17.1446 9.9226 31.1608 9.9226C42.4238 9.9226 49.8368 18.0729 49.8368 26.8217C49.8368 38.3942 43.4031 47.0398 33.9193 47.0398C30.7344 47.0398 27.7386 45.3182 26.7123 43.3627C26.7123 43.3627 24.9997 50.1597 24.6369 51.4722C24.0114 53.7467 22.7872 56.02 21.6678 57.7919C24.3821 58.5945 27.198 59.0019 30.0285 59.0016C46.319 59.0016 59.5276 45.7937 59.5276 29.5005C59.5276 13.2079 46.319 0 30.0285 0C13.7364 0 0.527344 13.2079 0.527344 29.5005Z" fill="#CB1F27"/>
</svg>
