<svg width="1440" height="570" viewBox="0 0 1440 570" fill="none" xmlns="http://www.w3.org/2000/svg">
<path d="M131 485L1498 487V570L131 557.5V485Z" fill="#C5C4B5"/>
<path d="M1326.54 419L1439 487H131L0 419H1326.54Z" fill="#ADAC9E"/>
<path d="M-0.5 552L0 419L131.5 486.5V557L-0.5 552Z" fill="#CDCCBF"/>
<path d="M490.5 10.2627C490.5 6.03315 487.906 2.23674 483.965 0.700695L483.72 0.605277C482.694 0.205263 481.602 0 480.5 0L481.764 0.703195C482.032 0.852391 482.312 0.980956 482.599 1.08778C483.935 1.58371 485.052 2.53529 485.755 3.77471L486.017 4.23728C486.228 4.60936 486.406 4.99878 486.551 5.4013L486.609 5.56171C486.978 6.591 487.167 7.67641 487.167 8.77005V421H490.5V10.2627Z" fill="#DAC400"/>
<path d="M162.5 10.405C162.5 5.66911 165.799 1.57254 170.426 0.562194L171.468 0.334625C172.473 0.115232 173.517 0.157912 174.5 0.458564L173.94 0.516081C173.315 0.580167 172.698 0.70489 172.098 0.888488L171.677 1.01699C170.573 1.35443 169.559 1.93446 168.708 2.71461L168.429 2.97066C167.817 3.53225 167.329 4.21584 166.997 4.97741C166.669 5.72786 166.5 6.53778 166.5 7.3565V415H162.5V10.405Z" fill="#DAC400"/>
<g filter="url(#filter0_b)">
<rect x="181" y="39" width="292" height="178" rx="6" fill="#FFEC3F"/>
<rect x="181" y="39" width="292" height="178" rx="6" stroke="#FFB800"/>
</g>
<g filter="url(#filter1_ii)">
<rect x="188.5" y="49" width="277" height="158" rx="6" fill="#FFE500"/>
</g>
<path d="M282.115 108.865C282.945 109.441 283.487 109.803 283.741 109.949C284.122 110.164 284.635 110.413 285.279 110.696L283.434 114.417C282.506 113.968 281.588 113.431 280.68 112.806C279.771 112.19 279.137 111.727 278.775 111.414C277.311 112.049 275.475 112.366 273.268 112.366C270.006 112.366 267.433 111.517 265.548 109.817C263.321 107.806 262.208 104.979 262.208 101.336C262.208 97.8008 263.18 95.0566 265.123 93.1035C267.076 91.1406 269.801 90.1592 273.297 90.1592C276.861 90.1592 279.61 91.1162 281.544 93.0303C283.487 94.9443 284.459 97.6836 284.459 101.248C284.459 104.422 283.678 106.961 282.115 108.865ZM277.032 105.467C277.56 104.52 277.823 103.104 277.823 101.219C277.823 99.0508 277.418 97.5029 276.607 96.5752C275.807 95.6475 274.698 95.1836 273.282 95.1836C271.964 95.1836 270.895 95.6572 270.074 96.6045C269.254 97.5518 268.844 99.0312 268.844 101.043C268.844 103.387 269.244 105.032 270.045 105.979C270.846 106.927 271.944 107.4 273.341 107.4C273.79 107.4 274.215 107.356 274.615 107.269C274.059 106.731 273.18 106.224 271.979 105.745L273.019 103.357C273.604 103.465 274.059 103.597 274.381 103.753C274.713 103.909 275.353 104.319 276.3 104.983C276.524 105.14 276.769 105.301 277.032 105.467ZM303.358 90.5254H309.979V103.328C309.979 104.598 309.779 105.799 309.378 106.932C308.988 108.055 308.368 109.041 307.518 109.891C306.678 110.73 305.794 111.321 304.867 111.663C303.578 112.142 302.03 112.381 300.223 112.381C299.178 112.381 298.036 112.308 296.795 112.161C295.565 112.015 294.535 111.727 293.704 111.297C292.874 110.857 292.113 110.237 291.419 109.437C290.736 108.636 290.267 107.811 290.013 106.961C289.603 105.594 289.398 104.383 289.398 103.328V90.5254H296.019V103.636C296.019 104.808 296.341 105.726 296.986 106.39C297.64 107.044 298.543 107.371 299.696 107.371C300.838 107.371 301.732 107.049 302.376 106.404C303.031 105.75 303.358 104.827 303.358 103.636V90.5254ZM314.888 101.277C314.888 97.7715 315.865 95.042 317.818 93.0889C319.771 91.1357 322.491 90.1592 325.977 90.1592C329.552 90.1592 332.305 91.1211 334.239 93.0449C336.173 94.959 337.139 97.6445 337.139 101.102C337.139 103.611 336.715 105.672 335.865 107.283C335.025 108.885 333.804 110.135 332.203 111.033C330.611 111.922 328.624 112.366 326.241 112.366C323.819 112.366 321.812 111.98 320.221 111.209C318.638 110.438 317.354 109.217 316.368 107.547C315.382 105.877 314.888 103.787 314.888 101.277ZM321.524 101.307C321.524 103.475 321.925 105.032 322.725 105.979C323.536 106.927 324.635 107.4 326.021 107.4C327.447 107.4 328.551 106.937 329.332 106.009C330.113 105.081 330.504 103.416 330.504 101.014C330.504 98.9922 330.094 97.5176 329.273 96.5898C328.463 95.6523 327.359 95.1836 325.963 95.1836C324.625 95.1836 323.551 95.6572 322.74 96.6045C321.929 97.5518 321.524 99.1191 321.524 101.307ZM339.764 90.5254H359.935V95.8281H353.167V112H346.531V95.8281H339.764V90.5254ZM364.288 90.5254H382.071V95.1104H370.938V98.5234H381.265V102.903H370.938V107.137H382.393V112H364.288V90.5254ZM252.026 152.896L258.34 152.5C258.476 153.525 258.755 154.307 259.175 154.844C259.858 155.713 260.835 156.147 262.104 156.147C263.052 156.147 263.779 155.928 264.287 155.488C264.804 155.039 265.063 154.521 265.063 153.936C265.063 153.379 264.819 152.881 264.331 152.441C263.843 152.002 262.71 151.587 260.932 151.196C258.022 150.542 255.947 149.673 254.707 148.589C253.457 147.505 252.832 146.123 252.832 144.443C252.832 143.34 253.149 142.3 253.784 141.323C254.429 140.337 255.39 139.565 256.67 139.009C257.959 138.442 259.721 138.159 261.958 138.159C264.702 138.159 266.792 138.672 268.227 139.697C269.673 140.713 270.532 142.334 270.805 144.561L264.551 144.927C264.385 143.96 264.033 143.257 263.496 142.817C262.969 142.378 262.236 142.158 261.299 142.158C260.527 142.158 259.946 142.324 259.555 142.656C259.165 142.979 258.97 143.374 258.97 143.843C258.97 144.185 259.131 144.492 259.453 144.766C259.765 145.049 260.508 145.312 261.679 145.557C264.58 146.182 266.655 146.816 267.905 147.461C269.165 148.096 270.078 148.887 270.644 149.834C271.221 150.781 271.509 151.841 271.509 153.013C271.509 154.39 271.128 155.659 270.366 156.821C269.604 157.983 268.54 158.867 267.173 159.473C265.805 160.068 264.082 160.366 262.002 160.366C258.349 160.366 255.82 159.663 254.414 158.257C253.008 156.851 252.212 155.063 252.026 152.896ZM274.704 138.525H294.875V143.828H288.108V160H281.472V143.828H274.704V138.525ZM310.405 156.455H302.846L301.806 160H295.024L303.095 138.525H310.332L318.403 160H311.46L310.405 156.455ZM309.013 151.812L306.64 144.092L304.282 151.812H309.013ZM318.303 138.525H338.474V143.828H331.706V160H325.07V143.828H318.303V138.525ZM343.105 138.525H349.755V160H343.105V138.525ZM355.046 149.277C355.046 145.771 356.022 143.042 357.975 141.089C359.929 139.136 362.648 138.159 366.135 138.159C369.709 138.159 372.463 139.121 374.396 141.045C376.33 142.959 377.297 145.645 377.297 149.102C377.297 151.611 376.872 153.672 376.022 155.283C375.182 156.885 373.962 158.135 372.36 159.033C370.768 159.922 368.781 160.366 366.398 160.366C363.976 160.366 361.97 159.98 360.378 159.209C358.796 158.438 357.512 157.217 356.525 155.547C355.539 153.877 355.046 151.787 355.046 149.277ZM361.681 149.307C361.681 151.475 362.082 153.032 362.883 153.979C363.693 154.927 364.792 155.4 366.179 155.4C367.604 155.4 368.708 154.937 369.489 154.009C370.27 153.081 370.661 151.416 370.661 149.014C370.661 146.992 370.251 145.518 369.43 144.59C368.62 143.652 367.516 143.184 366.12 143.184C364.782 143.184 363.708 143.657 362.897 144.604C362.087 145.552 361.681 147.119 361.681 149.307ZM382.265 138.525H388.461L396.547 150.405V138.525H402.802V160H396.547L388.505 148.208V160H382.265V138.525Z" fill="black"/>
<path d="M166.5 7.49999C166.5 3.35785 169.858 0 174 0C178.143 0 181.5 3.35786 181.5 7.5V433H166.5V7.49999Z" fill="#F5DD00"/>
<path d="M472.5 7.49999C472.5 3.35785 475.858 0 480 0C484.143 0 487.5 3.35786 487.5 7.5V433H472.5V7.49999Z" fill="#F5DD00"/>
<path d="M142.993 419.513L131.935 441.63C131.425 442.649 131.869 443.887 132.909 444.351L172.5 462L211.727 444.3C212.714 443.855 213.167 442.705 212.75 441.705L203.146 418.741C202.407 416.972 201.057 415.529 199.343 414.672L187.683 408.842C185.919 407.959 183.973 407.5 182 407.5V413.5H168L163 413V407.5C161.04 407.5 159.118 408.051 157.456 409.09L145.909 416.307C144.66 417.087 143.652 418.197 142.993 419.513Z" fill="#C4C4C4"/>
<path d="M143.378 418.744L132.08 441.34C131.715 442.07 131.715 442.93 132.08 443.66C132.351 444.203 132.804 444.633 133.36 444.876L172.5 462L167.078 414.189C167.031 413.775 166.732 413.433 166.327 413.332L163.757 412.689C163.312 412.578 163 412.178 163 411.719V408.5C163 407.948 162.552 407.5 162 407.5H160.795C160.603 407.5 160.414 407.556 160.252 407.66L143.729 418.352C143.579 418.449 143.458 418.584 143.378 418.744Z" fill="#A6A6A6"/>
<path d="M448.494 431.013L437.434 453.132C436.925 454.15 437.368 455.388 438.407 455.852L479 474L517.278 455.818C518.242 455.36 518.677 454.225 518.265 453.24L508.647 430.241C507.907 428.472 506.558 427.029 504.844 426.172L493.184 420.342C491.419 419.459 489.473 419 487.5 419V421.5V423C487.5 424.105 486.605 425 485.5 425H473.5L468.5 424.5V419C466.54 419 464.619 419.551 462.956 420.59L451.409 427.807C450.161 428.587 449.152 429.697 448.494 431.013Z" fill="#C4C4C4"/>
<path d="M471.5 419H468.5C466.856 419 465.235 419.383 463.764 420.118L456.081 423.96C456.027 423.987 455.976 424.018 455.928 424.054L450.164 428.378C450.056 428.458 449.966 428.56 449.898 428.677L444.5 438L437.544 452.84C437.201 453.573 437.211 454.422 437.573 455.145C437.849 455.698 438.31 456.136 438.875 456.384L479 474L472.5 425V420C472.5 419.448 472.053 419 471.5 419Z" fill="#A6A6A6"/>
<defs>
<filter id="filter0_b" x="101" y="-41" width="452" height="338" filterUnits="userSpaceOnUse" color-interpolation-filters="sRGB">
<feFlood flood-opacity="0" result="BackgroundImageFix"/>
<feGaussianBlur in="BackgroundImage" stdDeviation="40"/>
<feComposite in2="SourceAlpha" operator="in" result="effect1_backgroundBlur"/>
<feBlend mode="normal" in="SourceGraphic" in2="effect1_backgroundBlur" result="shape"/>
</filter>
<filter id="filter1_ii" x="186.5" y="47" width="281" height="162" filterUnits="userSpaceOnUse" color-interpolation-filters="sRGB">
<feFlood flood-opacity="0" result="BackgroundImageFix"/>
<feBlend mode="normal" in="SourceGraphic" in2="BackgroundImageFix" result="shape"/>
<feColorMatrix in="SourceAlpha" type="matrix" values="0 0 0 0 0 0 0 0 0 0 0 0 0 0 0 0 0 0 127 0" result="hardAlpha"/>
<feOffset dx="-4" dy="4"/>
<feGaussianBlur stdDeviation="1"/>
<feComposite in2="hardAlpha" operator="arithmetic" k2="-1" k3="1"/>
<feColorMatrix type="matrix" values="0 0 0 0 0 0 0 0 0 0 0 0 0 0 0 0 0 0 0.1 0"/>
<feBlend mode="normal" in2="shape" result="effect1_innerShadow"/>
<feColorMatrix in="SourceAlpha" type="matrix" values="0 0 0 0 0 0 0 0 0 0 0 0 0 0 0 0 0 0 127 0" result="hardAlpha"/>
<feOffset dx="4" dy="-4"/>
<feGaussianBlur stdDeviation="1"/>
<feComposite in2="hardAlpha" operator="arithmetic" k2="-1" k3="1"/>
<feColorMatrix type="matrix" values="0 0 0 0 0 0 0 0 0 0 0 0 0 0 0 0 0 0 0.1 0"/>
<feBlend mode="normal" in2="effect1_innerShadow" result="effect2_innerShadow"/>
</filter>
</defs>
</svg>
