<svg width="1224" height="402" viewBox="0 0 1224 402" fill="none" xmlns="http://www.w3.org/2000/svg">
<path d="M33.0821 365.549L1 383.209V320.064L32.9528 344.756L33.2089 344.953L33.5323 344.964L131.508 348.098V372.792L103.371 373.862V366.425V365.425H102.371H33.5643H33.3072L33.0821 365.549Z" fill="#494949" stroke="#BEBEBE" stroke-width="2"/>
<path d="M1190.45 366.787L1222.53 384.447V321.303L1190.58 345.994L1190.31 346.203H1189.97H1090.99L1096.57 375.139H1120.16V367.663V366.663H1121.16H1189.97H1190.22L1190.45 366.787Z" fill="#494949" stroke="#BEBEBE" stroke-width="2"/>
<rect x="482.483" y="312.574" width="261.062" height="51.774" fill="#5F5F5F" stroke="black"/>
<rect x="79.8914" y="245.295" width="5.36913" height="5.36912" fill="black"/>
<path d="M1107.42 346.808H722.003V339.436C722.003 326.457 711.481 315.936 698.503 315.936H548.348H513.526C500.443 315.936 489.669 326.214 489.053 339.282L488.698 346.808H284.418V124.989H989.459V226.503V227.003H989.959H1106.42C1107.8 227.003 1108.92 228.122 1108.92 229.503V345.308C1108.92 346.136 1108.25 346.808 1107.42 346.808Z" fill="#AF0020" stroke="black"/>
<path d="M115.999 124.989H288.787V325.516C288.787 326.897 287.668 328.016 286.287 328.016H115.999C105.229 328.016 96.4986 319.286 96.4986 308.516V144.489C96.4986 133.72 105.229 124.989 115.999 124.989Z" fill="#4D4D4D" stroke="black"/>
<path d="M125.529 113.252H125.072L125.031 113.706L123.688 128.471L123.626 129.159L124.299 129.004L141.748 124.977L142.136 124.888V124.49V113.752V113.252H141.636H125.529Z" fill="#5F5F5F" stroke="black"/>
<path d="M1113.82 294.998H1126.18C1127.01 294.998 1127.68 295.67 1127.68 296.498V324.696C1127.68 325.525 1127.01 326.196 1126.18 326.196H1113.82V294.998Z" fill="#5F5F5F" stroke="black"/>
<rect x="1109.11" y="298.952" width="4.71517" height="22.0526" fill="#AF0020" stroke="black"/>
<path d="M178.166 111.567H276.918C280.508 111.567 283.418 114.477 283.418 118.067V126.674H171.666V118.067C171.666 114.477 174.576 111.567 178.166 111.567Z" fill="#9F1414" stroke="black"/>
<rect x="261.941" y="105.198" width="9.05369" height="25.1611" rx="4.52685" fill="#9F1414" stroke="black"/>
<path d="M198.012 11.7379L173.867 115.456C173.741 115.996 173.2 116.331 172.661 116.202L150.891 110.997L136.267 11.7379H198.012Z" fill="#5F5F5F" stroke="black"/>
<path d="M183.247 113.48V124.49H146.644C143.179 124.49 139.943 122.761 138.018 119.881L137.893 119.695C136.833 118.109 136.267 116.244 136.267 114.337V113.047C136.267 111.13 137.082 109.303 138.509 108.023C140.134 106.564 142.365 105.982 144.496 106.46L166.871 111.48H181.247C182.352 111.48 183.247 112.376 183.247 113.48Z" fill="#5F5F5F" stroke="black"/>
<path d="M200.696 0.5H136.267C133.025 0.5 130.398 3.1277 130.398 6.36912C130.398 9.61055 133.025 12.2382 136.267 12.2382H200.696C203.938 12.2382 206.566 9.61055 206.566 6.36912C206.566 3.12769 203.938 0.5 200.696 0.5Z" fill="#5F5F5F" stroke="black"/>
<path d="M117.975 194.788H133.952C136.437 194.788 138.452 196.803 138.452 199.288V325.191L125.631 321.986C121.132 320.861 117.975 316.818 117.975 312.18V194.788Z" fill="#393939" stroke="black"/>
<path d="M72.3373 68.614H131.582C132.411 68.614 133.082 69.2856 133.082 70.114V103.698C133.082 104.526 132.411 105.198 131.582 105.198H72.3373V68.614Z" fill="#949494" stroke="black"/>
<path d="M86.5758 165.259H95.6832C97.0639 165.259 98.1832 166.378 98.1832 167.759V207.712C98.1832 211.884 94.8013 215.265 90.6295 215.265C86.4577 215.265 83.0758 211.884 83.0758 207.712V168.759C83.0758 166.826 84.6428 165.259 86.5758 165.259Z" fill="#5F5F5F" stroke="black"/>
<path d="M83.0758 184.05H149.744C153.881 184.05 157.244 187.457 157.244 191.603C157.244 195.75 153.881 199.157 149.744 199.157H83.0758V184.05Z" fill="#5F5F5F" stroke="black"/>
<ellipse cx="112.106" cy="97.6448" rx="5.36913" ry="5.36912" fill="black"/>
<ellipse cx="128.885" cy="208.383" rx="3.35571" ry="3.3557" fill="black"/>
<ellipse cx="128.885" cy="224.49" rx="3.35571" ry="3.3557" fill="black"/>
<ellipse cx="128.885" cy="240.597" rx="3.35571" ry="3.3557" fill="black"/>
<ellipse cx="128.885" cy="256.704" rx="3.35571" ry="3.3557" fill="black"/>
<ellipse cx="128.885" cy="272.812" rx="3.35571" ry="3.3557" fill="black"/>
<ellipse cx="128.885" cy="288.919" rx="3.35571" ry="3.3557" fill="black"/>
<ellipse cx="128.885" cy="305.027" rx="3.35571" ry="3.3557" fill="black"/>
<path d="M88.2604 235.057H98.1832V279.695H88.2604C86.8797 279.695 85.7604 278.576 85.7604 277.195V237.557C85.7604 236.177 86.8797 235.057 88.2604 235.057Z" fill="#5F5F5F" stroke="black"/>
<rect x="71.8373" y="237.241" width="8.05369" height="21.4765" rx="4.02685" fill="#FFB800" stroke="black"/>
<rect x="72.3373" y="60.5603" width="12.4228" height="52.6912" rx="6.21141" fill="#949494" stroke="black"/>
<rect x="601.197" y="124.989" width="141.282" height="79.5369" fill="#AF0020" stroke="black"/>
<path d="M127.713 97.6438V185.734H96.4986V97.6438C96.4986 89.024 103.486 82.0364 112.106 82.0364C120.726 82.0364 127.713 89.024 127.713 97.6438Z" fill="#393939" stroke="black"/>
<path d="M114.791 68.6142H115.291V68.1142V62.0605C115.291 60.6798 114.171 59.5605 112.791 59.5605H108.737C107.356 59.5605 106.237 60.6798 106.237 62.0605V68.1142V68.6142H106.737H114.791Z" fill="#9F1414" stroke="black"/>
<path d="M138.711 204.096V201.004C138.711 200.302 139.249 199.716 139.949 199.657H147.357C147.984 199.657 148.577 199.94 148.972 200.426C149.274 200.797 149.438 201.261 149.438 201.739V282.341C149.438 283.564 149.818 284.757 150.525 285.755C151.633 287.319 153.429 288.248 155.345 288.248H172.509C174.733 288.248 176.536 290.051 176.536 292.275C176.536 294.499 174.733 296.302 172.509 296.302H152.291H145.998C143.678 296.302 141.497 295.197 140.124 293.327C139.206 292.077 138.711 290.566 138.711 289.015V204.096Z" fill="#5F5F5F" stroke="black"/>
<rect x="174.351" y="275.325" width="41.953" height="71.4832" rx="0.5" fill="#AF0020" stroke="black"/>
<path d="M227.042 176.839C227.042 186.2 219.454 193.788 210.093 193.788C200.732 193.788 193.143 186.2 193.143 176.839C193.143 167.478 200.732 159.889 210.093 159.889C219.454 159.889 227.042 167.478 227.042 176.839Z" fill="#5F5F5F" stroke="black"/>
<path d="M275.364 227.845C275.364 237.206 267.776 244.795 258.415 244.795C249.054 244.795 241.465 237.206 241.465 227.845C241.465 218.484 249.054 210.895 258.415 210.895C267.776 210.895 275.364 218.484 275.364 227.845Z" fill="#5F5F5F" stroke="black"/>
<path d="M215.462 170.627H602.882V183.05H215.462C212.031 183.05 209.25 180.269 209.25 176.839C209.25 173.408 212.031 170.627 215.462 170.627Z" fill="#5F5F5F" stroke="black"/>
<path d="M272.617 202.842H742.479V215.264L267.624 213.945C263.055 213.933 259.58 218.045 260.354 222.548L260.81 225.2C261.123 227.023 259.72 228.688 257.87 228.688C256.223 228.688 254.888 227.353 254.888 225.706V220.571C254.888 210.78 262.825 202.842 272.617 202.842Z" fill="#5F5F5F" stroke="black"/>
<path d="M381.22 197.473H400.039C400.868 197.473 401.539 198.144 401.539 198.973V346.808H389.116V236.57C389.116 233.699 386.789 231.372 383.918 231.372C381.6 231.372 379.72 229.492 379.72 227.174V198.973C379.72 198.144 380.392 197.473 381.22 197.473Z" fill="#5F5F5F" stroke="black"/>
<path d="M401.539 235.899C401.539 242.294 396.354 247.479 389.958 247.479C383.562 247.479 378.378 242.294 378.378 235.899C378.378 229.503 383.562 224.318 389.958 224.318C396.354 224.318 401.539 229.503 401.539 235.899Z" fill="#5F5F5F" stroke="black"/>
<rect x="386.432" y="337.07" width="15.1074" height="9.73825" fill="#5F5F5F" stroke="black"/>
<path d="M330.214 295.459H361.271V346.808H316.633V314.409C316.633 313.58 317.305 312.909 318.133 312.909H328.214H328.714V312.409V296.959C328.714 296.131 329.385 295.459 330.214 295.459Z" fill="#4C4C4C" stroke="black"/>
<rect x="330.056" y="310.224" width="25.8457" height="9.73825" rx="4.86912" fill="#FFB800" stroke="black"/>
<path d="M366.64 301.671C366.64 307.326 362.056 311.909 356.401 311.909C350.747 311.909 346.163 307.326 346.163 301.671C346.163 296.017 350.747 291.433 356.401 291.433C362.056 291.433 366.64 296.017 366.64 301.671Z" fill="#FFB800" stroke="black"/>
<path d="M326.871 334.886C326.871 334.334 327.319 333.886 327.871 333.886H333.925C334.477 333.886 334.925 334.334 334.925 334.886V345.967H326.871V334.886Z" fill="#5F5F5F" stroke="black"/>
<path d="M342.979 334.886C342.979 334.334 343.426 333.886 343.979 333.886H350.032C350.585 333.886 351.032 334.334 351.032 334.886V345.967H342.979V334.886Z" fill="#5F5F5F" stroke="black"/>
<path d="M487.26 192.104H512.791C513.619 192.104 514.291 192.776 514.291 193.604V213.923H485.76V193.604C485.76 192.776 486.432 192.104 487.26 192.104Z" fill="#5F5F5F" stroke="black"/>
<path d="M343.223 127.331L341.834 129.803C341.117 131.079 342 132.671 343.46 132.777C451.637 140.686 510.779 136.121 620.754 129.844C622.106 129.767 623.022 128.395 622.538 127.131L613.347 103.09C612.083 99.7831 611.435 96.2732 611.435 92.7334V75.7985C611.435 73.037 609.196 70.7985 606.435 70.7985H357.374C354.613 70.7985 352.374 73.037 352.374 75.7985V98.59C352.374 102.057 351.753 105.497 350.539 108.744L345.105 123.279C344.583 124.676 343.954 126.031 343.223 127.331Z" fill="#AF0020" stroke="black"/>
<path d="M361.76 68.6138H601.804C609.813 68.6138 616.304 75.1056 616.304 83.1138V83.7211H347.26V83.1138C347.26 75.1056 353.752 68.6138 361.76 68.6138Z" fill="#9F1414" stroke="black"/>
<path d="M346.377 94.2746L347.514 93.8956C348.065 93.7121 348.645 93.6328 349.225 93.6618L372.196 94.8103C373.608 94.881 374.484 96.3794 373.851 97.6448C373.028 99.29 371.347 100.329 369.507 100.329H347.835C347.289 100.329 346.751 100.202 346.263 99.9583L345.983 99.8184C344.964 99.3089 344.321 98.2674 344.321 97.1281C344.321 95.8335 345.149 94.6841 346.377 94.2746Z" fill="#AF0020" stroke="black"/>
<path d="M407.408 82.8788V129.859" stroke="black"/>
<path d="M552.375 84.2212V128.516" stroke="black"/>
<rect x="415.962" y="92.7756" width="12.4228" height="20.4765" rx="0.5" fill="#FFB800" stroke="black"/>
<path d="M487.945 124.99C494.152 124.99 499.183 119.959 499.183 113.752C499.183 107.545 494.152 102.514 487.945 102.514C481.738 102.514 476.707 107.545 476.707 113.752C476.707 119.959 481.738 124.99 487.945 124.99Z" fill="#DE032B" stroke="black"/>
<path d="M584.589 119.621C590.796 119.621 595.828 114.589 595.828 108.382C595.828 102.176 590.796 97.144 584.589 97.144C578.383 97.144 573.351 102.176 573.351 108.382C573.351 114.589 578.383 119.621 584.589 119.621Z" fill="#DE032B" stroke="black"/>
<path d="M495.499 116.436C495.499 120.607 492.117 123.989 487.945 123.989C483.773 123.989 480.391 120.607 480.391 116.436C480.391 112.264 483.773 108.882 487.945 108.882C492.117 108.882 495.499 112.264 495.499 116.436Z" fill="#5F5F5F" stroke="black"/>
<path d="M592.143 111.067C592.143 115.239 588.761 118.621 584.59 118.621C580.418 118.621 577.036 115.239 577.036 111.067C577.036 106.895 580.418 103.514 584.59 103.514C588.761 103.514 592.143 106.895 592.143 111.067Z" fill="#5F5F5F" stroke="black"/>
<path d="M428.487 202.039L427.875 202.842H428.885H435.049H435.294L435.444 202.649C458.565 172.831 470.514 155.039 489.268 121.522C489.647 120.844 489.452 119.972 488.796 119.534L487.328 118.556L487.051 118.972L487.328 118.556C486.116 117.748 484.475 118.153 483.759 119.412C465.76 151.074 453.315 169.48 428.487 202.039Z" fill="#4C4C4C" stroke="black"/>
<path d="M573.851 156.705L572.583 149.095C571.654 143.524 572.171 137.807 574.085 132.492L577.207 123.819L580.641 114.281C581.498 111.899 584.88 111.939 585.68 114.341C585.844 114.832 585.861 115.361 585.729 115.863L580.307 136.469C579.585 139.21 579.22 142.033 579.22 144.867V149.563C579.22 151.635 579.415 153.703 579.803 155.738L583.276 173.968C584.142 178.516 584.041 183.195 582.981 187.701L579.22 203.685H568.482L572.369 195.912C575.093 190.462 576.256 184.365 575.729 178.295L573.851 156.705Z" fill="#5F5F5F" stroke="black"/>
<path d="M742.979 170.127L644.825 168.889C639.518 168.822 634.455 166.649 630.751 162.847L608.444 139.949L588.425 113.981C587.205 112.399 584.906 112.167 583.395 113.473L581.744 114.706C580.37 115.73 580.132 117.695 581.222 119.018L625.17 172.354C628.916 176.9 634.475 179.564 640.365 179.634L742.979 180.865V170.127Z" fill="#5F5F5F" stroke="black"/>
<path d="M736.754 133.833L741.636 135.228V109.724H728.134C727.489 109.724 727.013 110.326 727.16 110.953L731.165 127.973C731.829 130.795 733.967 133.037 736.754 133.833Z" fill="#AF0020" stroke="black"/>
<path d="M616.804 112.409H728.214" stroke="black"/>
<rect x="708.079" y="86.906" width="8.05369" height="45.6376" rx="4.02685" fill="#5F5F5F" stroke="black"/>
<path d="M700.026 98.644C700.026 98.0918 700.474 97.644 701.026 97.644H723.187C723.739 97.644 724.187 98.0918 724.187 98.644V103.698C724.187 104.802 723.292 105.698 722.187 105.698H702.026C700.921 105.698 700.026 104.802 700.026 103.698V98.644Z" fill="#8A8A8A" stroke="black"/>
<path d="M723.687 85.5637V91.7751H700.526V85.5637C700.526 79.1679 705.711 73.9832 712.106 73.9832C718.502 73.9832 723.687 79.1679 723.687 85.5637Z" fill="#8A8A8A" stroke="black"/>
<rect x="740.794" y="39.0835" width="248.665" height="176.181" fill="#AF0020" stroke="black"/>
<path d="M712.106 74.8252V70.7983V68.1138" stroke="black"/>
<path d="M706.737 68.1138H717.256C719.172 68.1138 721.068 68.5029 722.829 69.2576V69.2576C727.048 71.0658 730.128 74.8085 731.09 79.2968L732.905 87.7696C733.352 89.8534 734.245 91.8155 735.524 93.5203L736.709 95.1011C737.302 95.8906 738.069 96.5314 738.952 96.9728V96.9728C739.835 97.4142 740.808 97.644 741.795 97.644H742.979" stroke="black"/>
<path d="M636.596 200.157H656.073C656.349 200.157 656.573 200.381 656.573 200.657V215.265H636.096V200.657C636.096 200.381 636.32 200.157 636.596 200.157Z" fill="#5F5F5F" stroke="black"/>
<path d="M989.485 69.8497H988.985V70.3497V128.554V129.054H989.485H1000.63H1001.13V128.554V72.3497C1001.13 70.969 1000.01 69.8497 998.63 69.8497H989.485Z" fill="#AF0020" stroke="black"/>
<path d="M1094.66 130.359H1094.16V129.859V75.4832C1094.16 74.1024 1095.28 72.9832 1096.66 72.9832H1103.4C1104.78 72.9832 1105.9 74.1024 1105.9 75.4832V129.859V130.359H1105.4H1094.66Z" fill="#AF0020" stroke="black"/>
<path d="M664.626 163.416C664.626 168.329 660.643 172.312 655.73 172.312C650.817 172.312 646.834 168.329 646.834 163.416C646.834 158.503 650.817 154.52 655.73 154.52C660.643 154.52 664.626 158.503 664.626 163.416Z" fill="#AF0020" stroke="black"/>
<path d="M729.056 160.732C729.056 167.128 723.871 172.312 717.475 172.312C711.079 172.312 705.895 167.128 705.895 160.732C705.895 154.336 711.079 149.151 717.475 149.151C723.871 149.151 729.056 154.336 729.056 160.732Z" fill="#AF0020" stroke="black"/>
<path d="M654.388 151.335V156.704H657.073V151.335" stroke="black"/>
<path d="M828.885 139.688V213.081H879.891V120.121C879.891 119.569 879.444 119.121 878.891 119.121H850.022C847.29 119.121 844.584 119.642 842.047 120.656L841.669 120.808C837.327 122.544 833.717 125.723 831.445 129.81C829.766 132.831 828.885 136.231 828.885 139.688Z" fill="#DE032B" stroke="black"/>
<path d="M716.133 145.967V154.02H718.818V145.967" stroke="black"/>
<rect x="738.11" y="52.5062" width="254.034" height="20.4765" rx="0.5" fill="#9F1414" stroke="black"/>
<path d="M736.925 14.9227H993.328C994.156 14.9227 994.828 15.5943 994.828 16.4227V38.0838H735.425V16.4227C735.425 15.5943 736.096 14.9227 736.925 14.9227Z" fill="#5F5F5F" stroke="black"/>
<rect x="751.533" y="4.18494" width="12.4228" height="17.7919" rx="6.21141" fill="#949494" stroke="black"/>
<rect x="966.298" y="4.18494" width="12.4228" height="17.7919" rx="6.21141" fill="#949494" stroke="black"/>
<path d="M764.455 35.8999H812.777V44.6382C812.777 45.7427 811.882 46.6382 810.777 46.6382H766.455C765.351 46.6382 764.455 45.7427 764.455 44.6382V35.8999Z" fill="black"/>
<path d="M836.938 35.8999H885.261V44.6382C885.261 45.7427 884.365 46.6382 883.261 46.6382H838.938C837.834 46.6382 836.938 45.7427 836.938 44.6382V35.8999Z" fill="black"/>
<path d="M909.422 35.8999H957.744V44.6382C957.744 45.7427 956.848 46.6382 955.744 46.6382H911.422C910.317 46.6382 909.422 45.7427 909.422 44.6382V35.8999Z" fill="black"/>
<rect x="767.64" y="114.252" width="52.6913" height="74.1677" rx="2.5" fill="#A0ABAD" stroke="black"/>
<rect x="840.123" y="138.412" width="31.2148" height="44.6376" rx="2.5" fill="#A0ABAD" stroke="black"/>
<ellipse cx="815.462" cy="81.5373" rx="2.68457" ry="2.68456" fill="black"/>
<ellipse cx="879.891" cy="81.5373" rx="2.68457" ry="2.68456" fill="black"/>
<ellipse cx="850.361" cy="81.5373" rx="2.68457" ry="2.68456" fill="black"/>
<ellipse cx="979.221" cy="81.5373" rx="2.68457" ry="2.68456" fill="black"/>
<ellipse cx="979.221" cy="105.698" rx="2.68457" ry="2.68456" fill="black"/>
<ellipse cx="979.221" cy="127.175" rx="2.68457" ry="2.68456" fill="black"/>
<ellipse cx="979.221" cy="154.021" rx="2.68457" ry="2.68456" fill="black"/>
<ellipse cx="979.221" cy="178.182" rx="2.68457" ry="2.68456" fill="black"/>
<ellipse cx="979.221" cy="202.343" rx="2.68457" ry="2.68456" fill="black"/>
<ellipse cx="871.838" cy="223.819" rx="2.68457" ry="2.68456" fill="black"/>
<ellipse cx="871.838" cy="247.98" rx="2.68457" ry="2.68456" fill="black"/>
<ellipse cx="871.838" cy="266.772" rx="2.68457" ry="2.68456" fill="black"/>
<ellipse cx="871.838" cy="290.933" rx="2.68457" ry="2.68456" fill="black"/>
<ellipse cx="871.838" cy="315.094" rx="2.68457" ry="2.68456" fill="black"/>
<ellipse cx="871.838" cy="336.571" rx="2.68457" ry="2.68456" fill="black"/>
<ellipse cx="738.142" cy="226.515" rx="2.68457" ry="2.68456" transform="rotate(0.264486 738.142 226.515)" fill="black"/>
<ellipse cx="738.044" cy="247.991" rx="2.68457" ry="2.68456" transform="rotate(0.264486 738.044 247.991)" fill="black"/>
<ellipse cx="737.944" cy="269.468" rx="2.68457" ry="2.68456" transform="rotate(0.264486 737.944 269.468)" fill="black"/>
<ellipse cx="737.833" cy="293.628" rx="2.68457" ry="2.68456" transform="rotate(0.264486 737.833 293.628)" fill="black"/>
<ellipse cx="737.721" cy="317.788" rx="2.68457" ry="2.68456" transform="rotate(0.264486 737.721 317.788)" fill="black"/>
<ellipse cx="737.622" cy="339.264" rx="2.68457" ry="2.68456" transform="rotate(0.264486 737.622 339.264)" fill="black"/>
<ellipse cx="410.105" cy="226.515" rx="2.68457" ry="2.68456" transform="rotate(0.264486 410.105 226.515)" fill="black"/>
<ellipse cx="410.527" cy="245.306" rx="2.68457" ry="2.68456" transform="rotate(0.264486 410.527 245.306)" fill="black"/>
<ellipse cx="410.427" cy="266.782" rx="2.68457" ry="2.68456" transform="rotate(0.264486 410.427 266.782)" fill="black"/>
<ellipse cx="410.316" cy="290.943" rx="2.68457" ry="2.68456" transform="rotate(0.264486 410.316 290.943)" fill="black"/>
<ellipse cx="410.204" cy="315.105" rx="2.68457" ry="2.68456" transform="rotate(0.264486 410.204 315.105)" fill="black"/>
<ellipse cx="410.105" cy="336.581" rx="2.68457" ry="2.68456" transform="rotate(0.264486 410.105 336.581)" fill="black"/>
<ellipse cx="479.904" cy="226.515" rx="2.68457" ry="2.68456" transform="rotate(0.264486 479.904 226.515)" fill="black"/>
<ellipse cx="479.903" cy="245.307" rx="2.68457" ry="2.68456" transform="rotate(0.264486 479.903 245.307)" fill="black"/>
<ellipse cx="479.904" cy="266.783" rx="2.68457" ry="2.68456" transform="rotate(0.264486 479.904 266.783)" fill="black"/>
<ellipse cx="479.903" cy="290.944" rx="2.68457" ry="2.68456" transform="rotate(0.264486 479.903 290.944)" fill="black"/>
<ellipse cx="479.903" cy="312.421" rx="2.68457" ry="2.68456" transform="rotate(0.264486 479.903 312.421)" fill="black"/>
<ellipse cx="479.904" cy="336.582" rx="2.68457" ry="2.68456" transform="rotate(0.264486 479.904 336.582)" fill="black"/>
<ellipse cx="506.737" cy="226.503" rx="2.68456" ry="2.68457" transform="rotate(-90 506.737 226.503)" fill="black"/>
<ellipse cx="528.213" cy="226.503" rx="2.68456" ry="2.68457" transform="rotate(-90 528.213 226.503)" fill="black"/>
<ellipse cx="549.69" cy="226.503" rx="2.68456" ry="2.68457" transform="rotate(-90 549.69 226.503)" fill="black"/>
<ellipse cx="759.086" cy="247.979" rx="2.68456" ry="2.68457" transform="rotate(-90 759.086 247.979)" fill="black"/>
<ellipse cx="573.851" cy="226.503" rx="2.68456" ry="2.68457" transform="rotate(-90 573.851 226.503)" fill="black"/>
<ellipse cx="788.616" cy="247.979" rx="2.68456" ry="2.68457" transform="rotate(-90 788.616 247.979)" fill="black"/>
<ellipse cx="428.884" cy="266.771" rx="2.68456" ry="2.68457" transform="rotate(-90 428.884 266.771)" fill="black"/>
<ellipse cx="598.012" cy="226.503" rx="2.68456" ry="2.68457" transform="rotate(-90 598.012 226.503)" fill="black"/>
<ellipse cx="818.146" cy="247.979" rx="2.68456" ry="2.68457" transform="rotate(-90 818.146 247.979)" fill="black"/>
<ellipse cx="444.992" cy="266.771" rx="2.68456" ry="2.68457" transform="rotate(-90 444.992 266.771)" fill="black"/>
<ellipse cx="619.488" cy="226.503" rx="2.68456" ry="2.68457" transform="rotate(-90 619.488 226.503)" fill="black"/>
<ellipse cx="847.677" cy="247.979" rx="2.68456" ry="2.68457" transform="rotate(-90 847.677 247.979)" fill="black"/>
<ellipse cx="461.099" cy="266.771" rx="2.68456" ry="2.68457" transform="rotate(-90 461.099 266.771)" fill="black"/>
<ellipse cx="640.965" cy="226.502" rx="2.68456" ry="2.68457" transform="rotate(-90 640.965 226.502)" fill="black"/>
<ellipse cx="665.127" cy="226.503" rx="2.68456" ry="2.68457" transform="rotate(-90 665.127 226.503)" fill="black"/>
<ellipse cx="689.288" cy="226.503" rx="2.68456" ry="2.68457" transform="rotate(-90 689.288 226.503)" fill="black"/>
<ellipse cx="710.764" cy="226.503" rx="2.68456" ry="2.68457" transform="rotate(-90 710.764 226.503)" fill="black"/>
<ellipse cx="793.986" cy="81.5373" rx="2.68457" ry="2.68456" fill="black"/>
<ellipse cx="772.509" cy="81.5373" rx="2.68457" ry="2.68456" fill="black"/>
<ellipse cx="748.348" cy="81.5373" rx="2.68457" ry="2.68456" fill="black"/>
<ellipse cx="748.348" cy="105.698" rx="2.68457" ry="2.68456" fill="black"/>
<ellipse cx="748.348" cy="129.859" rx="2.68457" ry="2.68456" fill="black"/>
<ellipse cx="748.348" cy="154.019" rx="2.68457" ry="2.68456" fill="black"/>
<ellipse cx="748.348" cy="178.181" rx="2.68457" ry="2.68456" fill="black"/>
<ellipse cx="748.348" cy="202.342" rx="2.68457" ry="2.68456" fill="black"/>
<ellipse cx="772.509" cy="202.342" rx="2.68457" ry="2.68456" fill="black"/>
<ellipse cx="793.986" cy="202.342" rx="2.68457" ry="2.68456" fill="black"/>
<ellipse cx="815.462" cy="202.342" rx="2.68457" ry="2.68456" fill="black"/>
<path d="M898.684 72.9832H898.184V73.4832V80.5368C898.184 81.3653 898.855 82.0368 899.684 82.0368H962.113C962.942 82.0368 963.613 81.3653 963.613 80.5368V73.4832V72.9832H963.113H898.684Z" fill="#8A8A8A" stroke="black"/>
<rect x="880.392" y="216.265" width="84.9061" height="12.4228" fill="#AF0020" stroke="black"/>
<path d="M879.892 213.765V119.121H962.798C964.455 119.121 965.798 120.464 965.798 122.121V213.765C965.798 214.87 964.902 215.765 963.798 215.765H881.892C880.787 215.765 879.892 214.87 879.892 213.765Z" fill="white" stroke="black"/>
<path d="M881.234 343.204V214.422L887.482 221.92C887.781 222.279 887.945 222.732 887.945 223.2V337.912L883.002 343.844C882.403 344.563 881.234 344.139 881.234 343.204Z" fill="#A5A5A5" stroke="black"/>
<path d="M964.456 341.862V213.08L958.208 220.578C957.908 220.937 957.744 221.39 957.744 221.858V336.57L962.687 342.502C963.286 343.22 964.456 342.797 964.456 341.862Z" fill="#A5A5A5" stroke="black"/>
<path d="M957.33 336.07H888.414C887.969 336.07 887.546 336.267 887.261 336.609L882.216 342.663C881.402 343.64 882.097 345.123 883.369 345.123H963.383C964.72 345.123 965.389 343.508 964.444 342.563L958.39 336.509C958.109 336.228 957.728 336.07 957.33 336.07Z" fill="#5F5F5F" stroke="black"/>
<path d="M988.747 146.391H1102.92V227.864C1102.92 228.14 1102.69 228.364 1102.42 228.364H988.747V146.391Z" fill="#AF0020" stroke="black"/>
<path d="M989.485 129.292H988.985V129.792V145.892V146.392H989.485H1106.37C1107.75 146.392 1108.87 145.272 1108.87 143.892V131.792C1108.87 130.412 1107.75 129.292 1106.37 129.292H989.485Z" fill="#5F5F5F" stroke="black"/>
<rect x="1001.37" y="83.472" width="92.6409" height="23.291" fill="#9E750B" stroke="black"/>
<rect x="1001.37" y="107.001" width="92.6409" height="22.0526" fill="#9E750B" stroke="black"/>
<ellipse cx="1091.97" cy="167.443" rx="2.68457" ry="2.68456" fill="black"/>
<ellipse cx="979.22" cy="282.879" rx="2.68457" ry="2.68456" fill="black"/>
<ellipse cx="1003.38" cy="298.986" rx="2.68457" ry="2.68456" fill="black"/>
<ellipse cx="1091.97" cy="285.563" rx="2.68457" ry="2.68456" fill="black"/>
<ellipse cx="979.22" cy="258.718" rx="2.68457" ry="2.68456" fill="black"/>
<ellipse cx="1003.38" cy="274.825" rx="2.68457" ry="2.68456" fill="black"/>
<ellipse cx="1091.97" cy="266.772" rx="2.68457" ry="2.68456" fill="black"/>
<ellipse cx="979.22" cy="234.557" rx="2.68457" ry="2.68456" fill="black"/>
<ellipse cx="1003.38" cy="250.665" rx="2.68457" ry="2.68456" fill="black"/>
<ellipse cx="1091.97" cy="247.98" rx="2.68457" ry="2.68456" fill="black"/>
<ellipse cx="1091.97" cy="191.604" rx="2.68457" ry="2.68456" fill="black"/>
<ellipse cx="979.22" cy="307.04" rx="2.68457" ry="2.68456" fill="black"/>
<ellipse cx="1003.38" cy="323.148" rx="2.68457" ry="2.68456" fill="black"/>
<ellipse cx="1091.97" cy="304.356" rx="2.68457" ry="2.68456" fill="black"/>
<ellipse cx="1091.97" cy="215.765" rx="2.68457" ry="2.68456" fill="black"/>
<ellipse cx="979.22" cy="331.201" rx="2.68457" ry="2.68456" fill="black"/>
<ellipse cx="1091.97" cy="323.148" rx="2.68457" ry="2.68456" fill="black"/>
<path d="M1076.17 228.125H1076.67V227.625V216.48V207.334C1076.67 205.954 1075.55 204.834 1074.17 204.834H1013.78C1012.4 204.834 1011.28 205.954 1011.28 207.334V227.625V228.125H1011.78H1076.17Z" fill="#5F5F5F" stroke="black"/>
<path d="M1011.16 215.765H1076.17" stroke="black"/>
<path d="M488.445 347.309V346.809H487.945H123.844C123.016 346.809 122.344 347.48 122.344 348.309V370.47C122.344 371.298 123.016 371.97 123.844 371.97H486.945C487.774 371.97 488.445 371.298 488.445 370.47V347.309Z" fill="#5F5F5F" stroke="black"/>
<rect x="936.767" y="345.124" width="160.074" height="20.4765" rx="0.5" fill="#AA0101" stroke="black"/>
<rect x="738.11" y="345.124" width="160.074" height="20.4765" rx="0.5" fill="#AA0101" stroke="black"/>
<ellipse cx="1090.63" cy="351.336" rx="1.34228" ry="1.34228" fill="black"/>
<ellipse cx="1090.63" cy="359.389" rx="1.34228" ry="1.34228" fill="black"/>
<rect x="898.184" y="346.809" width="46.6376" height="54.6912" fill="#FFB800" stroke="black"/>
<rect x="904.553" y="350.494" width="33.8993" height="12.4228" rx="0.5" fill="#9E750B" stroke="black"/>
<path d="M905.053 366.6H937.952C938.228 366.6 938.452 366.824 938.452 367.1V378.523C938.452 378.799 938.228 379.023 937.952 379.023H905.053C904.777 379.023 904.553 378.799 904.553 378.523V367.1C904.553 366.824 904.777 366.6 905.053 366.6ZM905.053 382.707H937.952C938.228 382.707 938.452 382.931 938.452 383.207V394.63C938.452 394.906 938.228 395.13 937.952 395.13H905.053C904.777 395.13 904.553 394.906 904.553 394.63V383.207C904.553 382.931 904.777 382.707 905.053 382.707Z" fill="#9E750B" stroke="black"/>
<path d="M1108.87 250.416H1118.75C1119.58 250.416 1120.25 251.088 1120.25 251.916V266.492C1120.25 267.321 1119.58 267.992 1118.75 267.992H1108.87V250.416Z" fill="#5F5F5F" stroke="black"/>
<path d="M1109.61 244.463H1109.11V244.963V249.916V250.416H1109.61H1114.56H1115.06V249.916V245.963C1115.06 245.134 1114.39 244.463 1113.56 244.463H1109.61Z" fill="#8A8A8A" stroke="black"/>
<rect x="1113.82" y="291.283" width="3.95356" height="7.66872" rx="0.5" fill="#8B8B8B" stroke="black"/>
<rect x="1113.82" y="317.289" width="6.43034" height="12.6223" rx="0.5" fill="#8B8B8B" stroke="black"/>
<path d="M545.896 273.124V276.72H547.756C548.459 276.72 549.182 276.348 549.926 275.604C550.711 274.819 551.29 274.095 551.662 273.434C552.075 272.731 552.489 270.768 552.902 267.544C553.315 264.279 553.522 261.964 553.522 260.6H562.078C562.078 262.212 561.851 264.733 561.396 268.164C560.941 271.595 560.528 273.703 560.156 274.488C559.536 275.852 557.965 277.691 555.444 280.006C558.379 282.527 560.28 284.656 561.148 286.392C561.561 287.26 561.975 289.885 562.388 294.266C562.843 298.606 563.07 301.851 563.07 304H554.514C554.514 302.057 554.307 299.019 553.894 294.886C553.522 290.711 553.15 288.293 552.778 287.632C551.497 285.317 549.988 284.16 548.252 284.16H545.896V304H537.34V276.844C537.34 273.496 537.092 271.181 536.596 269.9C536.141 268.577 535.149 266.965 533.62 265.064L541.06 259.856C542.383 260.724 543.519 262.336 544.47 264.692C545.421 267.007 545.896 269.817 545.896 273.124ZM579.945 277.588H591.043V285.09H579.945V296.498H594.763V304H571.389V265.808L579.945 259.856H593.771V267.42H582.239L579.945 269.032V277.588ZM617.712 304V272.442C617.712 271.739 617.568 271.161 617.278 270.706C617.03 270.21 616.596 269.652 615.976 269.032C615.356 268.412 614.86 268.102 614.488 268.102C613.662 268.102 612.566 268.929 611.202 270.582C611.326 271.615 611.388 272.711 611.388 273.868V304H602.832V277.464C602.832 273.951 602.584 271.491 602.088 270.086C601.634 268.681 600.642 267.007 599.112 265.064L606.552 259.856C607.875 260.807 608.826 261.943 609.404 263.266C612.38 260.993 614.488 259.856 615.728 259.856C616.968 259.856 619.304 261.447 622.734 264.63C626.165 261.447 628.583 259.856 629.988 259.856C631.022 259.856 632.778 260.951 635.258 263.142C637.78 265.291 639.35 266.821 639.97 267.73C640.59 268.598 640.9 269.755 640.9 271.202V304H632.344V272.442C632.344 271.657 632.2 271.057 631.91 270.644C631.621 270.189 631.125 269.652 630.422 269.032C629.761 268.412 629.162 268.102 628.624 268.102C628.128 268.102 627.322 268.784 626.206 270.148C626.248 270.355 626.268 270.706 626.268 271.202V304H617.712ZM679.55 282.982H680.79C681.575 282.982 682.484 282.61 683.518 281.866C684.592 281.081 685.274 280.233 685.564 279.324C685.853 278.415 685.998 277.195 685.998 275.666C685.998 274.137 685.853 272.876 685.564 271.884C685.274 270.851 684.592 269.962 683.518 269.218C682.484 268.474 681.472 268.102 680.48 268.102C679.529 268.102 678.227 268.639 676.574 269.714C676.698 271.078 676.76 272.463 676.76 273.868V304H668.204V277.464C668.204 273.992 667.956 271.553 667.46 270.148C667.005 268.701 666.013 267.027 664.484 265.126L671.924 259.856C672.998 260.6 673.949 261.819 674.776 263.514C678.165 261.075 680.583 259.856 682.03 259.856C683.476 259.856 685.481 261.013 688.044 263.328C690.606 265.643 692.342 267.585 693.252 269.156C693.706 269.735 693.934 271.739 693.934 275.17C693.934 278.601 693.706 280.771 693.252 281.68C692.342 283.251 690.606 285.193 688.044 287.508C685.481 289.823 683.476 290.98 682.03 290.98H679.55V282.982ZM706.877 263.886C709.812 261.199 712.044 259.856 713.573 259.856C715.102 259.856 717.334 261.199 720.269 263.886C723.204 266.573 725.022 268.784 725.725 270.52C726.18 271.719 726.407 274.426 726.407 278.642V304H717.851V294.7H709.295V304H700.739V278.642C700.739 274.426 700.966 271.719 701.421 270.52C702.124 268.784 703.942 266.573 706.877 263.886ZM709.295 278.642V287.26H717.851V278.642C717.851 275.253 717.686 273.186 717.355 272.442C717.024 271.657 716.446 270.851 715.619 270.024C714.834 269.156 714.152 268.722 713.573 268.722C712.994 268.722 712.292 269.156 711.465 270.024C710.68 270.851 710.122 271.657 709.791 272.442C709.46 273.186 709.295 275.253 709.295 278.642ZM755.217 296.56V304H732.587V260.6H741.143V296.56H755.217ZM781.225 260.6V268.04H773.165V304H764.609V268.04H756.549V260.6H781.225ZM794.857 304V286.64C793.245 285.317 791.675 283.747 790.145 281.928C788.657 280.068 787.645 278.621 787.107 277.588C786.57 276.513 786.301 274.343 786.301 271.078V260.6H794.857V271.078C794.857 273.186 795.023 274.674 795.353 275.542C795.725 276.369 796.345 277.381 797.213 278.58C798.123 279.779 798.763 280.378 799.135 280.378C799.507 280.378 800.148 279.779 801.057 278.58C801.967 277.34 802.587 276.327 802.917 275.542C803.248 274.757 803.413 273.269 803.413 271.078V260.6H811.969V271.078C811.969 274.385 811.701 276.555 811.163 277.588C810.626 278.621 809.593 280.068 808.063 281.928C806.534 283.747 804.984 285.317 803.413 286.64V304H794.857Z" fill="#FFB800"/>
</svg>
