<svg width="139" height="98" viewBox="0 0 139 98" fill="none" xmlns="http://www.w3.org/2000/svg">
<path d="M136.136 15.2812C134.534 9.30602 129.839 4.59608 123.885 2.98708C113.008 0 69.4986 0 69.4986 0C69.4986 0 25.9903 0 15.1129 2.87321C9.27391 4.48115 4.46463 9.30709 2.86224 15.2812C0 26.1952 0 48.8297 0 48.8297C0 48.8297 0 71.5781 2.86224 82.3782C4.46569 88.3524 9.15938 93.0634 15.114 94.6724C26.1048 97.6595 69.4997 97.6595 69.4997 97.6595C69.4997 97.6595 113.008 97.6595 123.885 94.7863C129.84 93.1783 134.534 88.4673 136.137 82.4932C138.999 71.5781 138.999 48.9447 138.999 48.9447C138.999 48.9447 139.114 26.1952 136.136 15.2812Z" fill="#DA0000"/>
<path d="M55.7197 69.5002L91.668 48.5304L55.7197 27.5605V69.5002Z" fill="white"/>
</svg>
