<svg width="422" height="496" viewBox="0 0 422 496" fill="none" xmlns="http://www.w3.org/2000/svg">
<rect width="422" height="496" fill="white"/>
<path d="M227.554 35.522L211.267 98H192.844L182.876 56.882L172.552 98H154.129L138.287 35.522H154.574L163.563 81.001L174.688 35.522H191.42L202.1 81.001L211.178 35.522H227.554ZM257.525 47.715V60.353H277.906V72.101H257.525V85.807H280.576V98H242.306V35.522H280.576V47.715H257.525Z" fill="black"/>
<path d="M131.836 399.522C138.422 399.522 144.177 400.827 149.102 403.438C154.026 406.049 157.824 409.727 160.494 414.474C163.223 419.161 164.588 424.59 164.588 430.761C164.588 436.872 163.223 442.301 160.494 447.048C157.824 451.795 153.997 455.473 149.013 458.084C144.088 460.695 138.362 462 131.836 462H108.429V399.522H131.836ZM130.857 448.828C136.612 448.828 141.092 447.256 144.296 444.111C147.5 440.966 149.102 436.516 149.102 430.761C149.102 425.006 147.5 420.526 144.296 417.322C141.092 414.118 136.612 412.516 130.857 412.516H123.648V448.828H130.857ZM195.432 411.715V424.353H215.813V436.101H195.432V449.807H218.483V462H180.213V399.522H218.483V411.715H195.432ZM258.089 462.623C253.521 462.623 249.427 461.881 245.807 460.398C242.188 458.915 239.281 456.719 237.085 453.812C234.949 450.905 233.822 447.404 233.703 443.31H249.901C250.139 445.624 250.94 447.404 252.304 448.65C253.669 449.837 255.449 450.43 257.644 450.43C259.899 450.43 261.679 449.926 262.984 448.917C264.29 447.849 264.942 446.395 264.942 444.556C264.942 443.013 264.408 441.738 263.34 440.729C262.332 439.72 261.056 438.89 259.513 438.237C258.03 437.584 255.894 436.843 253.105 436.012C249.071 434.766 245.778 433.52 243.226 432.274C240.675 431.028 238.48 429.189 236.64 426.756C234.801 424.323 233.881 421.149 233.881 417.233C233.881 411.418 235.988 406.879 240.2 403.616C244.413 400.293 249.901 398.632 256.665 398.632C263.548 398.632 269.096 400.293 273.308 403.616C277.521 406.879 279.776 411.448 280.072 417.322H263.607C263.489 415.305 262.747 413.732 261.382 412.605C260.018 411.418 258.267 410.825 256.131 410.825C254.292 410.825 252.809 411.329 251.681 412.338C250.554 413.287 249.99 414.682 249.99 416.521C249.99 418.538 250.94 420.111 252.838 421.238C254.737 422.365 257.704 423.582 261.738 424.887C265.773 426.252 269.036 427.557 271.528 428.803C274.08 430.049 276.275 431.859 278.114 434.232C279.954 436.605 280.873 439.661 280.873 443.399C280.873 446.959 279.954 450.193 278.114 453.1C276.334 456.007 273.724 458.321 270.282 460.042C266.841 461.763 262.777 462.623 258.089 462.623ZM312.578 399.522V462H297.359V399.522H312.578Z" fill="black"/>
<path d="M222.675 184.405L222.678 184.402C239.737 166.761 266.897 164.301 284.851 179.635C305.877 197.624 307.008 230.005 288.132 249.527L288.131 249.529L214.437 325.789C212.231 328.07 208.736 328.07 206.53 325.789L132.839 249.532C113.997 230.009 115.128 197.623 136.156 179.634C154.113 164.299 181.306 166.766 198.323 184.397L198.33 184.405L205.833 192.153L210.503 196.976L215.172 192.153L222.675 184.405Z" fill="white" stroke="#CB0000" stroke-width="13"/>
</svg>
