<svg width="422" height="496" viewBox="0 0 422 496" fill="none" xmlns="http://www.w3.org/2000/svg">
<rect width="422" height="496" fill="white"/>
<path d="M62 121.5C62 117.358 65.3579 114 69.5 114V114C73.6421 114 77 117.358 77 121.5V153H62V121.5Z" fill="#CB0000"/>
<path d="M62 259H77V368.5C77 372.642 73.6421 376 69.5 376V376C65.3579 376 62 372.642 62 368.5V259Z" fill="#CB0000"/>
<path d="M344 109.5C344 105.358 347.358 102 351.5 102V102C355.642 102 359 105.358 359 109.5V155H344V109.5Z" fill="black"/>
<path d="M344 256H359V368.5C359 372.642 355.642 376 351.5 376V376C347.358 376 344 372.642 344 368.5V256Z" fill="black"/>
<path d="M57 155C57 150.029 61.0294 146 66 146H355C359.971 146 364 150.029 364 155V159H342.5C339.739 159 337.5 161.239 337.5 164V164V164C337.5 166.209 339.291 168 341.5 168H364V200H337C333.686 200 331 202.686 331 206V206C331 209.314 333.686 212 337 212H364V239.5H354.5C350.634 239.5 347.5 242.634 347.5 246.5V246.5V246.5C347.5 250.228 350.522 253.25 354.25 253.25H364V258C364 262.971 359.971 267 355 267H66C61.0294 267 57 262.971 57 258V251L72.8093 250.614C75.4182 250.551 77.5 248.418 77.5 245.808V245.808C77.5 243.153 75.3474 241 72.6921 241H57V202.75H60.9375C66.2187 202.75 70.5 198.469 70.5 193.188V193.188C70.5 187.906 66.2187 183.625 60.9375 183.625H57V164.5V155Z" fill="#CB0000"/>
<path d="M97.99 191.676C99.37 191.216 100.949 190.863 102.728 190.618C104.507 190.342 106.316 190.204 108.156 190.204C112.265 190.204 115.317 191.001 117.31 192.596C119.334 194.16 120.346 196.705 120.346 200.232C120.346 203.759 119.319 206.457 117.264 208.328C115.209 210.199 112.081 211.134 107.88 211.134H104.844V219H97.99V191.676ZM106.822 204.878C108.233 204.878 109.383 204.847 110.272 204.786C111.192 204.694 112.051 204.525 112.848 204.28C113.277 203.207 113.492 201.98 113.492 200.6C113.492 199.128 113.124 198.085 112.388 197.472C111.652 196.828 110.364 196.506 108.524 196.506C107.175 196.506 105.948 196.629 104.844 196.874V204.878H106.822ZM120.228 218.586C121.485 213.802 122.896 208.911 124.46 203.912C126.055 198.883 127.619 194.405 129.152 190.48H138.95C140.483 194.405 142.032 198.883 143.596 203.912C145.191 208.911 146.617 213.802 147.874 218.586L140.698 219C140.207 217.283 139.563 214.707 138.766 211.272H129.336C128.385 214.891 127.741 217.467 127.404 219L120.228 218.586ZM137.064 205.154C136.267 202.394 135.377 199.573 134.396 196.69H133.706C132.786 199.235 131.881 202.057 130.992 205.154H137.064ZM152.031 190.48H161.093L170.155 211.778L170.523 211.686L169.971 204.188V190.48H176.825V219H167.763L158.701 197.702L158.333 197.794L158.885 205.292V219H152.031V190.48ZM195.913 219.46C191.343 219.46 187.847 218.31 185.425 216.01C183.033 213.679 181.837 210.214 181.837 205.614C181.837 200.861 182.987 197.073 185.287 194.252C187.587 191.431 191.006 190.02 195.545 190.02C199.378 190.02 202.675 190.741 205.435 192.182V194.114C205.435 195.157 205.373 196.261 205.251 197.426C205.159 198.591 205.021 199.511 204.837 200.186H199.133L198.673 196.782C197.661 196.537 196.403 196.414 194.901 196.414C193.214 196.414 191.527 196.598 189.841 196.966C189.105 199.511 188.737 202.302 188.737 205.338C188.737 208.037 189.319 209.999 190.485 211.226C191.65 212.453 193.613 213.066 196.373 213.066C198.059 213.066 199.547 212.882 200.835 212.514C202.153 212.115 203.395 211.563 204.561 210.858L207.229 216.24C205.757 217.313 204.131 218.126 202.353 218.678C200.574 219.199 198.427 219.46 195.913 219.46ZM211.687 190.48H218.587V201.98H228.523V190.48H235.423V219H228.523V208.42H218.587V219H211.687V190.48ZM239.586 218.586C240.843 213.802 242.254 208.911 243.818 203.912C245.412 198.883 246.976 194.405 248.51 190.48H258.308C259.841 194.405 261.39 198.883 262.954 203.912C264.548 208.911 265.974 213.802 267.232 218.586L260.056 219C259.565 217.283 258.921 214.707 258.124 211.272H248.694C247.743 214.891 247.099 217.467 246.762 219L239.586 218.586ZM256.422 205.154C255.624 202.394 254.735 199.573 253.754 196.69H253.064C252.144 199.235 251.239 202.057 250.35 205.154H256.422ZM276.411 196.92H267.303V190.48H292.419V196.92H283.311V219H276.411V196.92ZM303.904 196.92H294.796V190.48H319.912V196.92H310.804V219H303.904V196.92Z" fill="white"/>
</svg>
