<svg width="1076" height="362" viewBox="0 0 1076 362" fill="none" xmlns="http://www.w3.org/2000/svg">
<path d="M72.2974 38C72.2974 27.5066 80.804 19 91.2974 19H994.618C1005.11 19 1013.62 27.5066 1013.62 38V318.42C1013.62 323.391 1009.59 327.42 1004.62 327.42H81.2974C76.3268 327.42 72.2974 323.391 72.2974 318.42V38Z" fill="#3C77BD"/>
<path d="M75.4243 19C75.4243 8.50658 83.9309 0 94.4243 0H997.745C1008.24 0 1016.75 8.50659 1016.75 19V45.8295H75.4243V19Z" fill="#DEDEDE"/>
<rect x="76.4668" y="94" width="941.321" height="69" fill="#A9E9F7"/>
<g filter="url(#filter0_ii)">
<path d="M177.584 68.8864C177.584 67.7818 178.479 66.8864 179.584 66.8864H256.894C257.999 66.8864 258.894 67.7818 258.894 68.8864V327H177.584V68.8864Z" fill="#3C77BD"/>
</g>
<g filter="url(#filter1_ii)">
<path d="M808.258 68.8864C808.258 67.7818 809.153 66.8864 810.258 66.8864H887.568C888.673 66.8864 889.568 67.7818 889.568 68.8864V327H808.258V68.8864Z" fill="#3C77BD"/>
</g>
<g filter="url(#filter2_ii)">
<rect x="177.584" y="94" width="81.3101" height="69" fill="#A9E9F7"/>
</g>
<g filter="url(#filter3_ii)">
<rect x="808.258" y="94" width="81.3101" height="69" fill="#A9E9F7"/>
</g>
<rect x="180.084" y="304.727" width="76.3101" height="19.7727" fill="#525252" stroke="#929292" stroke-width="5"/>
<rect x="810.758" y="304.727" width="76.3101" height="19.7727" fill="#525252" stroke="#929292" stroke-width="5"/>
<path d="M177.584 137.489H179.148L180.19 137.893L189.051 152.433V237.657L181.754 246.946L180.19 248.966H177.584" stroke="#F5DD00" stroke-width="3"/>
<path d="M808.258 137.489H809.821L810.864 137.893L819.725 152.433V237.657L812.428 246.946L810.864 248.966H808.258" stroke="#F5DD00" stroke-width="3"/>
<path d="M258.894 137.489H257.33L256.287 137.893L247.427 152.433V237.657L254.724 246.946L256.287 248.966H258.894" stroke="#F5DD00" stroke-width="3"/>
<path d="M889.568 137.489H888.005L886.962 137.893L878.102 152.433V237.657L885.399 246.946L886.962 248.966H889.568" stroke="#F5DD00" stroke-width="3"/>
<rect x="192.178" y="105" width="54.2067" height="49.5455" rx="5" fill="black"/>
<g filter="url(#filter4_ii)">
<path d="M192.178 110C192.178 107.239 194.416 105 197.178 105H241.384C244.146 105 246.384 107.239 246.384 110V116.01H192.178V110Z" fill="#A9E9F7"/>
</g>
<g filter="url(#filter5_ii)">
<path d="M246.385 149.545C246.385 152.307 244.146 154.545 241.385 154.545H197.178C194.417 154.545 192.178 152.307 192.178 149.545V143.535H246.385V149.545Z" fill="#A9E9F7"/>
</g>
<path d="M192.178 121.515H193.908H195.061H243.501H244.654H246.384" stroke="#A5A5A5"/>
<path d="M192.178 129.773H193.908H195.061H243.501H244.654H246.384" stroke="#A5A5A5"/>
<path d="M192.178 138.03H193.908H195.061H243.501H244.654H246.384" stroke="#A5A5A5"/>
<rect x="822.852" y="105" width="54.2067" height="49.5455" rx="5" fill="black"/>
<g filter="url(#filter6_ii)">
<path d="M822.852 110C822.852 107.239 825.09 105 827.852 105H872.058C874.82 105 877.058 107.239 877.058 110V116.01H822.852V110Z" fill="#A9E9F7"/>
</g>
<g filter="url(#filter7_ii)">
<path d="M877.059 149.545C877.059 152.307 874.82 154.545 872.059 154.545H827.852C825.09 154.545 822.852 152.307 822.852 149.545V143.535H877.059V149.545Z" fill="#A9E9F7"/>
</g>
<path d="M822.852 121.515H824.582H825.735H874.175H875.328H877.058" stroke="#A5A5A5"/>
<path d="M822.852 129.773H824.582H825.735H874.175H875.328H877.058" stroke="#A5A5A5"/>
<path d="M822.852 138.03H824.582H825.735H874.175H875.328H877.058" stroke="#A5A5A5"/>
<rect x="94.188" y="105" width="54.2067" height="49.5455" rx="5" fill="black"/>
<g filter="url(#filter8_ii)">
<path d="M94.188 110C94.188 107.239 96.4266 105 99.188 105H143.395C146.156 105 148.395 107.239 148.395 110V116.01H94.188V110Z" fill="#A9E9F7"/>
</g>
<g filter="url(#filter9_ii)">
<path d="M148.395 149.545C148.395 152.307 146.156 154.545 143.395 154.545H99.1878C96.4264 154.545 94.1878 152.307 94.1878 149.545V143.535H148.395V149.545Z" fill="#A9E9F7"/>
</g>
<path d="M94.188 121.515H95.918H97.0713H145.511H146.665H148.395" stroke="#A5A5A5"/>
<path d="M94.188 129.773H95.918H97.0713H145.511H146.665H148.395" stroke="#A5A5A5"/>
<path d="M94.188 138.03H95.918H97.0713H145.511H146.665H148.395" stroke="#A5A5A5"/>
<rect x="285.997" y="105" width="54.2067" height="49.5455" rx="5" fill="black"/>
<g filter="url(#filter10_ii)">
<path d="M285.997 110C285.997 107.239 288.236 105 290.997 105H335.204C337.965 105 340.204 107.239 340.204 110V116.01H285.997V110Z" fill="#A9E9F7"/>
</g>
<g filter="url(#filter11_ii)">
<path d="M340.204 149.545C340.204 152.307 337.966 154.545 335.204 154.545H290.997C288.236 154.545 285.997 152.307 285.997 149.545V143.535H340.204V149.545Z" fill="#A9E9F7"/>
</g>
<path d="M285.997 121.515H287.727H288.88H337.32H338.474H340.204" stroke="#A5A5A5"/>
<path d="M285.997 129.773H287.727H288.88H337.32H338.474H340.204" stroke="#A5A5A5"/>
<path d="M285.997 138.03H287.727H288.88H337.32H338.474H340.204" stroke="#A5A5A5"/>
<rect x="374.604" y="105" width="54.2067" height="49.5455" rx="5" fill="black"/>
<g filter="url(#filter12_ii)">
<path d="M374.604 110C374.604 107.239 376.842 105 379.604 105H423.81C426.572 105 428.81 107.239 428.81 110V116.01H374.604V110Z" fill="#A9E9F7"/>
</g>
<g filter="url(#filter13_ii)">
<path d="M428.811 149.545C428.811 152.307 426.572 154.545 423.811 154.545H379.604C376.842 154.545 374.604 152.307 374.604 149.545V143.535H428.811V149.545Z" fill="#A9E9F7"/>
</g>
<path d="M374.604 121.515H376.334H377.487H425.927H427.08H428.81" stroke="#A5A5A5"/>
<path d="M374.604 129.773H376.334H377.487H425.927H427.08H428.81" stroke="#A5A5A5"/>
<path d="M374.604 138.03H376.334H377.487H425.927H427.08H428.81" stroke="#A5A5A5"/>
<rect x="463.211" y="105" width="54.2067" height="49.5455" rx="5" fill="black"/>
<g filter="url(#filter14_ii)">
<path d="M463.211 110C463.211 107.239 465.45 105 468.211 105H512.418C515.179 105 517.418 107.239 517.418 110V116.01H463.211V110Z" fill="#A9E9F7"/>
</g>
<g filter="url(#filter15_ii)">
<path d="M517.418 149.545C517.418 152.307 515.179 154.545 512.418 154.545H468.211C465.45 154.545 463.211 152.307 463.211 149.545V143.535H517.418V149.545Z" fill="#A9E9F7"/>
</g>
<path d="M463.211 121.515H464.941H466.094H514.534H515.688H517.418" stroke="#A5A5A5"/>
<path d="M463.211 129.773H464.941H466.094H514.534H515.688H517.418" stroke="#A5A5A5"/>
<path d="M463.211 138.03H464.941H466.094H514.534H515.688H517.418" stroke="#A5A5A5"/>
<rect x="551.818" y="105" width="54.2067" height="49.5455" rx="5" fill="black"/>
<g filter="url(#filter16_ii)">
<path d="M551.818 110C551.818 107.239 554.057 105 556.818 105H601.025C603.787 105 606.025 107.239 606.025 110V116.01H551.818V110Z" fill="#A9E9F7"/>
</g>
<g filter="url(#filter17_ii)">
<path d="M606.025 149.545C606.025 152.307 603.787 154.545 601.025 154.545H556.819C554.057 154.545 551.819 152.307 551.819 149.545V143.535H606.025V149.545Z" fill="#A9E9F7"/>
</g>
<path d="M551.818 121.515H553.548H554.702H603.142H604.295H606.025" stroke="#A5A5A5"/>
<path d="M551.818 129.773H553.548H554.702H603.142H604.295H606.025" stroke="#A5A5A5"/>
<path d="M551.818 138.03H553.548H554.702H603.142H604.295H606.025" stroke="#A5A5A5"/>
<rect x="640.426" y="105" width="54.2067" height="49.5455" rx="5" fill="black"/>
<g filter="url(#filter18_ii)">
<path d="M640.426 110C640.426 107.239 642.664 105 645.426 105H689.633C692.394 105 694.633 107.239 694.633 110V116.01H640.426V110Z" fill="#A9E9F7"/>
</g>
<g filter="url(#filter19_ii)">
<path d="M694.633 149.545C694.633 152.307 692.394 154.545 689.633 154.545H645.426C642.665 154.545 640.426 152.307 640.426 149.545V143.535H694.633V149.545Z" fill="#A9E9F7"/>
</g>
<path d="M640.426 121.515H642.156H643.309H691.749H692.903H694.633" stroke="#A5A5A5"/>
<path d="M640.426 129.773H642.156H643.309H691.749H692.903H694.633" stroke="#A5A5A5"/>
<path d="M640.426 138.03H642.156H643.309H691.749H692.903H694.633" stroke="#A5A5A5"/>
<rect x="729.032" y="105" width="54.2067" height="49.5455" rx="5" fill="black"/>
<g filter="url(#filter20_ii)">
<path d="M729.032 110C729.032 107.239 731.271 105 734.032 105H778.239C781 105 783.239 107.239 783.239 110V116.01H729.032V110Z" fill="#A9E9F7"/>
</g>
<g filter="url(#filter21_ii)">
<path d="M783.239 149.545C783.239 152.307 781.001 154.545 778.239 154.545H734.033C731.271 154.545 729.033 152.307 729.033 149.545V143.535H783.239V149.545Z" fill="#A9E9F7"/>
</g>
<path d="M729.032 121.515H730.762H731.916H780.356H781.509H783.239" stroke="#A5A5A5"/>
<path d="M729.032 129.773H730.762H731.916H780.356H781.509H783.239" stroke="#A5A5A5"/>
<path d="M729.032 138.03H730.762H731.916H780.356H781.509H783.239" stroke="#A5A5A5"/>
<rect x="938.562" y="105" width="54.2067" height="49.5455" rx="5" fill="black"/>
<g filter="url(#filter22_ii)">
<path d="M938.562 110C938.562 107.239 940.801 105 943.562 105H987.769C990.531 105 992.769 107.239 992.769 110V116.01H938.562V110Z" fill="#A9E9F7"/>
</g>
<g filter="url(#filter23_ii)">
<path d="M992.77 149.545C992.77 152.307 990.531 154.545 987.77 154.545H943.563C940.801 154.545 938.563 152.307 938.563 149.545V143.535H992.77V149.545Z" fill="#A9E9F7"/>
</g>
<path d="M938.562 121.515H940.293H941.446H989.886H991.039H992.769" stroke="#A5A5A5"/>
<path d="M938.562 129.773H940.293H941.446H989.886H991.039H992.769" stroke="#A5A5A5"/>
<path d="M938.562 138.03H940.293H941.446H989.886H991.039H992.769" stroke="#A5A5A5"/>
<path d="M65.1348 55.2377L75.9452 46V314.638C75.9452 317.623 76.613 320.569 77.8997 323.262L79.7289 327.089C79.474 327.712 78.6642 327.868 78.1964 327.384L74.5208 323.588C68.5007 317.369 65.1348 309.054 65.1348 300.399V55.2377Z" fill="#305989"/>
<path d="M65 27.6482V55.5L75.9456 46V37.7784V27.25V22.9148V19.1989L76.1241 17.9262C76.3516 16.3042 76.7885 14.7186 77.4237 13.2089C77.8275 12.2493 78.3097 11.3246 78.8654 10.4442L79.5941 9.28977L81.679 6.8125C83.0591 5.17263 84.7048 3.77619 86.5475 2.68145L86.8912 2.47727L88.1143 1.75063C88.6866 1.41061 89.2988 1.14276 89.937 0.953195L90.8231 0.689974C90.9808 0.643116 91.1445 0.619318 91.3091 0.619318C91.8127 0.619318 92.2906 0.396899 92.6148 0.0115909L92.6246 0H86.547C85.1826 0 83.8238 0.174894 82.5039 0.520407C79.1344 1.40242 76.1458 3.36206 73.9937 6.10058L71.2428 9.60115C67.1985 14.7474 65 21.1029 65 27.6482Z" fill="#C4C4C4"/>
<path d="M1023 52.5873L1012.28 43.3523V309.695C1012.28 314.074 1010.84 318.332 1008.19 321.816L1004.24 327L1007.72 326.572C1008.93 326.423 1010.04 325.835 1010.85 324.92L1013.48 321.946C1019.61 315.001 1023 306.054 1023 296.788V52.5873Z" fill="#305989"/>
<path d="M1022.62 27.5284L1023 53.2614L1012.05 44.5909V43.3523V41.4943V38.3977V27.8693V23.5341L1011.53 19.1989L1011.35 17.9262C1011.13 16.3042 1010.69 14.7186 1010.06 13.2089C1009.65 12.2493 1009.17 11.3246 1008.61 10.4442L1007.88 9.28977L1005.8 6.8125C1004.42 5.17263 1002.77 3.77619 1000.93 2.68145L1000.59 2.47727L999.365 1.75063C998.792 1.41061 998.18 1.14276 997.542 0.953195L996.656 0.689974C996.498 0.643116 996.334 0.619318 996.17 0.619318C995.666 0.619318 995.188 0.396899 994.864 0.0115909L994.854 0H1000.93C1002.3 0 1003.65 0.174894 1004.97 0.520407C1008.34 1.40242 1011.33 3.36206 1013.49 6.10058L1016.31 9.6945C1020.31 14.7868 1022.53 21.0525 1022.62 27.5284Z" fill="#C4C4C4"/>
<rect x="1058" y="158" width="18" height="138" rx="9" fill="#989898"/>
<rect width="18" height="138" rx="9" transform="matrix(-1 0 0 1 25 158)" fill="#989898"/>
<path d="M1018 276.537V180.721C1018 179.109 1018.97 177.654 1020.46 177.031L1048.46 165.319C1051.09 164.216 1054 166.152 1054 169.009V285.517C1054 288.228 1051.36 290.153 1048.78 289.325L1020.78 280.346C1019.12 279.815 1018 278.276 1018 276.537Z" fill="#5B5A5A"/>
<path d="M67 276.49L67 180.776C67 179.136 65.9986 177.662 64.4736 177.058L34.4736 165.169C31.8479 164.129 29 166.063 29 168.888L29 285.604C29 288.289 31.5935 290.212 34.1628 289.431L64.1628 280.317C65.848 279.805 67 278.251 67 276.49Z" fill="#5B5A5A"/>
<path d="M67 329H985V343.5H67V329Z" fill="#494949" stroke="#BEBEBE" stroke-width="4"/>
<path d="M1035 335V330H1067V335H1035Z" fill="#494949" stroke="#BEBEBE"/>
<path d="M1004.35 341.933V340.933H1005.35H1022.18L1035 338.384L1035 325.169L1027.32 323.988C1023.04 323.33 1018.72 323 1014.4 323H988V347H1004.35V341.933Z" fill="#494949" stroke="#BEBEBE" stroke-width="2"/>
<path d="M1064.5 313.5H1065.73C1070.57 313.5 1074.5 317.426 1074.5 322.268V340C1074.5 345.631 1070.07 350.227 1064.5 350.488V313.5Z" fill="#494949" stroke="#BEBEBE"/>
<path d="M21.6333 335V330H9.61493V335H21.6333Z" fill="#494949" stroke="#BEBEBE"/>
<path d="M49.6247 341.656V340.656H48.6247H33.1545L21.4313 338.189L21.4312 325.35L27.5489 324.354C32.0644 323.619 36.6318 323.25 41.2067 323.25H64.5V346.562H49.6247V341.656Z" fill="#494949" stroke="#BEBEBE" stroke-width="2"/>
<path d="M10.3169 313.5H9.26866C4.42606 313.5 0.500363 317.426 0.500363 322.268V340.183C0.500363 345.714 4.85145 350.227 10.3169 350.488V313.5Z" fill="#494949" stroke="#BEBEBE"/>
<rect x="280" y="230" width="473" height="87" fill="#3C77BD"/>
<g filter="url(#filter24_d)">
<path d="M286 185.5C286 182.462 288.462 180 291.5 180C294.538 180 297 182.462 297 185.5V200.391V242.578V297.422V309.5C297 312.538 294.538 315 291.5 315C288.462 315 286 312.538 286 309.5V185.5Z" fill="black"/>
</g>
<g filter="url(#filter25_d)">
<path d="M769 181.5C769 178.462 771.462 176 774.5 176C777.538 176 780 178.462 780 181.5V309.5C780 312.538 777.538 315 774.5 315C771.462 315 769 312.538 769 309.5V295.453V247.672V199.891V181.5Z" fill="black"/>
</g>
<g filter="url(#filter26_d)">
<path d="M286 194C286 192.343 287.343 191 289 191H777C778.657 191 780 192.343 780 194V249V296C780 297.657 778.657 299 777 299H289C287.343 299 286 297.657 286 296V241.029V194Z" fill="#F5DD00"/>
</g>
<rect x="489" y="63" width="95" height="13" fill="#F5DD00"/>
<path d="M498.299 68.4844C498.299 67.9635 498.169 67.7031 497.909 67.7031V66.9219H499.862C501.164 66.9219 501.815 67.4427 501.815 68.4844C501.815 69.526 501.164 70.0469 499.862 70.0469H499.471V70.4375C499.471 70.9583 499.601 71.2188 499.862 71.2188V72H497.909V71.2188C498.169 71.2188 498.299 70.9583 498.299 70.4375V68.4844ZM499.471 68.0938V68.875H499.862C500.383 68.875 500.643 68.7448 500.643 68.4844C500.643 68.224 500.383 68.0938 499.862 68.0938H499.471ZM505.336 66.9219L506.118 70.4375C506.248 70.9583 506.443 71.2188 506.704 71.2188V72H504.711V71.2188C504.896 71.2188 504.982 71.0885 504.969 70.8281H503.75C503.737 71.0885 503.823 71.2188 504.008 71.2188V72H502.016V71.2188C502.277 71.2188 502.472 70.9583 502.602 70.4375L503.383 66.9219H505.336ZM504.735 69.6562L504.387 68.0938H504.332L503.985 69.6562H504.735ZM509.381 69.2656V72H507.819V71.2188C508.079 71.2188 508.21 70.9583 508.21 70.4375V68.4844C508.21 67.9635 508.079 67.7031 507.819 67.7031V66.9219H509.381L510.553 69.6562V66.9219H512.116V67.7031C511.855 67.7031 511.725 67.9635 511.725 68.4844V70.4375C511.725 70.9583 511.855 71.2188 512.116 71.2188V72H510.553L509.381 69.2656ZM516.747 68.4844H515.965C515.965 68.224 515.705 68.0938 515.184 68.0938C514.663 68.0938 514.403 68.224 514.403 68.4844V70.4375C514.403 70.6979 514.663 70.8281 515.184 70.8281C515.705 70.8281 515.965 70.6979 515.965 70.4375H516.747V72H515.184C513.882 72 513.231 71.4792 513.231 70.4375V68.4844C513.231 67.4427 513.882 66.9219 515.184 66.9219H516.747V68.4844ZM520.792 68.875V68.4844C520.792 67.9635 520.662 67.7031 520.401 67.7031V66.9219H522.354V67.7031C522.094 67.7031 521.964 67.9635 521.964 68.4844V70.4375C521.964 70.9583 522.094 71.2188 522.354 71.2188V72H520.401V71.2188C520.662 71.2188 520.792 70.9583 520.792 70.4375V70.0469H519.62V70.4375C519.62 70.9583 519.75 71.2188 520.01 71.2188V72H518.057V71.2188C518.318 71.2188 518.448 70.9583 518.448 70.4375V68.4844C518.448 67.9635 518.318 67.7031 518.057 67.7031V66.9219H520.01V67.7031C519.75 67.7031 519.62 67.9635 519.62 68.4844V68.875H520.792ZM526.79 66.9219L527.571 70.4375C527.701 70.9583 527.897 71.2188 528.157 71.2188V72H526.165V71.2188C526.35 71.2188 526.436 71.0885 526.423 70.8281H525.204C525.191 71.0885 525.277 71.2188 525.462 71.2188V72H523.47V71.2188C523.73 71.2188 523.925 70.9583 524.055 70.4375L524.837 66.9219H526.79ZM526.188 69.6562L525.841 68.0938H525.786L525.438 69.6562H526.188ZM531.225 70.4414C531.225 70.9596 531.356 71.2188 531.616 71.2188V72H529.663V71.2188C529.923 71.2188 530.054 70.9583 530.054 70.4375V68.1016C529.663 68.1302 529.468 68.2578 529.468 68.4844H528.686V66.9219H532.593V68.4844H531.811C531.811 68.2578 531.616 68.1302 531.225 68.1016V70.4414ZM536.442 70.4414C536.442 70.9596 536.573 71.2188 536.833 71.2188V72H534.88V71.2188C535.14 71.2188 535.27 70.9583 535.27 70.4375V68.1016C534.88 68.1302 534.685 68.2578 534.685 68.4844H533.903V66.9219H537.81V68.4844H537.028C537.028 68.2578 536.833 68.1302 536.442 68.1016V70.4414ZM543.556 70.8281C544.077 70.8281 544.337 70.6979 544.337 70.4375H545.118V72H541.603V71.2188C541.863 71.2188 541.993 70.9583 541.993 70.4375V68.4844C541.993 67.9635 541.863 67.7031 541.603 67.7031V66.9219H545.118V68.4844H544.337C544.337 68.224 544.077 68.0938 543.556 68.0938H543.165V68.875H544.337V69.6562C543.816 69.9167 543.426 70.0469 543.165 70.0469V70.8281H543.556ZM549.964 71.1562C550.133 71.1979 550.322 71.2188 550.53 71.2188V72H549.046L548.382 70.75L547.718 72H546.234V71.2188C546.442 71.2188 546.631 71.1979 546.8 71.1562L547.698 69.4609L546.8 67.7656C546.631 67.724 546.442 67.7031 546.234 67.7031V66.9219H547.718L548.382 68.1719L549.046 66.9219H550.53V67.7031C550.322 67.7031 550.133 67.724 549.964 67.7656L549.066 69.4609L549.964 71.1562ZM552.036 68.4844C552.036 67.9635 551.906 67.7031 551.646 67.7031V66.9219H553.599C554.901 66.9219 555.552 67.4427 555.552 68.4844C555.552 69.526 554.901 70.0469 553.599 70.0469H553.208V70.4375C553.208 70.9583 553.338 71.2188 553.599 71.2188V72H551.646V71.2188C551.906 71.2188 552.036 70.9583 552.036 70.4375V68.4844ZM553.208 68.0938V68.875H553.599C554.12 68.875 554.38 68.7448 554.38 68.4844C554.38 68.224 554.12 68.0938 553.599 68.0938H553.208ZM556.831 68.4844C556.831 67.9635 556.701 67.7031 556.441 67.7031V66.9219H558.394C559.696 66.9219 560.347 67.4427 560.347 68.4844C560.347 69.237 560.007 69.7174 559.327 69.9258L559.98 71.1562C560.147 71.1979 560.334 71.2188 560.542 71.2188V72H559.058L558.027 70.0469H558.003V70.4375C558.003 70.9583 558.133 71.2188 558.394 71.2188V72H556.441V71.2188C556.701 71.2188 556.831 70.9583 556.831 70.4375V68.4844ZM558.003 68.0938V68.875H558.394C558.915 68.875 559.175 68.7448 559.175 68.4844C559.175 68.224 558.915 68.0938 558.394 68.0938H558.003ZM563.611 70.8281C564.132 70.8281 564.392 70.6979 564.392 70.4375H565.173V72H561.658V71.2188C561.918 71.2188 562.048 70.9583 562.048 70.4375V68.4844C562.048 67.9635 561.918 67.7031 561.658 67.7031V66.9219H565.173V68.4844H564.392C564.392 68.224 564.132 68.0938 563.611 68.0938H563.22V68.875H564.392V69.6562C563.871 69.9167 563.481 70.0469 563.22 70.0469V70.8281H563.611ZM566.484 70.4375H567.265C567.265 70.6979 567.526 70.8281 568.046 70.8281H568.242C568.632 70.8281 568.828 70.6979 568.828 70.4375C568.828 70.1771 568.632 70.0469 568.242 70.0469C567.07 70.0469 566.484 69.526 566.484 68.4844C566.484 67.4427 567.07 66.9219 568.242 66.9219H570V68.4844H569.218C569.218 68.224 568.958 68.0938 568.437 68.0938H568.242C567.851 68.0938 567.656 68.224 567.656 68.4844C567.656 68.7448 567.851 68.875 568.242 68.875C569.414 68.875 570 69.3958 570 70.4375C570 71.4792 569.414 72 568.242 72H566.484V70.4375ZM571.185 70.4375H571.966C571.966 70.6979 572.227 70.8281 572.748 70.8281H572.943C573.334 70.8281 573.529 70.6979 573.529 70.4375C573.529 70.1771 573.334 70.0469 572.943 70.0469C571.771 70.0469 571.185 69.526 571.185 68.4844C571.185 67.4427 571.771 66.9219 572.943 66.9219H574.701V68.4844H573.92C573.92 68.224 573.659 68.0938 573.138 68.0938H572.943C572.552 68.0938 572.357 68.224 572.357 68.4844C572.357 68.7448 572.552 68.875 572.943 68.875C574.115 68.875 574.701 69.3958 574.701 70.4375C574.701 71.4792 574.115 72 572.943 72H571.185V70.4375Z" fill="#998A02"/>
<rect x="487" y="61" width="5" height="18" fill="#335C8C"/>
<rect x="581" y="61" width="5" height="18" fill="#335C8C"/>
<defs>
<filter id="filter0_ii" x="173.584" y="66.8864" width="89.3101" height="264.114" filterUnits="userSpaceOnUse" color-interpolation-filters="sRGB">
<feFlood flood-opacity="0" result="BackgroundImageFix"/>
<feBlend mode="normal" in="SourceGraphic" in2="BackgroundImageFix" result="shape"/>
<feColorMatrix in="SourceAlpha" type="matrix" values="0 0 0 0 0 0 0 0 0 0 0 0 0 0 0 0 0 0 127 0" result="hardAlpha"/>
<feOffset dx="4"/>
<feGaussianBlur stdDeviation="2"/>
<feComposite in2="hardAlpha" operator="arithmetic" k2="-1" k3="1"/>
<feColorMatrix type="matrix" values="0 0 0 0 0 0 0 0 0 0 0 0 0 0 0 0 0 0 0.25 0"/>
<feBlend mode="normal" in2="shape" result="effect1_innerShadow"/>
<feColorMatrix in="SourceAlpha" type="matrix" values="0 0 0 0 0 0 0 0 0 0 0 0 0 0 0 0 0 0 127 0" result="hardAlpha"/>
<feOffset dx="-4" dy="4"/>
<feGaussianBlur stdDeviation="2"/>
<feComposite in2="hardAlpha" operator="arithmetic" k2="-1" k3="1"/>
<feColorMatrix type="matrix" values="0 0 0 0 0 0 0 0 0 0 0 0 0 0 0 0 0 0 0.25 0"/>
<feBlend mode="normal" in2="effect1_innerShadow" result="effect2_innerShadow"/>
</filter>
<filter id="filter1_ii" x="804.258" y="66.8864" width="89.3101" height="264.114" filterUnits="userSpaceOnUse" color-interpolation-filters="sRGB">
<feFlood flood-opacity="0" result="BackgroundImageFix"/>
<feBlend mode="normal" in="SourceGraphic" in2="BackgroundImageFix" result="shape"/>
<feColorMatrix in="SourceAlpha" type="matrix" values="0 0 0 0 0 0 0 0 0 0 0 0 0 0 0 0 0 0 127 0" result="hardAlpha"/>
<feOffset dx="4"/>
<feGaussianBlur stdDeviation="2"/>
<feComposite in2="hardAlpha" operator="arithmetic" k2="-1" k3="1"/>
<feColorMatrix type="matrix" values="0 0 0 0 0 0 0 0 0 0 0 0 0 0 0 0 0 0 0.25 0"/>
<feBlend mode="normal" in2="shape" result="effect1_innerShadow"/>
<feColorMatrix in="SourceAlpha" type="matrix" values="0 0 0 0 0 0 0 0 0 0 0 0 0 0 0 0 0 0 127 0" result="hardAlpha"/>
<feOffset dx="-4" dy="4"/>
<feGaussianBlur stdDeviation="2"/>
<feComposite in2="hardAlpha" operator="arithmetic" k2="-1" k3="1"/>
<feColorMatrix type="matrix" values="0 0 0 0 0 0 0 0 0 0 0 0 0 0 0 0 0 0 0.25 0"/>
<feBlend mode="normal" in2="effect1_innerShadow" result="effect2_innerShadow"/>
</filter>
<filter id="filter2_ii" x="173.584" y="94" width="89.3101" height="69" filterUnits="userSpaceOnUse" color-interpolation-filters="sRGB">
<feFlood flood-opacity="0" result="BackgroundImageFix"/>
<feBlend mode="normal" in="SourceGraphic" in2="BackgroundImageFix" result="shape"/>
<feColorMatrix in="SourceAlpha" type="matrix" values="0 0 0 0 0 0 0 0 0 0 0 0 0 0 0 0 0 0 127 0" result="hardAlpha"/>
<feOffset dx="-4"/>
<feGaussianBlur stdDeviation="2"/>
<feComposite in2="hardAlpha" operator="arithmetic" k2="-1" k3="1"/>
<feColorMatrix type="matrix" values="0 0 0 0 0 0 0 0 0 0 0 0 0 0 0 0 0 0 0.25 0"/>
<feBlend mode="normal" in2="shape" result="effect1_innerShadow"/>
<feColorMatrix in="SourceAlpha" type="matrix" values="0 0 0 0 0 0 0 0 0 0 0 0 0 0 0 0 0 0 127 0" result="hardAlpha"/>
<feOffset dx="4"/>
<feGaussianBlur stdDeviation="2"/>
<feComposite in2="hardAlpha" operator="arithmetic" k2="-1" k3="1"/>
<feColorMatrix type="matrix" values="0 0 0 0 0 0 0 0 0 0 0 0 0 0 0 0 0 0 0.25 0"/>
<feBlend mode="normal" in2="effect1_innerShadow" result="effect2_innerShadow"/>
</filter>
<filter id="filter3_ii" x="804.258" y="94" width="89.3101" height="69" filterUnits="userSpaceOnUse" color-interpolation-filters="sRGB">
<feFlood flood-opacity="0" result="BackgroundImageFix"/>
<feBlend mode="normal" in="SourceGraphic" in2="BackgroundImageFix" result="shape"/>
<feColorMatrix in="SourceAlpha" type="matrix" values="0 0 0 0 0 0 0 0 0 0 0 0 0 0 0 0 0 0 127 0" result="hardAlpha"/>
<feOffset dx="-4"/>
<feGaussianBlur stdDeviation="2"/>
<feComposite in2="hardAlpha" operator="arithmetic" k2="-1" k3="1"/>
<feColorMatrix type="matrix" values="0 0 0 0 0 0 0 0 0 0 0 0 0 0 0 0 0 0 0.25 0"/>
<feBlend mode="normal" in2="shape" result="effect1_innerShadow"/>
<feColorMatrix in="SourceAlpha" type="matrix" values="0 0 0 0 0 0 0 0 0 0 0 0 0 0 0 0 0 0 127 0" result="hardAlpha"/>
<feOffset dx="4"/>
<feGaussianBlur stdDeviation="2"/>
<feComposite in2="hardAlpha" operator="arithmetic" k2="-1" k3="1"/>
<feColorMatrix type="matrix" values="0 0 0 0 0 0 0 0 0 0 0 0 0 0 0 0 0 0 0.25 0"/>
<feBlend mode="normal" in2="effect1_innerShadow" result="effect2_innerShadow"/>
</filter>
<filter id="filter4_ii" x="191.178" y="105" width="56.2067" height="11.0101" filterUnits="userSpaceOnUse" color-interpolation-filters="sRGB">
<feFlood flood-opacity="0" result="BackgroundImageFix"/>
<feBlend mode="normal" in="SourceGraphic" in2="BackgroundImageFix" result="shape"/>
<feColorMatrix in="SourceAlpha" type="matrix" values="0 0 0 0 0 0 0 0 0 0 0 0 0 0 0 0 0 0 127 0" result="hardAlpha"/>
<feOffset dx="1"/>
<feGaussianBlur stdDeviation="1"/>
<feComposite in2="hardAlpha" operator="arithmetic" k2="-1" k3="1"/>
<feColorMatrix type="matrix" values="0 0 0 0 0 0 0 0 0 0 0 0 0 0 0 0 0 0 0.25 0"/>
<feBlend mode="normal" in2="shape" result="effect1_innerShadow"/>
<feColorMatrix in="SourceAlpha" type="matrix" values="0 0 0 0 0 0 0 0 0 0 0 0 0 0 0 0 0 0 127 0" result="hardAlpha"/>
<feOffset dx="-1"/>
<feGaussianBlur stdDeviation="1"/>
<feComposite in2="hardAlpha" operator="arithmetic" k2="-1" k3="1"/>
<feColorMatrix type="matrix" values="0 0 0 0 0 0 0 0 0 0 0 0 0 0 0 0 0 0 0.25 0"/>
<feBlend mode="normal" in2="effect1_innerShadow" result="effect2_innerShadow"/>
</filter>
<filter id="filter5_ii" x="191.178" y="143.535" width="56.2067" height="11.0101" filterUnits="userSpaceOnUse" color-interpolation-filters="sRGB">
<feFlood flood-opacity="0" result="BackgroundImageFix"/>
<feBlend mode="normal" in="SourceGraphic" in2="BackgroundImageFix" result="shape"/>
<feColorMatrix in="SourceAlpha" type="matrix" values="0 0 0 0 0 0 0 0 0 0 0 0 0 0 0 0 0 0 127 0" result="hardAlpha"/>
<feOffset dx="1"/>
<feGaussianBlur stdDeviation="1"/>
<feComposite in2="hardAlpha" operator="arithmetic" k2="-1" k3="1"/>
<feColorMatrix type="matrix" values="0 0 0 0 0 0 0 0 0 0 0 0 0 0 0 0 0 0 0.25 0"/>
<feBlend mode="normal" in2="shape" result="effect1_innerShadow"/>
<feColorMatrix in="SourceAlpha" type="matrix" values="0 0 0 0 0 0 0 0 0 0 0 0 0 0 0 0 0 0 127 0" result="hardAlpha"/>
<feOffset dx="-1"/>
<feGaussianBlur stdDeviation="1"/>
<feComposite in2="hardAlpha" operator="arithmetic" k2="-1" k3="1"/>
<feColorMatrix type="matrix" values="0 0 0 0 0 0 0 0 0 0 0 0 0 0 0 0 0 0 0.25 0"/>
<feBlend mode="normal" in2="effect1_innerShadow" result="effect2_innerShadow"/>
</filter>
<filter id="filter6_ii" x="821.852" y="105" width="56.2067" height="11.0101" filterUnits="userSpaceOnUse" color-interpolation-filters="sRGB">
<feFlood flood-opacity="0" result="BackgroundImageFix"/>
<feBlend mode="normal" in="SourceGraphic" in2="BackgroundImageFix" result="shape"/>
<feColorMatrix in="SourceAlpha" type="matrix" values="0 0 0 0 0 0 0 0 0 0 0 0 0 0 0 0 0 0 127 0" result="hardAlpha"/>
<feOffset dx="1"/>
<feGaussianBlur stdDeviation="1"/>
<feComposite in2="hardAlpha" operator="arithmetic" k2="-1" k3="1"/>
<feColorMatrix type="matrix" values="0 0 0 0 0 0 0 0 0 0 0 0 0 0 0 0 0 0 0.25 0"/>
<feBlend mode="normal" in2="shape" result="effect1_innerShadow"/>
<feColorMatrix in="SourceAlpha" type="matrix" values="0 0 0 0 0 0 0 0 0 0 0 0 0 0 0 0 0 0 127 0" result="hardAlpha"/>
<feOffset dx="-1"/>
<feGaussianBlur stdDeviation="1"/>
<feComposite in2="hardAlpha" operator="arithmetic" k2="-1" k3="1"/>
<feColorMatrix type="matrix" values="0 0 0 0 0 0 0 0 0 0 0 0 0 0 0 0 0 0 0.25 0"/>
<feBlend mode="normal" in2="effect1_innerShadow" result="effect2_innerShadow"/>
</filter>
<filter id="filter7_ii" x="821.852" y="143.535" width="56.2067" height="11.0101" filterUnits="userSpaceOnUse" color-interpolation-filters="sRGB">
<feFlood flood-opacity="0" result="BackgroundImageFix"/>
<feBlend mode="normal" in="SourceGraphic" in2="BackgroundImageFix" result="shape"/>
<feColorMatrix in="SourceAlpha" type="matrix" values="0 0 0 0 0 0 0 0 0 0 0 0 0 0 0 0 0 0 127 0" result="hardAlpha"/>
<feOffset dx="1"/>
<feGaussianBlur stdDeviation="1"/>
<feComposite in2="hardAlpha" operator="arithmetic" k2="-1" k3="1"/>
<feColorMatrix type="matrix" values="0 0 0 0 0 0 0 0 0 0 0 0 0 0 0 0 0 0 0.25 0"/>
<feBlend mode="normal" in2="shape" result="effect1_innerShadow"/>
<feColorMatrix in="SourceAlpha" type="matrix" values="0 0 0 0 0 0 0 0 0 0 0 0 0 0 0 0 0 0 127 0" result="hardAlpha"/>
<feOffset dx="-1"/>
<feGaussianBlur stdDeviation="1"/>
<feComposite in2="hardAlpha" operator="arithmetic" k2="-1" k3="1"/>
<feColorMatrix type="matrix" values="0 0 0 0 0 0 0 0 0 0 0 0 0 0 0 0 0 0 0.25 0"/>
<feBlend mode="normal" in2="effect1_innerShadow" result="effect2_innerShadow"/>
</filter>
<filter id="filter8_ii" x="93.188" y="105" width="56.2067" height="11.0101" filterUnits="userSpaceOnUse" color-interpolation-filters="sRGB">
<feFlood flood-opacity="0" result="BackgroundImageFix"/>
<feBlend mode="normal" in="SourceGraphic" in2="BackgroundImageFix" result="shape"/>
<feColorMatrix in="SourceAlpha" type="matrix" values="0 0 0 0 0 0 0 0 0 0 0 0 0 0 0 0 0 0 127 0" result="hardAlpha"/>
<feOffset dx="1"/>
<feGaussianBlur stdDeviation="1"/>
<feComposite in2="hardAlpha" operator="arithmetic" k2="-1" k3="1"/>
<feColorMatrix type="matrix" values="0 0 0 0 0 0 0 0 0 0 0 0 0 0 0 0 0 0 0.25 0"/>
<feBlend mode="normal" in2="shape" result="effect1_innerShadow"/>
<feColorMatrix in="SourceAlpha" type="matrix" values="0 0 0 0 0 0 0 0 0 0 0 0 0 0 0 0 0 0 127 0" result="hardAlpha"/>
<feOffset dx="-1"/>
<feGaussianBlur stdDeviation="1"/>
<feComposite in2="hardAlpha" operator="arithmetic" k2="-1" k3="1"/>
<feColorMatrix type="matrix" values="0 0 0 0 0 0 0 0 0 0 0 0 0 0 0 0 0 0 0.25 0"/>
<feBlend mode="normal" in2="effect1_innerShadow" result="effect2_innerShadow"/>
</filter>
<filter id="filter9_ii" x="93.188" y="143.535" width="56.2067" height="11.0101" filterUnits="userSpaceOnUse" color-interpolation-filters="sRGB">
<feFlood flood-opacity="0" result="BackgroundImageFix"/>
<feBlend mode="normal" in="SourceGraphic" in2="BackgroundImageFix" result="shape"/>
<feColorMatrix in="SourceAlpha" type="matrix" values="0 0 0 0 0 0 0 0 0 0 0 0 0 0 0 0 0 0 127 0" result="hardAlpha"/>
<feOffset dx="1"/>
<feGaussianBlur stdDeviation="1"/>
<feComposite in2="hardAlpha" operator="arithmetic" k2="-1" k3="1"/>
<feColorMatrix type="matrix" values="0 0 0 0 0 0 0 0 0 0 0 0 0 0 0 0 0 0 0.25 0"/>
<feBlend mode="normal" in2="shape" result="effect1_innerShadow"/>
<feColorMatrix in="SourceAlpha" type="matrix" values="0 0 0 0 0 0 0 0 0 0 0 0 0 0 0 0 0 0 127 0" result="hardAlpha"/>
<feOffset dx="-1"/>
<feGaussianBlur stdDeviation="1"/>
<feComposite in2="hardAlpha" operator="arithmetic" k2="-1" k3="1"/>
<feColorMatrix type="matrix" values="0 0 0 0 0 0 0 0 0 0 0 0 0 0 0 0 0 0 0.25 0"/>
<feBlend mode="normal" in2="effect1_innerShadow" result="effect2_innerShadow"/>
</filter>
<filter id="filter10_ii" x="284.997" y="105" width="56.2067" height="11.0101" filterUnits="userSpaceOnUse" color-interpolation-filters="sRGB">
<feFlood flood-opacity="0" result="BackgroundImageFix"/>
<feBlend mode="normal" in="SourceGraphic" in2="BackgroundImageFix" result="shape"/>
<feColorMatrix in="SourceAlpha" type="matrix" values="0 0 0 0 0 0 0 0 0 0 0 0 0 0 0 0 0 0 127 0" result="hardAlpha"/>
<feOffset dx="1"/>
<feGaussianBlur stdDeviation="1"/>
<feComposite in2="hardAlpha" operator="arithmetic" k2="-1" k3="1"/>
<feColorMatrix type="matrix" values="0 0 0 0 0 0 0 0 0 0 0 0 0 0 0 0 0 0 0.25 0"/>
<feBlend mode="normal" in2="shape" result="effect1_innerShadow"/>
<feColorMatrix in="SourceAlpha" type="matrix" values="0 0 0 0 0 0 0 0 0 0 0 0 0 0 0 0 0 0 127 0" result="hardAlpha"/>
<feOffset dx="-1"/>
<feGaussianBlur stdDeviation="1"/>
<feComposite in2="hardAlpha" operator="arithmetic" k2="-1" k3="1"/>
<feColorMatrix type="matrix" values="0 0 0 0 0 0 0 0 0 0 0 0 0 0 0 0 0 0 0.25 0"/>
<feBlend mode="normal" in2="effect1_innerShadow" result="effect2_innerShadow"/>
</filter>
<filter id="filter11_ii" x="284.997" y="143.535" width="56.2067" height="11.0101" filterUnits="userSpaceOnUse" color-interpolation-filters="sRGB">
<feFlood flood-opacity="0" result="BackgroundImageFix"/>
<feBlend mode="normal" in="SourceGraphic" in2="BackgroundImageFix" result="shape"/>
<feColorMatrix in="SourceAlpha" type="matrix" values="0 0 0 0 0 0 0 0 0 0 0 0 0 0 0 0 0 0 127 0" result="hardAlpha"/>
<feOffset dx="1"/>
<feGaussianBlur stdDeviation="1"/>
<feComposite in2="hardAlpha" operator="arithmetic" k2="-1" k3="1"/>
<feColorMatrix type="matrix" values="0 0 0 0 0 0 0 0 0 0 0 0 0 0 0 0 0 0 0.25 0"/>
<feBlend mode="normal" in2="shape" result="effect1_innerShadow"/>
<feColorMatrix in="SourceAlpha" type="matrix" values="0 0 0 0 0 0 0 0 0 0 0 0 0 0 0 0 0 0 127 0" result="hardAlpha"/>
<feOffset dx="-1"/>
<feGaussianBlur stdDeviation="1"/>
<feComposite in2="hardAlpha" operator="arithmetic" k2="-1" k3="1"/>
<feColorMatrix type="matrix" values="0 0 0 0 0 0 0 0 0 0 0 0 0 0 0 0 0 0 0.25 0"/>
<feBlend mode="normal" in2="effect1_innerShadow" result="effect2_innerShadow"/>
</filter>
<filter id="filter12_ii" x="373.604" y="105" width="56.2067" height="11.0101" filterUnits="userSpaceOnUse" color-interpolation-filters="sRGB">
<feFlood flood-opacity="0" result="BackgroundImageFix"/>
<feBlend mode="normal" in="SourceGraphic" in2="BackgroundImageFix" result="shape"/>
<feColorMatrix in="SourceAlpha" type="matrix" values="0 0 0 0 0 0 0 0 0 0 0 0 0 0 0 0 0 0 127 0" result="hardAlpha"/>
<feOffset dx="1"/>
<feGaussianBlur stdDeviation="1"/>
<feComposite in2="hardAlpha" operator="arithmetic" k2="-1" k3="1"/>
<feColorMatrix type="matrix" values="0 0 0 0 0 0 0 0 0 0 0 0 0 0 0 0 0 0 0.25 0"/>
<feBlend mode="normal" in2="shape" result="effect1_innerShadow"/>
<feColorMatrix in="SourceAlpha" type="matrix" values="0 0 0 0 0 0 0 0 0 0 0 0 0 0 0 0 0 0 127 0" result="hardAlpha"/>
<feOffset dx="-1"/>
<feGaussianBlur stdDeviation="1"/>
<feComposite in2="hardAlpha" operator="arithmetic" k2="-1" k3="1"/>
<feColorMatrix type="matrix" values="0 0 0 0 0 0 0 0 0 0 0 0 0 0 0 0 0 0 0.25 0"/>
<feBlend mode="normal" in2="effect1_innerShadow" result="effect2_innerShadow"/>
</filter>
<filter id="filter13_ii" x="373.604" y="143.535" width="56.2067" height="11.0101" filterUnits="userSpaceOnUse" color-interpolation-filters="sRGB">
<feFlood flood-opacity="0" result="BackgroundImageFix"/>
<feBlend mode="normal" in="SourceGraphic" in2="BackgroundImageFix" result="shape"/>
<feColorMatrix in="SourceAlpha" type="matrix" values="0 0 0 0 0 0 0 0 0 0 0 0 0 0 0 0 0 0 127 0" result="hardAlpha"/>
<feOffset dx="1"/>
<feGaussianBlur stdDeviation="1"/>
<feComposite in2="hardAlpha" operator="arithmetic" k2="-1" k3="1"/>
<feColorMatrix type="matrix" values="0 0 0 0 0 0 0 0 0 0 0 0 0 0 0 0 0 0 0.25 0"/>
<feBlend mode="normal" in2="shape" result="effect1_innerShadow"/>
<feColorMatrix in="SourceAlpha" type="matrix" values="0 0 0 0 0 0 0 0 0 0 0 0 0 0 0 0 0 0 127 0" result="hardAlpha"/>
<feOffset dx="-1"/>
<feGaussianBlur stdDeviation="1"/>
<feComposite in2="hardAlpha" operator="arithmetic" k2="-1" k3="1"/>
<feColorMatrix type="matrix" values="0 0 0 0 0 0 0 0 0 0 0 0 0 0 0 0 0 0 0.25 0"/>
<feBlend mode="normal" in2="effect1_innerShadow" result="effect2_innerShadow"/>
</filter>
<filter id="filter14_ii" x="462.211" y="105" width="56.2067" height="11.0101" filterUnits="userSpaceOnUse" color-interpolation-filters="sRGB">
<feFlood flood-opacity="0" result="BackgroundImageFix"/>
<feBlend mode="normal" in="SourceGraphic" in2="BackgroundImageFix" result="shape"/>
<feColorMatrix in="SourceAlpha" type="matrix" values="0 0 0 0 0 0 0 0 0 0 0 0 0 0 0 0 0 0 127 0" result="hardAlpha"/>
<feOffset dx="1"/>
<feGaussianBlur stdDeviation="1"/>
<feComposite in2="hardAlpha" operator="arithmetic" k2="-1" k3="1"/>
<feColorMatrix type="matrix" values="0 0 0 0 0 0 0 0 0 0 0 0 0 0 0 0 0 0 0.25 0"/>
<feBlend mode="normal" in2="shape" result="effect1_innerShadow"/>
<feColorMatrix in="SourceAlpha" type="matrix" values="0 0 0 0 0 0 0 0 0 0 0 0 0 0 0 0 0 0 127 0" result="hardAlpha"/>
<feOffset dx="-1"/>
<feGaussianBlur stdDeviation="1"/>
<feComposite in2="hardAlpha" operator="arithmetic" k2="-1" k3="1"/>
<feColorMatrix type="matrix" values="0 0 0 0 0 0 0 0 0 0 0 0 0 0 0 0 0 0 0.25 0"/>
<feBlend mode="normal" in2="effect1_innerShadow" result="effect2_innerShadow"/>
</filter>
<filter id="filter15_ii" x="462.211" y="143.535" width="56.2067" height="11.0101" filterUnits="userSpaceOnUse" color-interpolation-filters="sRGB">
<feFlood flood-opacity="0" result="BackgroundImageFix"/>
<feBlend mode="normal" in="SourceGraphic" in2="BackgroundImageFix" result="shape"/>
<feColorMatrix in="SourceAlpha" type="matrix" values="0 0 0 0 0 0 0 0 0 0 0 0 0 0 0 0 0 0 127 0" result="hardAlpha"/>
<feOffset dx="1"/>
<feGaussianBlur stdDeviation="1"/>
<feComposite in2="hardAlpha" operator="arithmetic" k2="-1" k3="1"/>
<feColorMatrix type="matrix" values="0 0 0 0 0 0 0 0 0 0 0 0 0 0 0 0 0 0 0.25 0"/>
<feBlend mode="normal" in2="shape" result="effect1_innerShadow"/>
<feColorMatrix in="SourceAlpha" type="matrix" values="0 0 0 0 0 0 0 0 0 0 0 0 0 0 0 0 0 0 127 0" result="hardAlpha"/>
<feOffset dx="-1"/>
<feGaussianBlur stdDeviation="1"/>
<feComposite in2="hardAlpha" operator="arithmetic" k2="-1" k3="1"/>
<feColorMatrix type="matrix" values="0 0 0 0 0 0 0 0 0 0 0 0 0 0 0 0 0 0 0.25 0"/>
<feBlend mode="normal" in2="effect1_innerShadow" result="effect2_innerShadow"/>
</filter>
<filter id="filter16_ii" x="550.818" y="105" width="56.2067" height="11.0101" filterUnits="userSpaceOnUse" color-interpolation-filters="sRGB">
<feFlood flood-opacity="0" result="BackgroundImageFix"/>
<feBlend mode="normal" in="SourceGraphic" in2="BackgroundImageFix" result="shape"/>
<feColorMatrix in="SourceAlpha" type="matrix" values="0 0 0 0 0 0 0 0 0 0 0 0 0 0 0 0 0 0 127 0" result="hardAlpha"/>
<feOffset dx="1"/>
<feGaussianBlur stdDeviation="1"/>
<feComposite in2="hardAlpha" operator="arithmetic" k2="-1" k3="1"/>
<feColorMatrix type="matrix" values="0 0 0 0 0 0 0 0 0 0 0 0 0 0 0 0 0 0 0.25 0"/>
<feBlend mode="normal" in2="shape" result="effect1_innerShadow"/>
<feColorMatrix in="SourceAlpha" type="matrix" values="0 0 0 0 0 0 0 0 0 0 0 0 0 0 0 0 0 0 127 0" result="hardAlpha"/>
<feOffset dx="-1"/>
<feGaussianBlur stdDeviation="1"/>
<feComposite in2="hardAlpha" operator="arithmetic" k2="-1" k3="1"/>
<feColorMatrix type="matrix" values="0 0 0 0 0 0 0 0 0 0 0 0 0 0 0 0 0 0 0.25 0"/>
<feBlend mode="normal" in2="effect1_innerShadow" result="effect2_innerShadow"/>
</filter>
<filter id="filter17_ii" x="550.818" y="143.535" width="56.2067" height="11.0101" filterUnits="userSpaceOnUse" color-interpolation-filters="sRGB">
<feFlood flood-opacity="0" result="BackgroundImageFix"/>
<feBlend mode="normal" in="SourceGraphic" in2="BackgroundImageFix" result="shape"/>
<feColorMatrix in="SourceAlpha" type="matrix" values="0 0 0 0 0 0 0 0 0 0 0 0 0 0 0 0 0 0 127 0" result="hardAlpha"/>
<feOffset dx="1"/>
<feGaussianBlur stdDeviation="1"/>
<feComposite in2="hardAlpha" operator="arithmetic" k2="-1" k3="1"/>
<feColorMatrix type="matrix" values="0 0 0 0 0 0 0 0 0 0 0 0 0 0 0 0 0 0 0.25 0"/>
<feBlend mode="normal" in2="shape" result="effect1_innerShadow"/>
<feColorMatrix in="SourceAlpha" type="matrix" values="0 0 0 0 0 0 0 0 0 0 0 0 0 0 0 0 0 0 127 0" result="hardAlpha"/>
<feOffset dx="-1"/>
<feGaussianBlur stdDeviation="1"/>
<feComposite in2="hardAlpha" operator="arithmetic" k2="-1" k3="1"/>
<feColorMatrix type="matrix" values="0 0 0 0 0 0 0 0 0 0 0 0 0 0 0 0 0 0 0.25 0"/>
<feBlend mode="normal" in2="effect1_innerShadow" result="effect2_innerShadow"/>
</filter>
<filter id="filter18_ii" x="639.426" y="105" width="56.2067" height="11.0101" filterUnits="userSpaceOnUse" color-interpolation-filters="sRGB">
<feFlood flood-opacity="0" result="BackgroundImageFix"/>
<feBlend mode="normal" in="SourceGraphic" in2="BackgroundImageFix" result="shape"/>
<feColorMatrix in="SourceAlpha" type="matrix" values="0 0 0 0 0 0 0 0 0 0 0 0 0 0 0 0 0 0 127 0" result="hardAlpha"/>
<feOffset dx="1"/>
<feGaussianBlur stdDeviation="1"/>
<feComposite in2="hardAlpha" operator="arithmetic" k2="-1" k3="1"/>
<feColorMatrix type="matrix" values="0 0 0 0 0 0 0 0 0 0 0 0 0 0 0 0 0 0 0.25 0"/>
<feBlend mode="normal" in2="shape" result="effect1_innerShadow"/>
<feColorMatrix in="SourceAlpha" type="matrix" values="0 0 0 0 0 0 0 0 0 0 0 0 0 0 0 0 0 0 127 0" result="hardAlpha"/>
<feOffset dx="-1"/>
<feGaussianBlur stdDeviation="1"/>
<feComposite in2="hardAlpha" operator="arithmetic" k2="-1" k3="1"/>
<feColorMatrix type="matrix" values="0 0 0 0 0 0 0 0 0 0 0 0 0 0 0 0 0 0 0.25 0"/>
<feBlend mode="normal" in2="effect1_innerShadow" result="effect2_innerShadow"/>
</filter>
<filter id="filter19_ii" x="639.426" y="143.535" width="56.2067" height="11.0101" filterUnits="userSpaceOnUse" color-interpolation-filters="sRGB">
<feFlood flood-opacity="0" result="BackgroundImageFix"/>
<feBlend mode="normal" in="SourceGraphic" in2="BackgroundImageFix" result="shape"/>
<feColorMatrix in="SourceAlpha" type="matrix" values="0 0 0 0 0 0 0 0 0 0 0 0 0 0 0 0 0 0 127 0" result="hardAlpha"/>
<feOffset dx="1"/>
<feGaussianBlur stdDeviation="1"/>
<feComposite in2="hardAlpha" operator="arithmetic" k2="-1" k3="1"/>
<feColorMatrix type="matrix" values="0 0 0 0 0 0 0 0 0 0 0 0 0 0 0 0 0 0 0.25 0"/>
<feBlend mode="normal" in2="shape" result="effect1_innerShadow"/>
<feColorMatrix in="SourceAlpha" type="matrix" values="0 0 0 0 0 0 0 0 0 0 0 0 0 0 0 0 0 0 127 0" result="hardAlpha"/>
<feOffset dx="-1"/>
<feGaussianBlur stdDeviation="1"/>
<feComposite in2="hardAlpha" operator="arithmetic" k2="-1" k3="1"/>
<feColorMatrix type="matrix" values="0 0 0 0 0 0 0 0 0 0 0 0 0 0 0 0 0 0 0.25 0"/>
<feBlend mode="normal" in2="effect1_innerShadow" result="effect2_innerShadow"/>
</filter>
<filter id="filter20_ii" x="728.032" y="105" width="56.2067" height="11.0101" filterUnits="userSpaceOnUse" color-interpolation-filters="sRGB">
<feFlood flood-opacity="0" result="BackgroundImageFix"/>
<feBlend mode="normal" in="SourceGraphic" in2="BackgroundImageFix" result="shape"/>
<feColorMatrix in="SourceAlpha" type="matrix" values="0 0 0 0 0 0 0 0 0 0 0 0 0 0 0 0 0 0 127 0" result="hardAlpha"/>
<feOffset dx="1"/>
<feGaussianBlur stdDeviation="1"/>
<feComposite in2="hardAlpha" operator="arithmetic" k2="-1" k3="1"/>
<feColorMatrix type="matrix" values="0 0 0 0 0 0 0 0 0 0 0 0 0 0 0 0 0 0 0.25 0"/>
<feBlend mode="normal" in2="shape" result="effect1_innerShadow"/>
<feColorMatrix in="SourceAlpha" type="matrix" values="0 0 0 0 0 0 0 0 0 0 0 0 0 0 0 0 0 0 127 0" result="hardAlpha"/>
<feOffset dx="-1"/>
<feGaussianBlur stdDeviation="1"/>
<feComposite in2="hardAlpha" operator="arithmetic" k2="-1" k3="1"/>
<feColorMatrix type="matrix" values="0 0 0 0 0 0 0 0 0 0 0 0 0 0 0 0 0 0 0.25 0"/>
<feBlend mode="normal" in2="effect1_innerShadow" result="effect2_innerShadow"/>
</filter>
<filter id="filter21_ii" x="728.032" y="143.535" width="56.2067" height="11.0101" filterUnits="userSpaceOnUse" color-interpolation-filters="sRGB">
<feFlood flood-opacity="0" result="BackgroundImageFix"/>
<feBlend mode="normal" in="SourceGraphic" in2="BackgroundImageFix" result="shape"/>
<feColorMatrix in="SourceAlpha" type="matrix" values="0 0 0 0 0 0 0 0 0 0 0 0 0 0 0 0 0 0 127 0" result="hardAlpha"/>
<feOffset dx="1"/>
<feGaussianBlur stdDeviation="1"/>
<feComposite in2="hardAlpha" operator="arithmetic" k2="-1" k3="1"/>
<feColorMatrix type="matrix" values="0 0 0 0 0 0 0 0 0 0 0 0 0 0 0 0 0 0 0.25 0"/>
<feBlend mode="normal" in2="shape" result="effect1_innerShadow"/>
<feColorMatrix in="SourceAlpha" type="matrix" values="0 0 0 0 0 0 0 0 0 0 0 0 0 0 0 0 0 0 127 0" result="hardAlpha"/>
<feOffset dx="-1"/>
<feGaussianBlur stdDeviation="1"/>
<feComposite in2="hardAlpha" operator="arithmetic" k2="-1" k3="1"/>
<feColorMatrix type="matrix" values="0 0 0 0 0 0 0 0 0 0 0 0 0 0 0 0 0 0 0.25 0"/>
<feBlend mode="normal" in2="effect1_innerShadow" result="effect2_innerShadow"/>
</filter>
<filter id="filter22_ii" x="937.562" y="105" width="56.2067" height="11.0101" filterUnits="userSpaceOnUse" color-interpolation-filters="sRGB">
<feFlood flood-opacity="0" result="BackgroundImageFix"/>
<feBlend mode="normal" in="SourceGraphic" in2="BackgroundImageFix" result="shape"/>
<feColorMatrix in="SourceAlpha" type="matrix" values="0 0 0 0 0 0 0 0 0 0 0 0 0 0 0 0 0 0 127 0" result="hardAlpha"/>
<feOffset dx="1"/>
<feGaussianBlur stdDeviation="1"/>
<feComposite in2="hardAlpha" operator="arithmetic" k2="-1" k3="1"/>
<feColorMatrix type="matrix" values="0 0 0 0 0 0 0 0 0 0 0 0 0 0 0 0 0 0 0.25 0"/>
<feBlend mode="normal" in2="shape" result="effect1_innerShadow"/>
<feColorMatrix in="SourceAlpha" type="matrix" values="0 0 0 0 0 0 0 0 0 0 0 0 0 0 0 0 0 0 127 0" result="hardAlpha"/>
<feOffset dx="-1"/>
<feGaussianBlur stdDeviation="1"/>
<feComposite in2="hardAlpha" operator="arithmetic" k2="-1" k3="1"/>
<feColorMatrix type="matrix" values="0 0 0 0 0 0 0 0 0 0 0 0 0 0 0 0 0 0 0.25 0"/>
<feBlend mode="normal" in2="effect1_innerShadow" result="effect2_innerShadow"/>
</filter>
<filter id="filter23_ii" x="937.562" y="143.535" width="56.2067" height="11.0101" filterUnits="userSpaceOnUse" color-interpolation-filters="sRGB">
<feFlood flood-opacity="0" result="BackgroundImageFix"/>
<feBlend mode="normal" in="SourceGraphic" in2="BackgroundImageFix" result="shape"/>
<feColorMatrix in="SourceAlpha" type="matrix" values="0 0 0 0 0 0 0 0 0 0 0 0 0 0 0 0 0 0 127 0" result="hardAlpha"/>
<feOffset dx="1"/>
<feGaussianBlur stdDeviation="1"/>
<feComposite in2="hardAlpha" operator="arithmetic" k2="-1" k3="1"/>
<feColorMatrix type="matrix" values="0 0 0 0 0 0 0 0 0 0 0 0 0 0 0 0 0 0 0.25 0"/>
<feBlend mode="normal" in2="shape" result="effect1_innerShadow"/>
<feColorMatrix in="SourceAlpha" type="matrix" values="0 0 0 0 0 0 0 0 0 0 0 0 0 0 0 0 0 0 127 0" result="hardAlpha"/>
<feOffset dx="-1"/>
<feGaussianBlur stdDeviation="1"/>
<feComposite in2="hardAlpha" operator="arithmetic" k2="-1" k3="1"/>
<feColorMatrix type="matrix" values="0 0 0 0 0 0 0 0 0 0 0 0 0 0 0 0 0 0 0.25 0"/>
<feBlend mode="normal" in2="effect1_innerShadow" result="effect2_innerShadow"/>
</filter>
<filter id="filter24_d" x="286" y="178" width="15" height="139" filterUnits="userSpaceOnUse" color-interpolation-filters="sRGB">
<feFlood flood-opacity="0" result="BackgroundImageFix"/>
<feColorMatrix in="SourceAlpha" type="matrix" values="0 0 0 0 0 0 0 0 0 0 0 0 0 0 0 0 0 0 127 0"/>
<feOffset dx="2"/>
<feGaussianBlur stdDeviation="1"/>
<feColorMatrix type="matrix" values="0 0 0 0 0 0 0 0 0 0 0 0 0 0 0 0 0 0 0.25 0"/>
<feBlend mode="normal" in2="BackgroundImageFix" result="effect1_dropShadow"/>
<feBlend mode="normal" in="SourceGraphic" in2="effect1_dropShadow" result="shape"/>
</filter>
<filter id="filter25_d" x="769" y="174" width="15" height="143" filterUnits="userSpaceOnUse" color-interpolation-filters="sRGB">
<feFlood flood-opacity="0" result="BackgroundImageFix"/>
<feColorMatrix in="SourceAlpha" type="matrix" values="0 0 0 0 0 0 0 0 0 0 0 0 0 0 0 0 0 0 127 0"/>
<feOffset dx="2"/>
<feGaussianBlur stdDeviation="1"/>
<feColorMatrix type="matrix" values="0 0 0 0 0 0 0 0 0 0 0 0 0 0 0 0 0 0 0.25 0"/>
<feBlend mode="normal" in2="BackgroundImageFix" result="effect1_dropShadow"/>
<feBlend mode="normal" in="SourceGraphic" in2="effect1_dropShadow" result="shape"/>
</filter>
<filter id="filter26_d" x="278" y="188" width="510" height="124" filterUnits="userSpaceOnUse" color-interpolation-filters="sRGB">
<feFlood flood-opacity="0" result="BackgroundImageFix"/>
<feColorMatrix in="SourceAlpha" type="matrix" values="0 0 0 0 0 0 0 0 0 0 0 0 0 0 0 0 0 0 127 0"/>
<feOffset dy="5"/>
<feGaussianBlur stdDeviation="4"/>
<feColorMatrix type="matrix" values="0 0 0 0 0 0 0 0 0 0 0 0 0 0 0 0 0 0 0.5 0"/>
<feBlend mode="normal" in2="BackgroundImageFix" result="effect1_dropShadow"/>
<feBlend mode="normal" in="SourceGraphic" in2="effect1_dropShadow" result="shape"/>
</filter>
</defs>
</svg>
