<svg width="59" height="59" viewBox="0 0 59 59" fill="none" xmlns="http://www.w3.org/2000/svg">
<circle cx="29.5" cy="29.5" r="29.5" fill="white"/>
<path d="M59 29.6795C59 13.284 45.7964 0 29.5 0C13.2036 0 0 13.284 0 29.6795C0 44.4929 10.7877 56.7716 24.8906 59V38.259H17.3967V29.6795H24.8906V23.1404C24.8906 15.7026 29.2918 11.5942 36.0328 11.5942C39.2612 11.5942 42.637 12.1734 42.637 12.1734V19.4736H38.9162C35.2525 19.4736 34.1094 21.7618 34.1094 24.1086V29.6795H42.2909L40.9824 38.259H34.1094V59C48.2123 56.7716 59 44.4929 59 29.6795Z" fill="#4267B2"/>
</svg>
