<svg width="1440" height="550" viewBox="0 0 1440 550" fill="none" xmlns="http://www.w3.org/2000/svg">
<path d="M0 0L620.5 15V438.5L339.466 392.48C317.452 388.875 296.567 380.24 278.436 367.247L160.371 282.639C135.744 264.991 106.207 255.5 75.909 255.5H0V0Z" fill="#CDCCBF"/>
<path d="M1325.39 5H145.011L0 0L627 239L814.529 313.579C1022.21 396.171 1257.57 368.107 1440 239V148.173V5H1325.39Z" fill="#ADAC9E"/>
<path d="M620.5 236.5L1440 236V550H1135.82C1081.72 550 1029.08 532.525 985.722 500.179L942.864 468.203C890.675 429.266 825.397 412.134 760.813 420.425L620 438.5L620.5 236.5Z" fill="#C5C4B5"/>
</svg>
